*
G04 Mass Parameters ***
*
G04 Image ***
*
%IND:\UTENTI\00.CAD\00.PROGETTI\METALTRONICA\22-310-0\22-310-0.SST*%
%ICAS*%
%MOIN*%
%IPPOS*%
%ASAXBY*%
G74*%FSLAN2X34Y34*%
*
G04 Aperture Definitions ***
*
%ADD10C,0.1260*%
%ADD11C,0.0394*%
%ADD12R,0.0501X0.0404*%
%ADD13R,0.0380X0.0320*%
%ADD14R,0.0404X0.0501*%
%ADD15R,0.0527X0.0630*%
%ADD16R,0.1913X0.1496*%
%ADD17C,0.0590*%
%ADD18R,0.0590X0.0590*%
%ADD19O,0.0787X0.1181*%
%ADD20C,0.0669*%
%ADD21R,0.0669X0.0669*%
%ADD22C,0.0787*%
%ADD23C,0.0512*%
%ADD24C,0.0866*%
%ADD25C,0.0630*%
%ADD26C,0.0551*%
%ADD27R,0.0984X0.0394*%
%ADD28R,0.0400X0.0500*%
%ADD29R,0.0315X0.0354*%
%ADD30R,0.0500X0.0400*%
%ADD31R,0.0320X0.0380*%
%ADD32R,0.0710X0.0400*%
%ADD33R,0.1000X0.0600*%
%ADD34R,0.2760X0.2760*%
%ADD35R,0.0270X0.0500*%
%ADD36O,0.0650X0.0256*%
%ADD37R,0.0236X0.0157*%
%ADD38R,0.0197X0.0157*%
%ADD39R,0.0680X0.1580*%
%ADD40R,0.0680X0.0550*%
%ADD41C,0.0100*%
%ADD42C,0.0250*%
%ADD43C,0.0120*%
%ADD44C,0.0394*%
%ADD45C,0.0400*%
%ADD46C,0.0500*%
%ADD47C,0.0080*%
%ADD48C,0.0394*%
%ADD49R,0.0354X0.0354*%
%ADD50C,0.0060*%
%ADD51C,0.0079*%
*
G04 Plot Data ***
*
G54D41*
G01X0010260Y0019850D02*
Y0019100D01*
X0010170Y0019850D02*
Y0019100D01*
X0010080Y0019850D02*
Y0019100D01*
X0009990Y0019850D02*
Y0019100D01*
X0009900Y0019850D02*
Y0019100D01*
X0009810Y0019850D02*
Y0019100D01*
X0009720Y0019850D02*
Y0019100D01*
X0009630Y0019850D02*
Y0019100D01*
X0009540Y0019850D02*
Y0019100D01*
X0009450Y0019850D02*
Y0019100D01*
X0009360Y0019850D02*
Y0019100D01*
X0009270Y0019850D02*
Y0019100D01*
X0009180Y0019850D02*
Y0019100D01*
X0009090Y0019850D02*
Y0019100D01*
X0014000Y0019770D02*
X0009050D01*
X0014000Y0019680D02*
X0009050D01*
X0014000Y0019590D02*
X0009050D01*
X0014000Y0019500D02*
X0009050D01*
X0014000Y0019410D02*
X0009050D01*
X0014000Y0019320D02*
X0009050D01*
X0014000Y0019230D02*
X0009050D01*
X0012240Y0019850D02*
Y0019100D01*
X0012150Y0019850D02*
Y0019100D01*
X0012060Y0019850D02*
Y0019100D01*
X0011970Y0019850D02*
Y0019100D01*
X0011880Y0019850D02*
Y0019100D01*
X0011790Y0019850D02*
Y0019100D01*
X0011700Y0019850D02*
Y0019100D01*
X0011610Y0019850D02*
Y0019100D01*
X0011520Y0019850D02*
Y0019100D01*
X0011430Y0019850D02*
Y0019100D01*
X0011340Y0019850D02*
Y0019100D01*
X0011250Y0019850D02*
Y0019100D01*
X0011160Y0019850D02*
Y0019100D01*
X0011070Y0019850D02*
Y0019100D01*
X0010980Y0019850D02*
Y0019100D01*
X0010890Y0019850D02*
Y0019100D01*
X0010800Y0019850D02*
Y0019100D01*
X0010710Y0019850D02*
Y0019100D01*
X0010620Y0019850D02*
Y0019100D01*
X0010530Y0019850D02*
Y0019100D01*
X0010440Y0019850D02*
Y0019100D01*
X0010350Y0019850D02*
Y0019100D01*
X0014000Y0019850D02*
X0009050D01*
Y0019100D01*
X0013950Y0019850D02*
Y0019100D01*
X0013860Y0019850D02*
Y0019100D01*
X0013770Y0019850D02*
Y0019100D01*
X0013680Y0019850D02*
Y0019100D01*
X0013590Y0019850D02*
Y0019100D01*
X0013500Y0019850D02*
Y0019100D01*
X0013410Y0019850D02*
Y0019100D01*
X0013320Y0019850D02*
Y0019100D01*
X0013230Y0019850D02*
Y0019100D01*
X0013140Y0019850D02*
Y0019100D01*
X0013050Y0019850D02*
Y0019100D01*
X0012960Y0019850D02*
Y0019100D01*
X0012870Y0019850D02*
Y0019100D01*
X0012780Y0019850D02*
Y0019100D01*
X0012690Y0019850D02*
Y0019100D01*
X0012600Y0019850D02*
Y0019100D01*
X0012510Y0019850D02*
Y0019100D01*
X0012420Y0019850D02*
Y0019100D01*
X0012330Y0019850D02*
Y0019100D01*
X0014000Y0019140D02*
X0009050D01*
X0014000Y0019100D02*
X0009050D01*
X0014000Y0019850D02*
Y0019100D01*
X0010260Y0020850D02*
Y0020100D01*
X0010170Y0020850D02*
Y0020100D01*
X0010080Y0020850D02*
Y0020100D01*
X0009990Y0020850D02*
Y0020100D01*
X0009900Y0020850D02*
Y0020100D01*
X0009810Y0020850D02*
Y0020100D01*
X0009720Y0020850D02*
Y0020100D01*
X0009630Y0020850D02*
Y0020100D01*
X0009540Y0020850D02*
Y0020100D01*
X0009450Y0020850D02*
Y0020100D01*
X0009360Y0020850D02*
Y0020100D01*
X0009270Y0020850D02*
Y0020100D01*
X0009180Y0020850D02*
Y0020100D01*
X0009090Y0020850D02*
Y0020100D01*
X0014000Y0020770D02*
X0009050D01*
X0014000Y0020680D02*
X0009050D01*
X0014000Y0020590D02*
X0009050D01*
X0014000Y0020500D02*
X0009050D01*
X0014000Y0020410D02*
X0009050D01*
X0014000Y0020320D02*
X0009050D01*
X0014000Y0020230D02*
X0009050D01*
X0012240Y0020850D02*
Y0020100D01*
X0012150Y0020850D02*
Y0020100D01*
X0012060Y0020850D02*
Y0020100D01*
X0011970Y0020850D02*
Y0020100D01*
X0011880Y0020850D02*
Y0020100D01*
X0011790Y0020850D02*
Y0020100D01*
X0011700Y0020850D02*
Y0020100D01*
X0011610Y0020850D02*
Y0020100D01*
X0011520Y0020850D02*
Y0020100D01*
X0011430Y0020850D02*
Y0020100D01*
X0011340Y0020850D02*
Y0020100D01*
X0011250Y0020850D02*
Y0020100D01*
X0011160Y0020850D02*
Y0020100D01*
X0011070Y0020850D02*
Y0020100D01*
X0010980Y0020850D02*
Y0020100D01*
X0010890Y0020850D02*
Y0020100D01*
X0010800Y0020850D02*
Y0020100D01*
X0010710Y0020850D02*
Y0020100D01*
X0010620Y0020850D02*
Y0020100D01*
X0010530Y0020850D02*
Y0020100D01*
X0010440Y0020850D02*
Y0020100D01*
X0010350Y0020850D02*
Y0020100D01*
X0014000Y0020850D02*
X0009050D01*
Y0020100D01*
X0013950Y0020850D02*
Y0020100D01*
X0013860Y0020850D02*
Y0020100D01*
X0013770Y0020850D02*
Y0020100D01*
X0013680Y0020850D02*
Y0020100D01*
X0013590Y0020850D02*
Y0020100D01*
X0013500Y0020850D02*
Y0020100D01*
X0013410Y0020850D02*
Y0020100D01*
X0013320Y0020850D02*
Y0020100D01*
X0013230Y0020850D02*
Y0020100D01*
X0013140Y0020850D02*
Y0020100D01*
X0013050Y0020850D02*
Y0020100D01*
X0012960Y0020850D02*
Y0020100D01*
X0012870Y0020850D02*
Y0020100D01*
X0012780Y0020850D02*
Y0020100D01*
X0012690Y0020850D02*
Y0020100D01*
X0012600Y0020850D02*
Y0020100D01*
X0012510Y0020850D02*
Y0020100D01*
X0012420Y0020850D02*
Y0020100D01*
X0012330Y0020850D02*
Y0020100D01*
X0014000Y0020140D02*
X0009050D01*
X0014000Y0020100D02*
X0009050D01*
X0014000Y0020850D02*
Y0020100D01*
G01X0005250Y0012450D02*
G03X0005550Y0012750I0000000J0000300D01*
G01X0004950D02*
G03X0005250Y0012450I0000300J0000000D01*
Y0013050D02*
G03X0004950Y0012750I0000000J0000300D01*
G01X0005550D02*
G03X0005250Y0013050I0000300J0000000D01*
G01X0005000Y0013450D02*
G03X0005300Y0013750I0000000J0000300D01*
G01X0004700D02*
G03X0005000Y0013450I0000300J0000000D01*
Y0014050D02*
G03X0004700Y0013750I0000000J0000300D01*
G01X0005300D02*
G03X0005000Y0014050I0000300J0000000D01*
G01X0006250Y0015200D02*
G03X0006550Y0015500I0000000J0000300D01*
G01X0005950D02*
G03X0006250Y0015200I0000300J0000000D01*
Y0015800D02*
G03X0005950Y0015500I0000000J0000300D01*
G01X0006550D02*
G03X0006250Y0015800I0000300J0000000D01*
G01X0014000Y0010200D02*
G03X0014300Y0010500I0000000J0000300D01*
G01X0013700D02*
G03X0014000Y0010200I0000300J0000000D01*
Y0010800D02*
G03X0013700Y0010500I0000000J0000300D01*
G01X0014300D02*
G03X0014000Y0010800I0000300J0000000D01*
G01X0009750Y0011450D02*
G03X0010050Y0011750I0000000J0000300D01*
G01X0009450D02*
G03X0009750Y0011450I0000300J0000000D01*
Y0012050D02*
G03X0009450Y0011750I0000000J0000300D01*
G01X0010050D02*
G03X0009750Y0012050I0000300J0000000D01*
G01X0004750Y0007450D02*
G03X0005050Y0007750I0000000J0000300D01*
G01X0004450D02*
G03X0004750Y0007450I0000300J0000000D01*
Y0008050D02*
G03X0004450Y0007750I0000000J0000300D01*
G01X0005050D02*
G03X0004750Y0008050I0000300J0000000D01*
G01X0005250Y0005200D02*
G03X0005550Y0005500I0000000J0000300D01*
G01X0004950D02*
G03X0005250Y0005200I0000300J0000000D01*
Y0005800D02*
G03X0004950Y0005500I0000000J0000300D01*
G01X0005550D02*
G03X0005250Y0005800I0000300J0000000D01*
G01X0011000Y0016950D02*
G03X0011300Y0017250I0000000J0000300D01*
G01X0010700D02*
G03X0011000Y0016950I0000300J0000000D01*
Y0017550D02*
G03X0010700Y0017250I0000000J0000300D01*
G01X0011300D02*
G03X0011000Y0017550I0000300J0000000D01*
G01X0009250Y0013450D02*
G03X0009550Y0013750I0000000J0000300D01*
G01X0008950D02*
G03X0009250Y0013450I0000300J0000000D01*
Y0014050D02*
G03X0008950Y0013750I0000000J0000300D01*
G01X0009550D02*
G03X0009250Y0014050I0000300J0000000D01*
G01X0003250Y0005450D02*
G03X0003550Y0005750I0000000J0000300D01*
G01X0002950D02*
G03X0003250Y0005450I0000300J0000000D01*
Y0006050D02*
G03X0002950Y0005750I0000000J0000300D01*
G01X0003550D02*
G03X0003250Y0006050I0000300J0000000D01*
G01X0006000Y0002450D02*
G03X0006300Y0002750I0000000J0000300D01*
G01X0005700D02*
G03X0006000Y0002450I0000300J0000000D01*
Y0003050D02*
G03X0005700Y0002750I0000000J0000300D01*
G01X0006300D02*
G03X0006000Y0003050I0000300J0000000D01*
G01X0005250Y0011700D02*
G03X0005550Y0012000I0000000J0000300D01*
G01X0004950D02*
G03X0005250Y0011700I0000300J0000000D01*
Y0012300D02*
G03X0004950Y0012000I0000000J0000300D01*
G01X0005550D02*
G03X0005250Y0012300I0000300J0000000D01*
G01X0009750Y0002450D02*
G03X0010050Y0002750I0000000J0000300D01*
G01X0009450D02*
G03X0009750Y0002450I0000300J0000000D01*
Y0003050D02*
G03X0009450Y0002750I0000000J0000300D01*
G01X0010050D02*
G03X0009750Y0003050I0000300J0000000D01*
G01X0001250Y0001950D02*
G03X0001550Y0002250I0000000J0000300D01*
G01X0000950D02*
G03X0001250Y0001950I0000300J0000000D01*
Y0002550D02*
G03X0000950Y0002250I0000000J0000300D01*
G01X0001550D02*
G03X0001250Y0002550I0000300J0000000D01*
G01X0009750Y0010450D02*
G03X0010050Y0010750I0000000J0000300D01*
G01X0009450D02*
G03X0009750Y0010450I0000300J0000000D01*
Y0011050D02*
G03X0009450Y0010750I0000000J0000300D01*
G01X0010050D02*
G03X0009750Y0011050I0000300J0000000D01*
G54D47*
G01X0016906Y0009914D02*
X0016828Y0009836D01*
X0016750Y0009798D01*
X0016594D01*
X0016517Y0009836D01*
X0016439Y0009914D01*
Y0009992D01*
X0016517Y0010070D01*
X0016594Y0010109D01*
X0016750D01*
X0016828Y0010070D01*
X0016906Y0009992D01*
Y0009914D01*
X0016672Y0009599D02*
Y0009288D01*
X0016906Y0008894D02*
X0016828Y0008816D01*
X0016750Y0008778D01*
X0016594D01*
X0016517Y0008816D01*
X0016439Y0008894D01*
Y0008972D01*
X0016517Y0009050D01*
X0016594Y0009089D01*
X0016750D01*
X0016828Y0009050D01*
X0016906Y0008972D01*
Y0008894D01*
Y0008579D02*
Y0008423D01*
Y0008501D02*
X0016439D01*
X0016517Y0008423D01*
X0016828Y0007835D02*
X0016906Y0007913D01*
Y0008069D01*
X0016828Y0008147D01*
X0016750D01*
X0016594Y0007991D01*
X0016439Y0008147D01*
Y0007835D01*
X0016672Y0007637D02*
Y0007325D01*
X0016906Y0007127D02*
Y0006815D01*
X0016594Y0007127D01*
X0016517D01*
X0016439Y0007088D01*
Y0006854D01*
X0016517Y0006815D01*
X0016906Y0006617D02*
Y0006305D01*
X0016594Y0006617D01*
X0016517D01*
X0016439Y0006578D01*
Y0006344D01*
X0016517Y0006305D01*
X0008820Y0019528D02*
X0008509D01*
X0008820Y0019294D02*
Y0019761D01*
X0008509Y0019294D02*
Y0019761D01*
X0008310Y0019372D02*
X0008271Y0019294D01*
X0008038D01*
X0007999Y0019372D01*
Y0019683D01*
X0008038Y0019761D01*
X0008271D01*
X0008310Y0019683D01*
X0007800D02*
X0007761Y0019761D01*
X0007528D01*
X0007489Y0019683D01*
Y0019605D01*
X0007528Y0019528D01*
X0007761D01*
X0007800Y0019450D01*
Y0019372D01*
X0007761Y0019294D01*
X0007528D01*
X0007489Y0019372D01*
X0008624Y0020244D02*
Y0020478D01*
X0008780Y0020711D02*
X0008663Y0020478D01*
X0008585D01*
X0008469Y0020711D01*
X0008270Y0020633D02*
X0008231Y0020711D01*
X0007998D01*
X0007959Y0020633D01*
Y0020555D01*
X0007998Y0020478D01*
X0008231D01*
X0008270Y0020400D01*
Y0020322D01*
X0008231Y0020244D01*
X0007998D01*
X0007959Y0020322D01*
X0007760Y0020633D02*
X0007721Y0020711D01*
X0007488D01*
X0007449Y0020633D01*
Y0020555D01*
X0007488Y0020478D01*
X0007721D01*
X0007760Y0020400D01*
Y0020322D01*
X0007721Y0020244D01*
X0007488D01*
X0007449Y0020322D01*
X0007250Y0020400D02*
X0006939D01*
X0007250Y0020244D02*
Y0020478D01*
X0007133Y0020711D01*
X0007055D01*
X0006939Y0020478D01*
Y0020244D01*
G54D50*
G01X0006594Y0012655D02*
X0006641Y0012588D01*
X0006734D01*
X0006781Y0012655D01*
Y0012721D01*
X0006688Y0012855D01*
X0006781Y0012988D01*
X0006594D01*
X0006451Y0012588D02*
X0006358D01*
X0006404D02*
Y0012988D01*
X0006358Y0012921D01*
X0005981Y0012788D02*
X0006121D01*
X0006168Y0012855D01*
Y0012921D01*
X0006121Y0012988D01*
X0005981D01*
Y0012588D01*
X0005744D02*
Y0012988D01*
X0005838D02*
X0005651D01*
X0006461Y0016651D02*
X0006061Y0016791D01*
Y0016605D01*
X0006261Y0016275D02*
Y0016415D01*
X0006194Y0016461D01*
X0006128D01*
X0006061Y0016415D01*
Y0016275D01*
X0006461D01*
Y0016038D02*
X0006061D01*
Y0016131D02*
Y0015945D01*
X0007189Y0000912D02*
X0007123Y0000865D01*
X0007056Y0000842D01*
X0006923D01*
X0006856Y0000865D01*
X0006789Y0000912D01*
Y0000959D01*
X0006856Y0001005D01*
X0006923Y0001029D01*
X0007056D01*
X0007123Y0001005D01*
X0007189Y0000959D01*
Y0000912D01*
Y0000699D02*
Y0000605D01*
Y0000652D02*
X0006789D01*
X0006856Y0000605D01*
X0007123Y0000415D02*
X0007189Y0000392D01*
Y0000252D01*
X0007123Y0000229D01*
X0006856D01*
X0006789Y0000252D01*
Y0000392D01*
X0006856Y0000415D01*
X-0000856Y0005835D02*
Y0005649D01*
X-0001123Y0005835D01*
X-0001189D01*
X-0001256Y0005812D01*
Y0005672D01*
X-0001189Y0005649D01*
X-0000856Y0005505D02*
Y0005412D01*
Y0005459D02*
X-0001256D01*
X-0001189Y0005412D01*
X-0000923Y0005222D02*
X-0000856Y0005199D01*
Y0005059D01*
X-0000923Y0005035D01*
X-0001189D01*
X-0001256Y0005059D01*
Y0005199D01*
X-0001189Y0005222D01*
X0011513Y0001217D02*
X0011420D01*
X0011467D02*
Y0001617D01*
X0011420Y0001550D01*
X0014483Y0001517D02*
Y0001330D01*
X0014217Y0001517D01*
X0014150D01*
X0014083Y0001493D01*
Y0001353D01*
X0014150Y0001330D01*
X0014350Y0001023D02*
X0014417D01*
X0014483Y0001047D01*
Y0001140D01*
X0014417Y0001163D01*
X0014083D01*
Y0001187D02*
Y0001093D01*
X0014828Y0011091D02*
Y0010905D01*
X0014561Y0010998D01*
Y0011045D01*
X0014961D01*
X0014761Y0010575D02*
Y0010715D01*
X0014694Y0010761D01*
X0014628D01*
X0014561Y0010715D01*
Y0010575D01*
X0014961D01*
Y0010338D02*
X0014561D01*
Y0010431D02*
Y0010245D01*
X0008389Y0009132D02*
Y0009039D01*
Y0009085D02*
X0007989D01*
X0008056Y0009039D01*
X0008389Y0008849D02*
Y0008755D01*
Y0008802D02*
X0007989D01*
X0008056Y0008755D01*
X0008189Y0008495D02*
X0008389Y0008565D01*
X0008189Y0008379D02*
Y0008519D01*
X0008123Y0008565D01*
X0008056D01*
X0007989Y0008519D01*
Y0008379D01*
X0008389D01*
X0008923Y0010292D02*
X0008989Y0010315D01*
Y0010455D01*
X0008923Y0010479D01*
X0008789D01*
X0008723Y0010432D01*
Y0010292D01*
X0008589D01*
Y0010479D01*
X0008989Y0010149D02*
Y0010055D01*
Y0010102D02*
X0008589D01*
X0008656Y0010055D01*
X0008923Y0009865D02*
X0008989Y0009842D01*
Y0009702D01*
X0008923Y0009679D01*
X0008656D01*
X0008589Y0009702D01*
Y0009842D01*
X0008656Y0009865D01*
X0010044Y0012255D02*
X0010068Y0012188D01*
X0010208D01*
X0010231Y0012255D01*
Y0012388D01*
X0010184Y0012455D01*
X0010044D01*
Y0012588D01*
X0010231D01*
X0009901Y0012188D02*
X0009808D01*
X0009854D02*
Y0012588D01*
X0009808Y0012521D01*
X0009431Y0012388D02*
X0009571D01*
X0009618Y0012455D01*
Y0012521D01*
X0009571Y0012588D01*
X0009431D01*
Y0012188D01*
X0009194D02*
Y0012588D01*
X0009288D02*
X0009101D01*
X0002563Y0000997D02*
Y0000811D01*
X0002296Y0000904D01*
Y0000951D01*
X0002696D01*
X0002296Y0000667D02*
X0002630D01*
X0002696Y0000644D01*
Y0000504D01*
X0002630Y0000481D01*
X0002296D01*
X-0000354Y0017783D02*
Y0017689D01*
Y0017736D02*
X-0000754D01*
X-0000688Y0017689D01*
X-0000421Y0017499D02*
X-0000354Y0017476D01*
Y0017336D01*
X-0000421Y0017313D01*
X-0000688D01*
X-0000754Y0017336D01*
Y0017476D01*
X-0000688Y0017499D01*
X0010670Y0011682D02*
Y0011496D01*
X0010403Y0011682D01*
X0010337D01*
X0010270Y0011659D01*
Y0011519D01*
X0010337Y0011496D01*
X0010537Y0011259D02*
X0010670Y0011352D01*
X0010603Y0011166D02*
X0010670Y0011189D01*
Y0011282D01*
X0010603Y0011306D01*
X0010537Y0011352D01*
X0010337D01*
X0010270Y0011329D01*
Y0011189D01*
X0010337Y0011166D01*
X0010603D01*
X0009694Y0010105D02*
X0009761Y0010151D01*
Y0010245D01*
X0009694Y0010291D01*
X0009628D01*
X0009494Y0010198D01*
X0009361Y0010291D01*
Y0010105D01*
X0009561Y0009775D02*
Y0009915D01*
X0009494Y0009961D01*
X0009428D01*
X0009361Y0009915D01*
Y0009775D01*
X0009761D01*
Y0009538D02*
X0009361D01*
Y0009631D02*
Y0009445D01*
X0005289Y0009832D02*
Y0009972D01*
X0005356Y0009995D01*
X0005423D01*
X0005489Y0009972D01*
Y0009832D01*
X0005423Y0009809D01*
X0005356D01*
X0005089Y0009902D01*
X0005423Y0009665D02*
X0005489Y0009642D01*
Y0009502D01*
X0005423Y0009479D01*
X0005156D01*
X0005089Y0009502D01*
Y0009642D01*
X0005156Y0009665D01*
X0010889Y0009122D02*
X0010823Y0009145D01*
X0010756D01*
X0010689Y0009122D01*
Y0008982D01*
X0010756Y0008959D01*
X0010823D01*
X0010889Y0008982D01*
Y0009122D01*
X0010956Y0009145D01*
X0011023D01*
X0011089Y0009122D01*
Y0008982D01*
X0011023Y0008959D01*
X0010956D01*
X0010889Y0008982D01*
Y0008745D02*
X0011089Y0008815D01*
X0010889Y0008629D02*
Y0008769D01*
X0010823Y0008815D01*
X0010756D01*
X0010689Y0008769D01*
Y0008629D01*
X0011089D01*
X0000427Y0003564D02*
Y0003378D01*
X0000160Y0003564D01*
X0000094D01*
X0000027Y0003541D01*
Y0003401D01*
X0000094Y0003378D01*
X0000427Y0003234D02*
Y0003048D01*
X0000160Y0003234D01*
X0000094D01*
X0000027Y0003211D01*
Y0003071D01*
X0000094Y0003048D01*
X0000227Y0002834D02*
X0000427Y0002904D01*
X0000227Y0002718D02*
Y0002858D01*
X0000160Y0002904D01*
X0000094D01*
X0000027Y0002858D01*
Y0002718D01*
X0000427D01*
X0008389Y0005339D02*
X0007989Y0005479D01*
Y0005292D01*
X0008389Y0005149D02*
Y0005055D01*
Y0005102D02*
X0007989D01*
X0008056Y0005055D01*
X0008189Y0004795D02*
X0008389Y0004865D01*
X0008189Y0004679D02*
Y0004819D01*
X0008123Y0004865D01*
X0008056D01*
X0007989Y0004819D01*
Y0004679D01*
X0008389D01*
X0012283Y0015673D02*
Y0015580D01*
Y0015627D02*
X0011883D01*
X0011950Y0015580D01*
Y0015390D02*
X0011883Y0015367D01*
Y0015227D01*
X0011950Y0015203D01*
X0012017D01*
X0012083Y0015227D01*
Y0015367D01*
X0012150Y0015390D01*
X0012217D01*
X0012283Y0015367D01*
Y0015227D01*
X0012217Y0015203D01*
X0012283Y0014897D02*
X0011883D01*
X0012283Y0014873D02*
Y0015013D01*
X0012150Y0015060D01*
X0012017D01*
X0011883Y0015013D01*
Y0014873D01*
X0004711Y0009275D02*
Y0009088D01*
X0004444Y0009275D01*
X0004378D01*
X0004311Y0009251D01*
Y0009111D01*
X0004378Y0009088D01*
X0004711Y0008945D02*
Y0008851D01*
Y0008898D02*
X0004311D01*
X0004378Y0008851D01*
X0004511Y0008475D02*
Y0008615D01*
X0004444Y0008661D01*
X0004378D01*
X0004311Y0008615D01*
Y0008475D01*
X0004711D01*
Y0008238D02*
X0004311D01*
Y0008331D02*
Y0008145D01*
X0003079Y0004476D02*
X0003145Y0004523D01*
Y0004616D01*
X0003079Y0004663D01*
X0003012D01*
X0002879Y0004569D01*
X0002745Y0004663D01*
Y0004476D01*
X0003145Y0004333D02*
Y0004239D01*
Y0004286D02*
X0002745D01*
X0002812Y0004239D01*
X0003079Y0004049D02*
X0003145Y0004026D01*
Y0003886D01*
X0003079Y0003863D01*
X0002812D01*
X0002745Y0003886D01*
Y0004026D01*
X0002812Y0004049D01*
X0012653Y0013696D02*
X0012720Y0013742D01*
Y0013836D01*
X0012653Y0013882D01*
X0012587D01*
X0012453Y0013789D01*
X0012320Y0013882D01*
Y0013696D01*
X0012587Y0013459D02*
X0012720Y0013552D01*
X0012653Y0013366D02*
X0012720Y0013389D01*
Y0013482D01*
X0012653Y0013506D01*
X0012587Y0013552D01*
X0012387D01*
X0012320Y0013529D01*
Y0013389D01*
X0012387Y0013366D01*
X0012653D01*
X0004812Y0005984D02*
Y0005891D01*
Y0005938D02*
X0004412D01*
X0004479Y0005891D01*
X0004812Y0005701D02*
Y0005608D01*
Y0005654D02*
X0004412D01*
X0004479Y0005608D01*
X0004612Y0005231D02*
Y0005371D01*
X0004545Y0005418D01*
X0004479D01*
X0004412Y0005371D01*
Y0005231D01*
X0004812D01*
Y0004994D02*
X0004412D01*
Y0005088D02*
Y0004901D01*
X0006863Y0002966D02*
X0006930Y0002989D01*
Y0003129D01*
X0006863Y0003152D01*
X0006730D01*
X0006663Y0003106D01*
Y0002966D01*
X0006530D01*
Y0003152D01*
Y0002822D02*
X0006863D01*
X0006930Y0002799D01*
Y0002659D01*
X0006863Y0002636D01*
X0006530D01*
X0004089Y0011085D02*
X0003689Y0011225D01*
Y0011039D01*
X0004089Y0010895D02*
Y0010709D01*
X0003823Y0010895D01*
X0003756D01*
X0003689Y0010872D01*
Y0010732D01*
X0003756Y0010709D01*
X0003889Y0010495D02*
X0004089Y0010565D01*
X0003889Y0010379D02*
Y0010519D01*
X0003823Y0010565D01*
X0003756D01*
X0003689Y0010519D01*
Y0010379D01*
X0004089D01*
X0011044Y0013284D02*
Y0013098D01*
X0010777Y0013191D01*
Y0013238D01*
X0011177D01*
X0010977Y0012884D02*
X0011177Y0012954D01*
X0010977Y0012768D02*
Y0012908D01*
X0010910Y0012954D01*
X0010844D01*
X0010777Y0012908D01*
Y0012768D01*
X0011177D01*
X0012577Y0011871D02*
Y0012011D01*
X0012644Y0012034D01*
X0012710D01*
X0012777Y0012011D01*
Y0011871D01*
X0012710Y0011848D01*
X0012644D01*
X0012377Y0011941D01*
X0012577Y0011634D02*
X0012777Y0011704D01*
X0012577Y0011518D02*
Y0011658D01*
X0012510Y0011704D01*
X0012444D01*
X0012377Y0011658D01*
Y0011518D01*
X0012777D01*
X0004760Y0007131D02*
X0004827Y0007154D01*
Y0007294D01*
X0004760Y0007318D01*
X0004627D01*
X0004560Y0007271D01*
Y0007131D01*
X0004427D01*
Y0007318D01*
X0004827Y0006988D02*
Y0006894D01*
Y0006941D02*
X0004427D01*
X0004494Y0006894D01*
X0004627Y0006634D02*
X0004827Y0006704D01*
X0004627Y0006518D02*
Y0006658D01*
X0004560Y0006704D01*
X0004494D01*
X0004427Y0006658D01*
Y0006518D01*
X0004827D01*
X0014337Y0013982D02*
Y0013796D01*
X0014070Y0013889D01*
Y0013936D01*
X0014470D01*
X0014337Y0013559D02*
X0014470Y0013652D01*
X0014403Y0013466D02*
X0014470Y0013489D01*
Y0013582D01*
X0014403Y0013606D01*
X0014337Y0013652D01*
X0014137D01*
X0014070Y0013629D01*
Y0013489D01*
X0014137Y0013466D01*
X0014403D01*
X0003466Y0015227D02*
Y0015133D01*
Y0015180D02*
X0003066D01*
X0003132Y0015133D01*
X0003066Y0014943D02*
X0003399D01*
X0003466Y0014920D01*
Y0014780D01*
X0003399Y0014757D01*
X0003066D01*
X0007777Y0000994D02*
X0007710Y0001018D01*
X0007644D01*
X0007577Y0000994D01*
Y0000854D01*
X0007644Y0000831D01*
X0007710D01*
X0007777Y0000854D01*
Y0000994D01*
X0007844Y0001018D01*
X0007910D01*
X0007977Y0000994D01*
Y0000854D01*
X0007910Y0000831D01*
X0007844D01*
X0007777Y0000854D01*
X0007977Y0000688D02*
Y0000594D01*
Y0000641D02*
X0007577D01*
X0007644Y0000594D01*
X0007777Y0000334D02*
X0007977Y0000404D01*
X0007777Y0000218D02*
Y0000358D01*
X0007710Y0000404D01*
X0007644D01*
X0007577Y0000358D01*
Y0000218D01*
X0007977D01*
X0004896Y0000734D02*
Y0000874D01*
X0004963Y0000897D01*
X0005030D01*
X0005096Y0000874D01*
Y0000734D01*
X0005030Y0000711D01*
X0004963D01*
X0004696Y0000804D01*
X0004963Y0000474D02*
X0005096Y0000567D01*
X0005030Y0000381D02*
X0005096Y0000404D01*
Y0000497D01*
X0005030Y0000521D01*
X0004963Y0000567D01*
X0004763D01*
X0004696Y0000544D01*
Y0000404D01*
X0004763Y0000381D01*
X0005030D01*
X0011261Y0018495D02*
Y0018401D01*
Y0018448D02*
X0010861D01*
X0010928Y0018401D01*
X0011061Y0018025D02*
Y0018165D01*
X0010994Y0018211D01*
X0010928D01*
X0010861Y0018165D01*
Y0018025D01*
X0011261D01*
Y0017788D02*
X0010861D01*
Y0017881D02*
Y0017695D01*
X0009789Y0009005D02*
X0009389Y0009145D01*
Y0008959D01*
X0009589Y0008745D02*
X0009789Y0008815D01*
X0009589Y0008629D02*
Y0008769D01*
X0009523Y0008815D01*
X0009456D01*
X0009389Y0008769D01*
Y0008629D01*
X0009789D01*
X-0000560Y0003582D02*
Y0003489D01*
Y0003535D02*
X-0000960D01*
X-0000894Y0003489D01*
X-0000560Y0003299D02*
Y0003205D01*
Y0003252D02*
X-0000960D01*
X-0000894Y0003205D01*
X-0000627Y0003015D02*
X-0000560Y0002992D01*
Y0002852D01*
X-0000627Y0002829D01*
X-0000894D01*
X-0000960Y0002852D01*
Y0002992D01*
X-0000894Y0003015D01*
X0009777Y0000994D02*
Y0000854D01*
X0009710Y0000831D01*
X0009644D01*
X0009577Y0000854D01*
Y0000994D01*
X0009644Y0001018D01*
X0009710D01*
X0009977Y0000924D01*
Y0000688D02*
Y0000594D01*
Y0000641D02*
X0009577D01*
X0009644Y0000594D01*
X0009777Y0000334D02*
X0009977Y0000404D01*
X0009777Y0000218D02*
Y0000358D01*
X0009710Y0000404D01*
X0009644D01*
X0009577Y0000358D01*
Y0000218D01*
X0009977D01*
X0003579Y0005005D02*
X0003393D01*
X0003486Y0005272D01*
X0003533D01*
Y0004872D01*
X0003249D02*
X0003156D01*
X0003203D02*
Y0005272D01*
X0003156Y0005205D01*
X0002896Y0005072D02*
X0002966Y0004872D01*
X0002779Y0005072D02*
X0002919D01*
X0002966Y0005139D01*
Y0005205D01*
X0002919Y0005272D01*
X0002779D01*
Y0004872D01*
X0002839Y0011739D02*
X0002863Y0011672D01*
X0003003D01*
X0003026Y0011739D01*
Y0011872D01*
X0002979Y0011939D01*
X0002839D01*
Y0012072D01*
X0003026D01*
X0002696Y0011672D02*
X0002509D01*
X0002696Y0011939D01*
Y0012005D01*
X0002673Y0012072D01*
X0002533D01*
X0002509Y0012005D01*
X0002296Y0011872D02*
X0002366Y0011672D01*
X0002179Y0011872D02*
X0002319D01*
X0002366Y0011939D01*
Y0012005D01*
X0002319Y0012072D01*
X0002179D01*
Y0011672D01*
X0000863Y0020017D02*
X0000770D01*
X0000817D02*
Y0020417D01*
X0000770Y0020350D01*
X0002500Y0019467D02*
Y0019280D01*
X0002233Y0019373D01*
Y0019420D01*
X0002633D01*
X0002500Y0018973D02*
X0002567D01*
X0002633Y0018997D01*
Y0019090D01*
X0002567Y0019113D01*
X0002233D01*
Y0019137D02*
Y0019043D01*
X0014939Y0011995D02*
Y0011809D01*
X0014673Y0011995D01*
X0014606D01*
X0014539Y0011972D01*
Y0011832D01*
X0014606Y0011809D01*
X0014739Y0011595D02*
X0014939Y0011665D01*
X0014739Y0011479D02*
Y0011619D01*
X0014673Y0011665D01*
X0014606D01*
X0014539Y0011619D01*
Y0011479D01*
X0014939D01*
X0013578Y0018507D02*
Y0018414D01*
Y0018460D02*
X0013178D01*
X0013244Y0018414D01*
X0013444Y0018060D02*
X0013511D01*
X0013578Y0018084D01*
Y0018177D01*
X0013511Y0018200D01*
X0013178D01*
Y0018224D02*
Y0018130D01*
X0015355Y0016925D02*
X0015261D01*
X0015308D02*
Y0017325D01*
X0015261Y0017259D01*
X0004639Y0004522D02*
X0004573Y0004545D01*
X0004506D01*
X0004439Y0004522D01*
Y0004382D01*
X0004506Y0004359D01*
X0004573D01*
X0004639Y0004382D01*
Y0004522D01*
X0004706Y0004545D01*
X0004773D01*
X0004839Y0004522D01*
Y0004382D01*
X0004773Y0004359D01*
X0004706D01*
X0004639Y0004382D01*
X0004773Y0004215D02*
X0004839Y0004192D01*
Y0004052D01*
X0004773Y0004029D01*
X0004506D01*
X0004439Y0004052D01*
Y0004192D01*
X0004506Y0004215D01*
X0001661Y0018074D02*
Y0017981D01*
Y0018027D02*
X0001261D01*
X0001328Y0017981D01*
X0001595Y0017791D02*
X0001661Y0017767D01*
Y0017627D01*
X0001595Y0017604D01*
X0001328D01*
X0001261Y0017627D01*
Y0017767D01*
X0001328Y0017791D01*
X0001661Y0017367D02*
X0001261D01*
Y0017461D02*
Y0017274D01*
X0001461Y0016944D02*
Y0017084D01*
X0001395Y0017131D01*
X0001328D01*
X0001261Y0017084D01*
Y0016944D01*
X0001661D01*
X-0001348Y0008160D02*
Y0008300D01*
X-0001282Y0008324D01*
X-0001215D01*
X-0001148Y0008300D01*
Y0008160D01*
X-0001215Y0008137D01*
X-0001282D01*
X-0001548Y0008230D01*
Y0007994D02*
X-0001215D01*
X-0001148Y0007970D01*
Y0007830D01*
X-0001215Y0007807D01*
X-0001548D01*
X0002506Y0018795D02*
Y0018609D01*
X0002239Y0018702D01*
Y0018749D01*
X0002639D01*
X0002573Y0018465D02*
X0002639Y0018442D01*
Y0018302D01*
X0002573Y0018279D01*
X0002306D01*
X0002239Y0018302D01*
Y0018442D01*
X0002306Y0018465D01*
X0002723Y0008409D02*
X0002789Y0008455D01*
Y0008549D01*
X0002723Y0008595D01*
X0002656D01*
X0002523Y0008502D01*
X0002389Y0008595D01*
Y0008409D01*
X0002723Y0008265D02*
X0002789Y0008242D01*
Y0008102D01*
X0002723Y0008079D01*
X0002456D01*
X0002389Y0008102D01*
Y0008242D01*
X0002456Y0008265D01*
X0010277Y0013288D02*
Y0013194D01*
Y0013241D02*
X0009877D01*
X0009944Y0013194D01*
X0010077Y0012934D02*
X0010277Y0013004D01*
X0010077Y0012818D02*
Y0012958D01*
X0010010Y0013004D01*
X0009944D01*
X0009877Y0012958D01*
Y0012818D01*
X0010277D01*
X0004023Y0003389D02*
X0004089Y0003435D01*
Y0003529D01*
X0004023Y0003575D01*
X0003956D01*
X0003823Y0003482D01*
X0003689Y0003575D01*
Y0003389D01*
X0004089Y0003245D02*
Y0003059D01*
X0003823Y0003245D01*
X0003756D01*
X0003689Y0003222D01*
Y0003082D01*
X0003756Y0003059D01*
X0003889Y0002845D02*
X0004089Y0002915D01*
X0003889Y0002729D02*
Y0002869D01*
X0003823Y0002915D01*
X0003756D01*
X0003689Y0002869D01*
Y0002729D01*
X0004089D01*
X0006061Y0013605D02*
X0006084Y0013538D01*
X0006224D01*
X0006248Y0013605D01*
Y0013738D01*
X0006201Y0013805D01*
X0006061D01*
Y0013938D01*
X0006248D01*
X0005731Y0013738D02*
X0005871D01*
X0005918Y0013805D01*
Y0013871D01*
X0005871Y0013938D01*
X0005731D01*
Y0013538D01*
X0005494D02*
Y0013938D01*
X0005588D02*
X0005401D01*
X0009411Y0015091D02*
Y0014905D01*
X0009144Y0015091D01*
X0009078D01*
X0009011Y0015068D01*
Y0014928D01*
X0009078Y0014905D01*
X0009211Y0014575D02*
Y0014715D01*
X0009144Y0014761D01*
X0009078D01*
X0009011Y0014715D01*
Y0014575D01*
X0009411D01*
Y0014338D02*
X0009011D01*
Y0014431D02*
Y0014245D01*
X0004377Y0011004D02*
Y0011144D01*
X0004444Y0011168D01*
X0004510D01*
X0004577Y0011144D01*
Y0011004D01*
X0004510Y0010981D01*
X0004444D01*
X0004177Y0011074D01*
X0004577Y0010838D02*
Y0010744D01*
Y0010791D02*
X0004177D01*
X0004244Y0010744D01*
X0004510Y0010554D02*
X0004577Y0010531D01*
Y0010391D01*
X0004510Y0010368D01*
X0004244D01*
X0004177Y0010391D01*
Y0010531D01*
X0004244Y0010554D01*
X0015910Y0010598D02*
X0015977Y0010644D01*
Y0010738D01*
X0015910Y0010784D01*
X0015844D01*
X0015710Y0010691D01*
X0015577Y0010784D01*
Y0010598D01*
X0015777Y0010384D02*
X0015977Y0010454D01*
X0015777Y0010268D02*
Y0010408D01*
X0015710Y0010454D01*
X0015644D01*
X0015577Y0010408D01*
Y0010268D01*
X0015977D01*
X0002611Y0006118D02*
X0002544Y0006141D01*
X0002478D01*
X0002411Y0006118D01*
Y0005978D01*
X0002478Y0005955D01*
X0002544D01*
X0002611Y0005978D01*
Y0006118D01*
X0002678Y0006141D01*
X0002744D01*
X0002811Y0006118D01*
Y0005978D01*
X0002744Y0005955D01*
X0002678D01*
X0002611Y0005978D01*
Y0005625D02*
Y0005765D01*
X0002544Y0005811D01*
X0002478D01*
X0002411Y0005765D01*
Y0005625D01*
X0002811D01*
Y0005388D02*
X0002411D01*
Y0005481D02*
Y0005295D01*
X0005577Y0007594D02*
X0005177Y0007734D01*
Y0007548D01*
X0005510Y0007404D02*
X0005577Y0007381D01*
Y0007241D01*
X0005510Y0007218D01*
X0005244D01*
X0005177Y0007241D01*
Y0007381D01*
X0005244Y0007404D01*
X0005564Y0002988D02*
X0005518Y0003055D01*
X0005494Y0003121D01*
Y0003255D01*
X0005518Y0003321D01*
X0005564Y0003388D01*
X0005611D01*
X0005658Y0003321D01*
X0005681Y0003255D01*
Y0003121D01*
X0005658Y0003055D01*
X0005611Y0002988D01*
X0005564D01*
X0005351D02*
X0005258D01*
X0005304D02*
Y0003388D01*
X0005258Y0003321D01*
X0004881Y0003188D02*
X0005021D01*
X0005068Y0003255D01*
Y0003321D01*
X0005021Y0003388D01*
X0004881D01*
Y0002988D01*
X0004644D02*
Y0003388D01*
X0004738D02*
X0004551D01*
X0007055Y0018554D02*
X0006989Y0018507D01*
X0006922Y0018484D01*
X0006789D01*
X0006722Y0018507D01*
X0006655Y0018554D01*
Y0018600D01*
X0006722Y0018647D01*
X0006789Y0018670D01*
X0006922D01*
X0006989Y0018647D01*
X0007055Y0018600D01*
Y0018554D01*
Y0018340D02*
Y0018247D01*
Y0018294D02*
X0006655D01*
X0006722Y0018247D01*
X0006855Y0017987D02*
X0007055Y0018057D01*
X0006855Y0017870D02*
Y0018010D01*
X0006789Y0018057D01*
X0006722D01*
X0006655Y0018010D01*
Y0017870D01*
X0007055D01*
X0006630Y0009802D02*
Y0009616D01*
X0006363Y0009802D01*
X0006297D01*
X0006230Y0009779D01*
Y0009639D01*
X0006297Y0009616D01*
X0006230Y0009472D02*
X0006563D01*
X0006630Y0009449D01*
Y0009309D01*
X0006563Y0009286D01*
X0006230D01*
X0012139Y0009072D02*
Y0008932D01*
X0012073Y0008909D01*
X0012006D01*
X0011939Y0008932D01*
Y0009072D01*
X0012006Y0009095D01*
X0012073D01*
X0012339Y0009002D01*
X0012139Y0008695D02*
X0012339Y0008765D01*
X0012139Y0008579D02*
Y0008719D01*
X0012073Y0008765D01*
X0012006D01*
X0011939Y0008719D01*
Y0008579D01*
X0012339D01*
X0004831Y0012071D02*
X0004644D01*
X0004738Y0012338D01*
X0004784D01*
Y0011938D01*
X0004501D02*
X0004408D01*
X0004454D02*
Y0012338D01*
X0004408Y0012271D01*
X0004031Y0012138D02*
X0004171D01*
X0004218Y0012205D01*
Y0012271D01*
X0004171Y0012338D01*
X0004031D01*
Y0011938D01*
X0003794D02*
Y0012338D01*
X0003888D02*
X0003701D01*
X0010511Y0010309D02*
X0010578Y0010333D01*
Y0010473D01*
X0010511Y0010496D01*
X0010378D01*
X0010311Y0010449D01*
Y0010309D01*
X0010178D01*
Y0010496D01*
X0010378Y0010096D02*
X0010578Y0010166D01*
X0010378Y0009979D02*
Y0010119D01*
X0010311Y0010166D01*
X0010244D01*
X0010178Y0010119D01*
Y0009979D01*
X0010578D01*
X0009520Y0015986D02*
Y0015892D01*
Y0015939D02*
X0009120D01*
X0009187Y0015892D01*
X0009387Y0015609D02*
X0009520Y0015702D01*
X0009453Y0015516D02*
X0009520Y0015539D01*
Y0015632D01*
X0009453Y0015656D01*
X0009387Y0015702D01*
X0009187D01*
X0009120Y0015679D01*
Y0015539D01*
X0009187Y0015516D01*
X0009453D01*
X0007791Y0012060D02*
Y0011920D01*
X0007725Y0011897D01*
X0007658D01*
X0007591Y0011920D01*
Y0012060D01*
X0007658Y0012083D01*
X0007725D01*
X0007991Y0011990D01*
X0007591Y0011753D02*
X0007925D01*
X0007991Y0011730D01*
Y0011590D01*
X0007925Y0011567D01*
X0007591D01*
X0009711Y0007313D02*
Y0007453D01*
X0009778Y0007476D01*
X0009844D01*
X0009911Y0007453D01*
Y0007313D01*
X0009844Y0007290D01*
X0009778D01*
X0009511Y0007383D01*
X0009911Y0007146D02*
Y0007053D01*
Y0007100D02*
X0009511D01*
X0009578Y0007053D01*
X0009711Y0006793D02*
X0009911Y0006863D01*
X0009711Y0006676D02*
Y0006816D01*
X0009644Y0006863D01*
X0009578D01*
X0009511Y0006816D01*
Y0006676D01*
X0009911D01*
X0008023Y0007309D02*
X0008089Y0007332D01*
Y0007472D01*
X0008023Y0007495D01*
X0007889D01*
X0007823Y0007449D01*
Y0007309D01*
X0007689D01*
Y0007495D01*
X0008023Y0007165D02*
X0008089Y0007142D01*
Y0007002D01*
X0008023Y0006979D01*
X0007756D01*
X0007689Y0007002D01*
Y0007142D01*
X0007756Y0007165D01*
X-0001228Y0010384D02*
X-0001295Y0010338D01*
X-0001361Y0010314D01*
X-0001495D01*
X-0001561Y0010338D01*
X-0001628Y0010384D01*
Y0010431D01*
X-0001561Y0010478D01*
X-0001495Y0010501D01*
X-0001361D01*
X-0001295Y0010478D01*
X-0001228Y0010431D01*
Y0010384D01*
Y0010171D02*
Y0010078D01*
Y0010124D02*
X-0001628D01*
X-0001561Y0010078D01*
X-0001628Y0009888D02*
X-0001295D01*
X-0001228Y0009864D01*
Y0009724D01*
X-0001295Y0009701D01*
X-0001628D01*
X0009711Y0004018D02*
Y0003878D01*
X0009644Y0003855D01*
X0009578D01*
X0009511Y0003878D01*
Y0004018D01*
X0009578Y0004041D01*
X0009644D01*
X0009911Y0003948D01*
X0009711Y0003525D02*
Y0003665D01*
X0009644Y0003711D01*
X0009578D01*
X0009511Y0003665D01*
Y0003525D01*
X0009911D01*
Y0003288D02*
X0009511D01*
Y0003381D02*
Y0003195D01*
X0001261Y0001628D02*
Y0001768D01*
X0001328Y0001791D01*
X0001394D01*
X0001461Y0001768D01*
Y0001628D01*
X0001394Y0001605D01*
X0001328D01*
X0001061Y0001698D01*
X0001261Y0001275D02*
Y0001415D01*
X0001194Y0001461D01*
X0001128D01*
X0001061Y0001415D01*
Y0001275D01*
X0001461D01*
Y0001038D02*
X0001061D01*
Y0001131D02*
Y0000945D01*
X0003339Y0013145D02*
Y0012959D01*
X0003073Y0013145D01*
X0003006D01*
X0002939Y0013122D01*
Y0012982D01*
X0003006Y0012959D01*
X0003273Y0012815D02*
X0003339Y0012792D01*
Y0012652D01*
X0003273Y0012629D01*
X0003006D01*
X0002939Y0012652D01*
Y0012792D01*
X0003006Y0012815D01*
X0003739Y0001222D02*
Y0001082D01*
X0003673Y0001059D01*
X0003606D01*
X0003539Y0001082D01*
Y0001222D01*
X0003606Y0001245D01*
X0003673D01*
X0003939Y0001152D01*
X0003873Y0000915D02*
X0003939Y0000892D01*
Y0000752D01*
X0003873Y0000729D01*
X0003606D01*
X0003539Y0000752D01*
Y0000892D01*
X0003606Y0000915D01*
X0010089Y0017934D02*
X0010155Y0017980D01*
Y0018074D01*
X0010089Y0018120D01*
X0010022D01*
X0009889Y0018027D01*
X0009755Y0018120D01*
Y0017934D01*
X0010155Y0017790D02*
Y0017697D01*
Y0017744D02*
X0009755D01*
X0009822Y0017697D01*
X0009955Y0017437D02*
X0010155Y0017507D01*
X0009955Y0017320D02*
Y0017460D01*
X0009889Y0017507D01*
X0009822D01*
X0009755Y0017460D01*
Y0017320D01*
X0010155D01*
X0002656Y0007525D02*
Y0007339D01*
X0002389Y0007432D01*
Y0007479D01*
X0002789D01*
Y0007195D02*
Y0007009D01*
X0002523Y0007195D01*
X0002456D01*
X0002389Y0007172D01*
Y0007032D01*
X0002456Y0007009D01*
X0002589Y0006795D02*
X0002789Y0006865D01*
X0002589Y0006679D02*
Y0006819D01*
X0002523Y0006865D01*
X0002456D01*
X0002389Y0006819D01*
Y0006679D01*
X0002789D01*
X0014967Y0005480D02*
X0015033Y0005527D01*
Y0005620D01*
X0014967Y0005667D01*
X0014900D01*
X0014767Y0005573D01*
X0014633Y0005667D01*
Y0005480D01*
X0014900Y0005173D02*
X0014967D01*
X0015033Y0005197D01*
Y0005290D01*
X0014967Y0005313D01*
X0014633D01*
Y0005337D02*
Y0005243D01*
X0010803Y0005277D02*
X0010710D01*
X0010757D02*
Y0005677D01*
X0010710Y0005610D01*
X0006346Y0012020D02*
X0006279Y0012043D01*
X0006212D01*
X0006146Y0012020D01*
Y0011880D01*
X0006212Y0011856D01*
X0006279D01*
X0006346Y0011880D01*
Y0012020D01*
X0006412Y0012043D01*
X0006479D01*
X0006546Y0012020D01*
Y0011880D01*
X0006479Y0011856D01*
X0006412D01*
X0006346Y0011880D01*
X0006146Y0011713D02*
X0006479D01*
X0006546Y0011690D01*
Y0011550D01*
X0006479Y0011526D01*
X0006146D01*
X0001427Y0003568D02*
Y0003474D01*
Y0003521D02*
X0001027D01*
X0001094Y0003474D01*
X0001427Y0003284D02*
Y0003098D01*
X0001160Y0003284D01*
X0001094D01*
X0001027Y0003261D01*
Y0003121D01*
X0001094Y0003098D01*
X0001227Y0002884D02*
X0001427Y0002954D01*
X0001227Y0002768D02*
Y0002908D01*
X0001160Y0002954D01*
X0001094D01*
X0001027Y0002908D01*
Y0002768D01*
X0001427D01*
X0008589Y0008179D02*
Y0007992D01*
X0008323Y0008179D01*
X0008256D01*
X0008189Y0008155D01*
Y0008015D01*
X0008256Y0007992D01*
X0008589Y0007849D02*
Y0007755D01*
Y0007802D02*
X0008189D01*
X0008256Y0007755D01*
X0008389Y0007495D02*
X0008589Y0007565D01*
X0008389Y0007379D02*
Y0007519D01*
X0008323Y0007565D01*
X0008256D01*
X0008189Y0007519D01*
Y0007379D01*
X0008589D01*
X0007513Y0007316D02*
X0007580Y0007362D01*
Y0007456D01*
X0007513Y0007502D01*
X0007447D01*
X0007313Y0007409D01*
X0007180Y0007502D01*
Y0007316D01*
Y0007172D02*
X0007513D01*
X0007580Y0007149D01*
Y0007009D01*
X0007513Y0006986D01*
X0007180D01*
X0014111Y0008620D02*
X0014134Y0008553D01*
X0014274D01*
X0014297Y0008620D01*
Y0008753D01*
X0014251Y0008820D01*
X0014111D01*
Y0008953D01*
X0014297D01*
X0013874Y0008687D02*
X0013967Y0008553D01*
X0013781Y0008620D02*
X0013804Y0008553D01*
X0013897D01*
X0013921Y0008620D01*
X0013967Y0008687D01*
Y0008887D01*
X0013944Y0008953D01*
X0013804D01*
X0013781Y0008887D01*
Y0008620D01*
X0006439Y0000909D02*
X0006373Y0000862D01*
X0006306Y0000839D01*
X0006173D01*
X0006106Y0000862D01*
X0006039Y0000909D01*
Y0000955D01*
X0006106Y0001002D01*
X0006173Y0001025D01*
X0006306D01*
X0006373Y0001002D01*
X0006439Y0000955D01*
Y0000909D01*
Y0000695D02*
Y0000509D01*
X0006173Y0000695D01*
X0006106D01*
X0006039Y0000672D01*
Y0000532D01*
X0006106Y0000509D01*
X0006239Y0000295D02*
X0006439Y0000365D01*
X0006239Y0000179D02*
Y0000319D01*
X0006173Y0000365D01*
X0006106D01*
X0006039Y0000319D01*
Y0000179D01*
X0006439D01*
X0002577Y0009801D02*
Y0009941D01*
X0002644Y0009964D01*
X0002710D01*
X0002777Y0009941D01*
Y0009801D01*
X0002710Y0009778D01*
X0002644D01*
X0002377Y0009871D01*
X0002777Y0009634D02*
Y0009448D01*
X0002510Y0009634D01*
X0002444D01*
X0002377Y0009611D01*
Y0009471D01*
X0002444Y0009448D01*
X0002577Y0009234D02*
X0002777Y0009304D01*
X0002577Y0009118D02*
Y0009258D01*
X0002510Y0009304D01*
X0002444D01*
X0002377Y0009258D01*
Y0009118D01*
X0002777D01*
X0011088Y0002059D02*
X0010553D01*
Y0001823D01*
X0011088D01*
Y0004177D01*
X0014411D01*
Y0001823D01*
X0013774D01*
Y0001500D01*
X0013616D01*
Y0001031D01*
X0011884D01*
Y0001500D01*
Y0002077D01*
X0011329D01*
Y0003923D01*
X0012203D01*
Y0003061D01*
X0011844D01*
Y0002939D01*
X0012203D01*
Y0001966D01*
X0013297D01*
Y0002939D01*
X0014171D01*
Y0002077D01*
X0013616D01*
Y0001500D01*
X0012875Y0006633D02*
Y0006383D01*
X0011641Y0007617D02*
Y0007367D01*
X0011891D01*
X0011832Y0007426D01*
Y0007558D01*
X0011891Y0007617D01*
X0011641D01*
X0011700Y0007558D01*
Y0007426D01*
X0011832D01*
X0011700Y0007558D02*
X0011832D01*
X0011641Y0007367D02*
X0011700Y0007426D01*
X0011832Y0006442D02*
X0011891Y0006383D01*
X0011641D01*
X0011700Y0006442D01*
X0011832D01*
Y0006574D01*
X0011891Y0006633D01*
X0011641D01*
X0011700Y0006574D01*
X0011832D01*
X0011641Y0006633D02*
Y0006383D01*
X0011700Y0006442D02*
Y0006574D01*
X0011891Y0007617D02*
Y0007367D01*
Y0006633D02*
Y0006383D01*
X0013609Y0007617D02*
Y0007367D01*
X0013859D01*
X0013800Y0007426D01*
Y0007558D01*
X0013859Y0007617D01*
X0013609D01*
X0013668Y0007558D01*
Y0007426D01*
X0013800D01*
X0013668Y0007558D02*
X0013800D01*
X0013609Y0007367D02*
X0013668Y0007426D01*
X0013800Y0006442D02*
X0013859Y0006383D01*
X0013609D01*
X0013668Y0006442D01*
X0013800D01*
Y0006574D01*
X0013859Y0006633D01*
X0013609D01*
X0013668Y0006574D01*
X0013800D01*
X0013609Y0006633D02*
Y0006383D01*
X0013668Y0006442D02*
Y0006574D01*
X0013859Y0007617D02*
Y0007367D01*
Y0006633D02*
Y0006383D01*
X0011726Y0004776D02*
Y0004921D01*
X0013774D01*
Y0004776D01*
X0013695Y0004697D02*
X0011790D01*
X0011726Y0005496D02*
Y0004921D01*
X0013774Y0005496D02*
Y0004921D01*
X0013297Y0006077D02*
X0013616D01*
X0011218D02*
Y0006939D01*
X0010344D01*
Y0006077D01*
X0011218D01*
X0014171Y0007923D02*
X0013297D01*
Y0007061D01*
X0014171D01*
Y0007923D01*
X0013187D02*
X0012313D01*
Y0007061D01*
X0013187D01*
Y0007923D01*
X0012203D02*
X0011329D01*
Y0007061D01*
X0012203D01*
Y0007923D01*
X0011218D02*
X0010344D01*
Y0007061D01*
X0011218D01*
Y0007923D01*
X0010715Y0006442D02*
Y0006574D01*
X0010906Y0006633D02*
Y0006383D01*
X0005810Y0011400D02*
Y0010590D01*
X0006900D01*
Y0011400D01*
X0005810D01*
X0000925Y0004825D02*
Y0003675D01*
X0001570D01*
Y0004825D01*
X0000925D01*
X0008575Y0005675D02*
Y0006825D01*
X0007930D01*
Y0005675D01*
X0008575D01*
X0005750Y0007070D02*
Y0007160D01*
X0007000D01*
Y0005370D01*
X0005750D01*
Y0007070D01*
X0015400Y0008450D02*
Y0010050D01*
X0013600D01*
Y0009350D01*
X0013700Y0009250D01*
X0013600Y0009150D01*
Y0008450D01*
X0015400D01*
X0006575Y0001175D02*
Y0002325D01*
X0005930D01*
Y0001175D01*
X0006575D01*
X0015700Y0014250D02*
X0012450D01*
Y0016250D01*
X0015700D01*
Y0014250D01*
X0010575Y0008425D02*
Y0009575D01*
X0009930D01*
Y0008425D01*
X0010575D01*
X-0000425Y0003675D02*
Y0004825D01*
X-0001070D01*
Y0003675D01*
X-0000425D01*
X0009425Y0002325D02*
Y0001175D01*
X0010070D01*
Y0002325D01*
X0009425D01*
X0004325Y0004925D02*
Y0006075D01*
X0003680D01*
Y0004925D01*
X0004325D01*
X0004675Y0011575D02*
Y0010425D01*
X0005320D01*
Y0011575D01*
X0004675D01*
X0015425Y0012075D02*
Y0010925D01*
X0016070D01*
Y0012075D01*
X0015425D01*
X0007200Y0018800D02*
X0008300D01*
Y0016700D01*
X0007200D01*
Y0018800D01*
X0005750Y0009070D02*
Y0009160D01*
X0007000D01*
Y0007370D01*
X0005750D01*
Y0009070D01*
X0007180Y0010570D02*
X0008240D01*
X0008340Y0010670D01*
Y0011433D01*
X0007160D01*
Y0010570D01*
X0007180D01*
X0002825Y0012175D02*
Y0013325D01*
X0002180D01*
Y0012175D01*
X0002825D01*
X0002925Y0010075D02*
Y0008925D01*
X0003570D01*
Y0010075D01*
X0002925D01*
X0007325Y0001175D02*
Y0002325D01*
X0006680D01*
Y0001175D01*
X0007325D01*
X-0000700Y0004900D02*
X0000700D01*
Y0005600D01*
X-0000700D01*
Y0004900D01*
X0007825Y0008175D02*
Y0009325D01*
X0007180D01*
Y0008175D01*
X0007825D01*
X0009075Y0010675D02*
Y0011825D01*
X0008430D01*
Y0010675D01*
X0009075D01*
X0003300Y0002900D02*
X0001700D01*
Y0001100D01*
X0002400D01*
X0002500Y0001200D01*
X0002600Y0001100D01*
X0003300D01*
Y0002900D01*
X-0001600Y0018200D02*
Y0016800D01*
X-0000900D01*
Y0018200D01*
X-0001600D01*
X0014411Y0003437D02*
X0014947D01*
Y0002059D01*
Y0001823D01*
X0014411D01*
X0013800Y0003426D02*
X0013859Y0003367D01*
Y0003617D01*
X0013609D01*
X0013668Y0003558D01*
Y0003426D01*
X0013800D01*
Y0003558D01*
X0013668D01*
X0013859Y0003367D02*
X0013609D01*
X0013668Y0003426D01*
X0013800Y0002442D02*
X0013859Y0002383D01*
X0013609D01*
X0013668Y0002442D01*
X0013800D01*
Y0002574D01*
X0013859Y0002633D01*
X0013609D01*
X0013668Y0002574D01*
X0013800D01*
X0013609Y0003617D02*
Y0003367D01*
Y0002633D02*
Y0002383D01*
X0013668Y0002442D02*
Y0002574D01*
X0013859Y0002633D02*
Y0002383D01*
X0011329Y0002939D02*
X0011608D01*
Y0003061D01*
X0011844D01*
Y0002939D02*
X0011608D01*
X0011641Y0003617D02*
Y0003367D01*
X0011891D01*
X0011832Y0003426D01*
Y0003558D01*
X0011891Y0003617D01*
X0011641D01*
X0011700Y0003558D01*
Y0003426D01*
X0011832D01*
X0011700Y0003558D02*
X0011832D01*
X0011641Y0003367D02*
X0011700Y0003426D01*
X0011832Y0002442D02*
X0011891Y0002383D01*
X0011641D01*
X0011700Y0002442D01*
X0011832D01*
Y0002574D01*
X0011891Y0002633D01*
X0011641D01*
X0011700Y0002574D01*
X0011832D01*
X0005575Y0008175D02*
Y0009325D01*
X0004930D01*
Y0008175D01*
X0005575D01*
X0011825Y0008425D02*
Y0009575D01*
X0011180D01*
Y0008425D01*
X0011825D01*
X-0000075Y0004825D02*
Y0003675D01*
X0000570D01*
Y0004825D01*
X-0000075D01*
X0007825Y0004425D02*
Y0005575D01*
X0007180D01*
Y0004425D01*
X0007825D01*
X0001900Y0004950D02*
Y0003550D01*
X0002600D01*
Y0004950D01*
X0001900D01*
X0012200Y0012350D02*
X0013800D01*
Y0014150D01*
X0013100D01*
X0013000Y0014050D01*
X0012900Y0014150D01*
X0012200D01*
Y0012350D01*
X0011641Y0002633D02*
Y0002383D01*
X0011700Y0002442D02*
Y0002574D01*
X0011891Y0003617D02*
Y0003367D01*
Y0002633D02*
Y0002383D01*
X0011329Y0003061D02*
X0011608D01*
X0005750Y0005070D02*
Y0005160D01*
X0007000D01*
Y0003370D01*
X0005750D01*
Y0005070D01*
X0003575Y0010425D02*
Y0011575D01*
X0002930D01*
Y0010425D01*
X0003575D01*
X0010675Y0014575D02*
Y0013425D01*
X0011320D01*
Y0014575D01*
X0010675D01*
X0012925Y0012075D02*
Y0010925D01*
X0013570D01*
Y0012075D01*
X0012925D01*
X0003675Y0007575D02*
Y0006425D01*
X0004320D01*
Y0007575D01*
X0003675D01*
X0013950Y0012350D02*
X0015550D01*
Y0014150D01*
X0014850D01*
X0014750Y0014050D01*
X0014650Y0014150D01*
X0013950D01*
Y0012350D01*
X-0001750Y0016400D02*
Y0013600D01*
X0002900D01*
Y0016400D01*
X-0001750D01*
X0007425Y0002325D02*
Y0001175D01*
X0008070D01*
Y0002325D01*
X0007425D01*
X0005800Y0002900D02*
X0004200D01*
Y0001100D01*
X0004900D01*
X0005000Y0001200D01*
X0005100Y0001100D01*
X0005800D01*
Y0002900D01*
X0002825Y0010425D02*
Y0011575D01*
X0002180D01*
Y0010425D01*
X0002825D01*
X-0000919Y0018724D02*
X-0001455D01*
Y0018565D01*
X-0000919D01*
Y0019935D01*
X-0000774D01*
Y0020258D01*
X-0000616D01*
Y0020726D01*
X0001116D01*
Y0020258D01*
X0001274D01*
Y0020833D01*
X-0000774D01*
Y0020258D01*
X0001419Y0018724D02*
X0001955D01*
Y0019776D01*
Y0019935D01*
X0001419D01*
Y0018565D01*
X0001955D01*
Y0018724D01*
X0001116Y0020258D02*
Y0019681D01*
X0001179D01*
Y0018819D01*
X-0000679D01*
Y0019681D01*
X-0000616D01*
X-0000274D01*
X0000195D01*
Y0019335D01*
Y0019098D01*
X0000305D01*
Y0019335D01*
X0000195D01*
X0001116Y0019681D02*
X0000774D01*
X0000305D01*
Y0019335D01*
X-0000274Y0019681D02*
Y0019791D01*
X0000774D01*
Y0019681D01*
X-0000774Y0020833D02*
Y0021061D01*
X0001274D01*
Y0020833D01*
X-0000616Y0020258D02*
Y0019681D01*
X-0000919Y0019776D02*
X-0001455D01*
Y0019935D01*
X-0000919D01*
X0000867Y0019375D02*
X0000617D01*
Y0019125D01*
X0000676Y0019184D01*
X0000808D01*
X0000867Y0019125D01*
Y0019375D01*
X0000808Y0019316D01*
Y0019184D01*
X0000617Y0019125D02*
X0000867D01*
X-0000308Y0019316D02*
X-0000367Y0019375D01*
X-0000117D01*
X-0000176Y0019316D01*
X-0000308D01*
Y0019184D01*
X-0000367Y0019125D01*
X-0000117D01*
X-0000176Y0019184D01*
X-0000308D01*
X-0000117Y0019125D02*
Y0019375D01*
X-0000176Y0019316D02*
Y0019184D01*
X-0000367Y0019125D02*
Y0019375D01*
X0001419Y0019776D02*
X0001955D01*
X0001274Y0020258D02*
Y0019935D01*
X0001419D01*
X0000195Y0019098D02*
Y0018819D01*
X0000305Y0019098D02*
Y0018819D01*
X0000617Y0019375D02*
X0000676Y0019316D01*
X0000808D01*
X0000676D02*
Y0019184D01*
X-0001455Y0019776D02*
Y0018724D01*
X0001419Y0018565D02*
X-0000919D01*
X0011810Y0000697D02*
X0013695D01*
X0013774Y0000776D02*
Y0000925D01*
X0011726D01*
Y0000776D01*
X0011088Y0001823D02*
X0011726D01*
Y0001500D01*
Y0000925D01*
X0013774Y0001500D02*
Y0000925D01*
X0013859Y0003617D02*
X0013800Y0003558D01*
X0011884Y0002077D02*
X0012203D01*
X0013297D02*
X0013616D01*
X0012625Y0003617D02*
Y0003367D01*
X0012875D01*
X0012816Y0003426D01*
Y0003558D01*
X0012875Y0003617D01*
X0012625D01*
X0012684Y0003558D01*
Y0003426D01*
X0012816D01*
X0012684Y0003558D02*
X0012816D01*
X0012625Y0003367D02*
X0012684Y0003426D01*
X0012816Y0002442D02*
X0012875Y0002383D01*
X0012625D01*
X0012684Y0002442D01*
X0012816D01*
Y0002574D01*
X0012875Y0002633D01*
X0012625D01*
X0012684Y0002574D01*
X0012816D01*
X0012625Y0002633D02*
Y0002383D01*
X0012684Y0002442D02*
Y0002574D01*
X0012875Y0003617D02*
Y0003367D01*
Y0002633D02*
Y0002383D01*
X0013187Y0002077D02*
Y0002939D01*
X0012313D01*
Y0002077D01*
X0013187D01*
X0014171Y0003923D02*
X0013297D01*
Y0003061D01*
X0014171D01*
Y0003923D01*
X0013187D02*
X0012313D01*
Y0003061D01*
X0013187D01*
Y0003923D01*
X0011884Y0001500D02*
X0011726D01*
X0014411Y0002059D02*
X0014947D01*
Y0003437D02*
Y0003673D01*
X0014411D01*
X0011088D02*
X0010553D01*
Y0003437D01*
Y0002059D01*
X0011088Y0003437D02*
X0010553D01*
X0014325Y0010925D02*
Y0012075D01*
X0013680D01*
Y0010925D01*
X0014325D01*
X0005575Y0003675D02*
Y0004825D01*
X0004930D01*
Y0003675D01*
X0005575D01*
X0001403Y0006030D02*
Y0005869D01*
X0001349Y0006062D02*
Y0005836D01*
X0001295Y0006064D02*
Y0005834D01*
X0001241Y0006037D02*
Y0005861D01*
X0001398Y0006034D02*
X0001237D01*
X0001431Y0005980D02*
X0001205D01*
X0001433Y0005926D02*
X0001203D01*
X0001406Y0005872D02*
X0001230D01*
X0000963Y0005935D02*
X-0000177D01*
Y0010065D01*
X0001278D01*
Y0006250D01*
X0000963Y0005940D01*
Y0005935D01*
X0002575Y0016925D02*
Y0018075D01*
X0001930D01*
Y0016925D01*
X0002575D01*
X0003575Y0007675D02*
Y0008825D01*
X0002930D01*
Y0007675D01*
X0003575D01*
X0009675Y0014575D02*
Y0013425D01*
X0010320D01*
Y0014575D01*
X0009675D01*
X0004325Y0003675D02*
Y0004825D01*
X0003680D01*
Y0003675D01*
X0004325D01*
X0004925Y0007075D02*
Y0005925D01*
X0005570D01*
Y0007075D01*
X0004925D01*
X0013075Y0008425D02*
Y0009575D01*
X0012430D01*
Y0008425D01*
X0013075D01*
X0011825Y0010575D02*
X0010675D01*
Y0009930D01*
X0011825D01*
Y0010575D01*
X0009700Y0014850D02*
X0011300D01*
Y0016650D01*
X0010600D01*
X0010500Y0016550D01*
X0010400Y0016650D01*
X0009700D01*
Y0014850D01*
X0009800Y0004450D02*
X0008700D01*
Y0006550D01*
X0009800D01*
Y0004450D01*
X0007825Y0005675D02*
Y0006825D01*
X0007180D01*
Y0005675D01*
X0007825D01*
X0001790Y0010650D02*
Y0013350D01*
X-0001790D01*
Y0010650D01*
X0001790D01*
X0004075Y0001425D02*
Y0002575D01*
X0003430D01*
Y0001425D01*
X0004075D01*
X0008450Y0018800D02*
X0009550D01*
Y0016700D01*
X0008450D01*
Y0018800D01*
X0003575Y0006425D02*
Y0007575D01*
X0002930D01*
Y0006425D01*
X0003575D01*
X0011884Y0005496D02*
X0011726D01*
Y0005823D01*
X0010104D01*
Y0008177D01*
X0015396D01*
Y0005823D01*
X0013774D01*
Y0005496D01*
X0013616D01*
Y0005031D01*
X0011884D01*
Y0005496D01*
Y0006077D01*
X0012203D01*
X0015155Y0007923D02*
X0014281D01*
Y0007061D01*
X0014640D01*
Y0006939D01*
X0014281D01*
Y0006077D01*
X0015155D01*
Y0007923D01*
X0013187Y0006077D02*
Y0006939D01*
X0012313D01*
Y0006077D01*
X0013187D01*
X0011884D02*
X0011329D01*
Y0006939D01*
X0012203D01*
Y0005968D01*
X0013297D01*
Y0006939D01*
X0014171D01*
Y0006077D01*
X0013616D01*
Y0005496D01*
X0010656Y0007617D02*
Y0007367D01*
X0010906D01*
Y0007617D01*
X0010656D01*
X0010715Y0007558D01*
Y0007426D01*
X0010847D01*
Y0007558D01*
X0010715D01*
X0010847Y0006442D02*
X0010906Y0006383D01*
X0010656D01*
X0010715Y0006442D01*
X0010847D01*
Y0006574D01*
X0010906Y0006633D01*
X0010656D01*
X0010715Y0006574D01*
X0010847D01*
X0010656Y0006633D02*
Y0006383D01*
Y0007367D02*
X0010715Y0007426D01*
X0010906Y0007367D02*
X0010847Y0007426D01*
X0010906Y0007617D02*
X0010847Y0007558D01*
X0014652D02*
X0014593Y0007617D01*
X0014843D01*
X0014784Y0007558D01*
X0014652D01*
Y0007426D01*
X0014593Y0007367D01*
X0014843D01*
X0014784Y0007426D01*
X0014652D01*
X0014784Y0007558D02*
Y0007426D01*
Y0006442D02*
X0014843Y0006383D01*
X0014593D01*
X0014652Y0006442D01*
X0014784D01*
Y0006574D01*
X0014843Y0006633D01*
X0014593D01*
X0014652Y0006574D01*
X0014784D01*
X0014593Y0007617D02*
Y0007367D01*
Y0006633D02*
Y0006383D01*
X0014652Y0006442D02*
Y0006574D01*
X0014843Y0007617D02*
Y0007367D01*
Y0006633D02*
Y0006383D01*
X0014640Y0007061D02*
X0014876D01*
Y0006939D01*
X0014640D01*
X0015155Y0007061D02*
X0014876D01*
Y0006939D02*
X0015155D01*
X0012625Y0007617D02*
Y0007367D01*
X0012875D01*
X0012816Y0007426D01*
Y0007558D01*
X0012875Y0007617D01*
X0012625D01*
X0012684Y0007558D01*
Y0007426D01*
X0012816D01*
X0012684Y0007558D02*
X0012816D01*
X0012625Y0007367D02*
X0012684Y0007426D01*
X0012816Y0006442D02*
X0012875Y0006383D01*
X0012625D01*
X0012684Y0006442D01*
X0012816D01*
Y0006574D01*
X0012875Y0006633D01*
X0012625D01*
X0012684Y0006574D01*
X0012816D01*
X0012625Y0006633D02*
Y0006383D01*
X0012684Y0006442D02*
Y0006574D01*
X0012875Y0007617D02*
Y0007367D01*
G01X0013695Y0004697D02*
G03X0013774Y0004776I0000000J0000079D01*
G01X0011720Y0004767D02*
G03X0011790Y0004697I0000071J0000001D01*
G01X0011730Y0000777D02*
G03X0011810Y0000697I0000083J0000003D01*
G01X0013695D02*
G03X0013774Y0000776I0000000J0000079D01*
G01X0001435Y0005949D02*
G03X0001318Y0006066I0000117J0000000D01*
Y0005832D02*
G03X0001435Y0005949I0000000J0000117D01*
G01X0001201D02*
G03X0001318Y0005832I0000117J0000000D01*
Y0006066D02*
G03X0001201Y0005949I0000000J0000117D01*
G54D51*
G01X0010792Y0010713D02*
X0012208D01*
Y0012287D01*
X0010792D01*
Y0010713D01*
X0012045Y0016463D02*
Y0017880D01*
X0015116D01*
Y0016463D01*
X0012045D01*
X0015116Y0016856D02*
X0014958D01*
Y0017722D01*
X0012203D01*
Y0016856D01*
X0012045D01*
X0014387Y0016656D02*
Y0016463D01*
X0014316Y0016719D02*
Y0016463D01*
X0014245Y0016773D02*
Y0016463D01*
X0014174Y0016710D02*
Y0016463D01*
X0014103Y0016647D02*
Y0016463D01*
X0014033Y0016584D02*
Y0016463D01*
X0013962Y0016521D02*
Y0016463D01*
X0014291Y0016741D02*
X0014209D01*
X0014370Y0016670D02*
X0014129D01*
X0014450Y0016600D02*
X0014050D01*
X0014529Y0016529D02*
X0013970D01*
X0013935Y0016463D02*
X0013896D01*
X0014604D02*
X0013935D01*
X0014250Y0016778D02*
X0014604Y0016463D01*
X0014250Y0016778D02*
X0013896Y0016463D01*
X0014528Y0016530D02*
Y0016463D01*
X0014457Y0016593D02*
Y0016463D01*
X0001090Y0016595D02*
Y0018405D01*
X-0000090D01*
Y0016595D01*
X0001090D01*
M02*
