*
G04 Mass Parameters ***
*
G04 Image ***
*
%IND:\UTENTI\00.CAD\00.PROGETTI\METALTRONICA\22-310-0\22-310-0.DRD*%
%ICAS*%
%MOIN*%
%IPPOS*%
%ASAXBY*%
G74*%FSLAN2X34Y34*%
*
G04 Aperture Definitions ***
*
%ADD10C,0.1260*%
%ADD11C,0.0394*%
%ADD12R,0.0501X0.0404*%
%ADD13R,0.0380X0.0320*%
%ADD14R,0.0404X0.0501*%
%ADD15R,0.0527X0.0630*%
%ADD16R,0.1913X0.1496*%
%ADD17C,0.0590*%
%ADD18R,0.0590X0.0590*%
%ADD19O,0.0787X0.1181*%
%ADD20C,0.0669*%
%ADD21R,0.0669X0.0669*%
%ADD22C,0.0787*%
%ADD23C,0.0512*%
%ADD24C,0.0866*%
%ADD25C,0.0630*%
%ADD26C,0.0551*%
%ADD27R,0.0984X0.0394*%
%ADD28R,0.0400X0.0500*%
%ADD29R,0.0315X0.0354*%
%ADD30R,0.0500X0.0400*%
%ADD31R,0.0320X0.0380*%
%ADD32R,0.0710X0.0400*%
%ADD33R,0.1000X0.0600*%
%ADD34R,0.2760X0.2760*%
%ADD35R,0.0270X0.0500*%
%ADD36O,0.0650X0.0256*%
%ADD37R,0.0236X0.0157*%
%ADD38R,0.0197X0.0157*%
%ADD39R,0.0680X0.1580*%
%ADD40R,0.0680X0.0550*%
%ADD41C,0.0100*%
%ADD42C,0.0250*%
%ADD43C,0.0120*%
%ADD44C,0.0394*%
%ADD45C,0.0400*%
%ADD46C,0.0500*%
%ADD47C,0.0080*%
%ADD48C,0.0394*%
%ADD49R,0.0354X0.0354*%
%ADD50C,0.0060*%
%ADD51C,0.0079*%
*
G04 Plot Data ***
*
G54D41*
G01X0022125Y-0018083D02*
X0022625D01*
X0022708Y-0018250D01*
Y-0018417D01*
X0022625Y-0018583D01*
X0022125D01*
X0022042Y-0018417D01*
Y-0018250D01*
X0022375Y-0017583D01*
X0021675Y-0018083D02*
X0021758Y-0017917D01*
Y-0017750D01*
X0021675Y-0017583D01*
X0021175D01*
X0021092Y-0017750D01*
Y-0017917D01*
X0021175Y-0018083D01*
X0021675D01*
X0021758Y-0018250D01*
Y-0018417D01*
X0021675Y-0018583D01*
X0021175D01*
X0021092Y-0018417D01*
Y-0018250D01*
X0021175Y-0018083D01*
X0010312Y-0018583D02*
X0009729D01*
Y-0017583D01*
X0009446Y-0018250D02*
X0008779D01*
X0009446Y-0018583D02*
Y-0018083D01*
X0009196Y-0017583D01*
X0009029D01*
X0008779Y-0018083D01*
Y-0018583D01*
X0008162D02*
Y-0017583D01*
X0008496D02*
X0007829D01*
X0006962Y-0018583D02*
X0006879Y-0018417D01*
Y-0017750D01*
X0006962Y-0017583D01*
X0007462D01*
X0007546Y-0017750D01*
Y-0018417D01*
X0007462Y-0018583D01*
X0006962D01*
X0006262D02*
Y-0017583D01*
X0006596D02*
X0005929D01*
X0030564Y-0016722D02*
Y-0016056D01*
X0030508Y-0016722D02*
X0030841D01*
X0030953Y-0016500D01*
Y-0016278D01*
X0030841Y-0016056D01*
X0030508D01*
X0030141Y-0016389D02*
X0029808D01*
X0030253Y-0016722D02*
X0029808D01*
Y-0016056D01*
X0030253D01*
X0029330Y-0016722D02*
Y-0016056D01*
X0029553D02*
X0029108D01*
X0028853Y-0016500D02*
X0028408D01*
X0028853Y-0016722D02*
Y-0016389D01*
X0028686Y-0016056D01*
X0028575D01*
X0028408Y-0016389D01*
Y-0016722D01*
X0028153D02*
X0027764D01*
Y-0016056D01*
X0027064Y-0016389D02*
X0027397D01*
X0027508Y-0016278D01*
Y-0016167D01*
X0027397Y-0016056D01*
X0027064D01*
Y-0016722D01*
X0026808Y-0016389D02*
X0026364D01*
X0026108Y-0016056D02*
Y-0016722D01*
X0025997Y-0016611D01*
X0025775Y-0016167D01*
X0025664Y-0016056D01*
Y-0016722D01*
X0025019D02*
X0024964Y-0016611D01*
Y-0016167D01*
X0025019Y-0016056D01*
X0025353D01*
X0025408Y-0016167D01*
Y-0016611D01*
X0025353Y-0016722D01*
X0025019D01*
X0024708Y-0016056D02*
Y-0016722D01*
X0024597Y-0016611D01*
X0024375Y-0016167D01*
X0024264Y-0016056D01*
Y-0016722D01*
X0022708Y-0016500D02*
X0022264D01*
X0022486Y-0016056D01*
X0022597D01*
Y-0016722D01*
X0008869D02*
Y-0016389D01*
X0009092Y-0016722D02*
Y-0016389D01*
X0009036Y-0016278D01*
X0008925D01*
X0008869Y-0016389D01*
X0008814Y-0016278D01*
X0008703D01*
X0008647Y-0016389D01*
Y-0016722D01*
X0008169D02*
Y-0016389D01*
X0008392Y-0016722D02*
Y-0016389D01*
X0008336Y-0016278D01*
X0008225D01*
X0008169Y-0016389D01*
X0008114Y-0016278D01*
X0008003D01*
X0007947Y-0016389D01*
Y-0016722D01*
X0006464D02*
X0006353Y-0016611D01*
X0006297Y-0016500D01*
Y-0016278D01*
X0006353Y-0016167D01*
X0006464Y-0016056D01*
X0006575D01*
X0006686Y-0016167D01*
X0006742Y-0016278D01*
Y-0016500D01*
X0006686Y-0016611D01*
X0006575Y-0016722D01*
X0006464D01*
X0005764D02*
X0005653Y-0016611D01*
X0005597Y-0016500D01*
Y-0016278D01*
X0005653Y-0016167D01*
X0005764Y-0016056D01*
X0005875D01*
X0005986Y-0016167D01*
X0006042Y-0016278D01*
Y-0016500D01*
X0005986Y-0016611D01*
X0005875Y-0016722D01*
X0005764D01*
X0005342D02*
X0004897D01*
X0005342Y-0016278D01*
Y-0016167D01*
X0005286Y-0016056D01*
X0004953D01*
X0004897Y-0016167D01*
X0004531Y-0016722D02*
X0004642D01*
Y-0016611D01*
X0004531D01*
Y-0016722D01*
X0003719Y-0016611D02*
X0003831Y-0016722D01*
X0004053D01*
X0004164Y-0016611D01*
Y-0016500D01*
X0003942Y-0016278D01*
X0004164Y-0016056D01*
X0003719D01*
X0022264Y-0015111D02*
X0022319Y-0015222D01*
X0022653D01*
X0022708Y-0015111D01*
Y-0014889D01*
X0022597Y-0014778D01*
X0022264D01*
Y-0014556D01*
X0022708D01*
X0008869Y-0015222D02*
Y-0014889D01*
X0009092Y-0015222D02*
Y-0014889D01*
X0009036Y-0014778D01*
X0008925D01*
X0008869Y-0014889D01*
X0008814Y-0014778D01*
X0008703D01*
X0008647Y-0014889D01*
Y-0015222D01*
X0008169D02*
Y-0014889D01*
X0008392Y-0015222D02*
Y-0014889D01*
X0008336Y-0014778D01*
X0008225D01*
X0008169Y-0014889D01*
X0008114Y-0014778D01*
X0008003D01*
X0007947Y-0014889D01*
Y-0015222D01*
X0006464D02*
X0006353Y-0015111D01*
X0006297Y-0015000D01*
Y-0014778D01*
X0006353Y-0014667D01*
X0006464Y-0014556D01*
X0006575D01*
X0006686Y-0014667D01*
X0006742Y-0014778D01*
Y-0015000D01*
X0006686Y-0015111D01*
X0006575Y-0015222D01*
X0006464D01*
X0005764D02*
X0005653Y-0015111D01*
X0005597Y-0015000D01*
Y-0014778D01*
X0005653Y-0014667D01*
X0005764Y-0014556D01*
X0005875D01*
X0005986Y-0014667D01*
X0006042Y-0014778D01*
Y-0015000D01*
X0005986Y-0015111D01*
X0005875Y-0015222D01*
X0005764D01*
X0004953Y-0014889D02*
X0005286D01*
X0005342Y-0015000D01*
Y-0015111D01*
X0005286Y-0015222D01*
X0004953D01*
X0004897Y-0015111D01*
Y-0015000D01*
X0005119Y-0014556D01*
X0004531Y-0015222D02*
X0004642D01*
Y-0015111D01*
X0004531D01*
Y-0015222D01*
X0004164D02*
X0003942D01*
X0004053D02*
Y-0014556D01*
X0003942Y-0014667D01*
X0030564Y-0013722D02*
Y-0013056D01*
X0030508Y-0013722D02*
X0030841D01*
X0030953Y-0013500D01*
Y-0013278D01*
X0030841Y-0013056D01*
X0030508D01*
X0030141Y-0013389D02*
X0029808D01*
X0030253Y-0013722D02*
X0029808D01*
Y-0013056D01*
X0030253D01*
X0029330Y-0013722D02*
Y-0013056D01*
X0029553D02*
X0029108D01*
X0028853Y-0013500D02*
X0028408D01*
X0028853Y-0013722D02*
Y-0013389D01*
X0028686Y-0013056D01*
X0028575D01*
X0028408Y-0013389D01*
Y-0013722D01*
X0028153D02*
X0027764D01*
Y-0013056D01*
X0027064Y-0013389D02*
X0027397D01*
X0027508Y-0013278D01*
Y-0013167D01*
X0027397Y-0013056D01*
X0027064D01*
Y-0013722D01*
X0026808Y-0013389D02*
X0026364D01*
X0026108Y-0013056D02*
Y-0013722D01*
X0025997Y-0013611D01*
X0025775Y-0013167D01*
X0025664Y-0013056D01*
Y-0013722D01*
X0025019D02*
X0024964Y-0013611D01*
Y-0013167D01*
X0025019Y-0013056D01*
X0025353D01*
X0025408Y-0013167D01*
Y-0013611D01*
X0025353Y-0013722D01*
X0025019D01*
X0024708Y-0013056D02*
Y-0013722D01*
X0024597Y-0013611D01*
X0024375Y-0013167D01*
X0024264Y-0013056D01*
Y-0013722D01*
X0022264Y-0013611D02*
X0022375Y-0013722D01*
X0022597D01*
X0022708Y-0013611D01*
Y-0013500D01*
X0022486Y-0013278D01*
X0022708Y-0013056D01*
X0022264D01*
X0008869Y-0013722D02*
Y-0013389D01*
X0009092Y-0013722D02*
Y-0013389D01*
X0009036Y-0013278D01*
X0008925D01*
X0008869Y-0013389D01*
X0008814Y-0013278D01*
X0008703D01*
X0008647Y-0013389D01*
Y-0013722D01*
X0008169D02*
Y-0013389D01*
X0008392Y-0013722D02*
Y-0013389D01*
X0008336Y-0013278D01*
X0008225D01*
X0008169Y-0013389D01*
X0008114Y-0013278D01*
X0008003D01*
X0007947Y-0013389D01*
Y-0013722D01*
X0006464D02*
X0006353Y-0013611D01*
X0006297Y-0013500D01*
Y-0013278D01*
X0006353Y-0013167D01*
X0006464Y-0013056D01*
X0006575D01*
X0006686Y-0013167D01*
X0006742Y-0013278D01*
Y-0013500D01*
X0006686Y-0013611D01*
X0006575Y-0013722D01*
X0006464D01*
X0005764D02*
X0005653Y-0013611D01*
X0005597Y-0013500D01*
Y-0013278D01*
X0005653Y-0013167D01*
X0005764Y-0013056D01*
X0005875D01*
X0005986Y-0013167D01*
X0006042Y-0013278D01*
Y-0013500D01*
X0005986Y-0013611D01*
X0005875Y-0013722D01*
X0005764D01*
X0005342Y-0013500D02*
X0004897D01*
X0005119Y-0013056D01*
X0005230D01*
Y-0013722D01*
X0004531D02*
X0004642D01*
Y-0013611D01*
X0004531D01*
Y-0013722D01*
X0004164D02*
X0003942D01*
X0004053D02*
Y-0013056D01*
X0003942Y-0013167D01*
X0030564Y-0012222D02*
Y-0011556D01*
X0030508Y-0012222D02*
X0030841D01*
X0030953Y-0012000D01*
Y-0011778D01*
X0030841Y-0011556D01*
X0030508D01*
X0030141Y-0011889D02*
X0029808D01*
X0030253Y-0012222D02*
X0029808D01*
Y-0011556D01*
X0030253D01*
X0029330Y-0012222D02*
Y-0011556D01*
X0029553D02*
X0029108D01*
X0028853Y-0012000D02*
X0028408D01*
X0028853Y-0012222D02*
Y-0011889D01*
X0028686Y-0011556D01*
X0028575D01*
X0028408Y-0011889D01*
Y-0012222D01*
X0028153D02*
X0027764D01*
Y-0011556D01*
X0027064Y-0011889D02*
X0027397D01*
X0027508Y-0011778D01*
Y-0011667D01*
X0027397Y-0011556D01*
X0027064D01*
Y-0012222D01*
X0026808Y-0011889D02*
X0026364D01*
X0026108Y-0011556D02*
Y-0012222D01*
X0025997Y-0012111D01*
X0025775Y-0011667D01*
X0025664Y-0011556D01*
Y-0012222D01*
X0025019D02*
X0024964Y-0012111D01*
Y-0011667D01*
X0025019Y-0011556D01*
X0025353D01*
X0025408Y-0011667D01*
Y-0012111D01*
X0025353Y-0012222D01*
X0025019D01*
X0024708Y-0011556D02*
Y-0012222D01*
X0024597Y-0012111D01*
X0024375Y-0011667D01*
X0024264Y-0011556D01*
Y-0012222D01*
X0022708D02*
X0022264D01*
X0022708Y-0011778D01*
Y-0011667D01*
X0022653Y-0011556D01*
X0022319D01*
X0022264Y-0011667D01*
X0008869Y-0012222D02*
Y-0011889D01*
X0009092Y-0012222D02*
Y-0011889D01*
X0009036Y-0011778D01*
X0008925D01*
X0008869Y-0011889D01*
X0008814Y-0011778D01*
X0008703D01*
X0008647Y-0011889D01*
Y-0012222D01*
X0008169D02*
Y-0011889D01*
X0008392Y-0012222D02*
Y-0011889D01*
X0008336Y-0011778D01*
X0008225D01*
X0008169Y-0011889D01*
X0008114Y-0011778D01*
X0008003D01*
X0007947Y-0011889D01*
Y-0012222D01*
X0006464D02*
X0006353Y-0012111D01*
X0006297Y-0012000D01*
Y-0011778D01*
X0006353Y-0011667D01*
X0006464Y-0011556D01*
X0006575D01*
X0006686Y-0011667D01*
X0006742Y-0011778D01*
Y-0012000D01*
X0006686Y-0012111D01*
X0006575Y-0012222D01*
X0006464D01*
X0005764D02*
X0005653Y-0012111D01*
X0005597Y-0012000D01*
Y-0011778D01*
X0005653Y-0011667D01*
X0005764Y-0011556D01*
X0005875D01*
X0005986Y-0011667D01*
X0006042Y-0011778D01*
Y-0012000D01*
X0005986Y-0012111D01*
X0005875Y-0012222D01*
X0005764D01*
X0004897Y-0012111D02*
X0005008Y-0012222D01*
X0005230D01*
X0005342Y-0012111D01*
Y-0012000D01*
X0005119Y-0011778D01*
X0005342Y-0011556D01*
X0004897D01*
X0004531Y-0012222D02*
X0004642D01*
Y-0012111D01*
X0004531D01*
Y-0012222D01*
X0004164D02*
X0003942D01*
X0004053D02*
Y-0011556D01*
X0003942Y-0011667D01*
X0022375Y-0010722D02*
X0022708Y-0010056D01*
X0022264D01*
X0022008Y-0010722D02*
X0021786D01*
X0021897D02*
Y-0010056D01*
X0021786Y-0010167D01*
X0008869Y-0010722D02*
Y-0010389D01*
X0009092Y-0010722D02*
Y-0010389D01*
X0009036Y-0010278D01*
X0008925D01*
X0008869Y-0010389D01*
X0008814Y-0010278D01*
X0008703D01*
X0008647Y-0010389D01*
Y-0010722D01*
X0008169D02*
Y-0010389D01*
X0008392Y-0010722D02*
Y-0010389D01*
X0008336Y-0010278D01*
X0008225D01*
X0008169Y-0010389D01*
X0008114Y-0010278D01*
X0008003D01*
X0007947Y-0010389D01*
Y-0010722D01*
X0006464D02*
X0006353Y-0010611D01*
X0006297Y-0010500D01*
Y-0010278D01*
X0006353Y-0010167D01*
X0006464Y-0010056D01*
X0006575D01*
X0006686Y-0010167D01*
X0006742Y-0010278D01*
Y-0010500D01*
X0006686Y-0010611D01*
X0006575Y-0010722D01*
X0006464D01*
X0005764D02*
X0005653Y-0010611D01*
X0005597Y-0010500D01*
Y-0010278D01*
X0005653Y-0010167D01*
X0005764Y-0010056D01*
X0005875D01*
X0005986Y-0010167D01*
X0006042Y-0010278D01*
Y-0010500D01*
X0005986Y-0010611D01*
X0005875Y-0010722D01*
X0005764D01*
X0005342D02*
X0004897D01*
X0005342Y-0010278D01*
Y-0010167D01*
X0005286Y-0010056D01*
X0004953D01*
X0004897Y-0010167D01*
X0004531Y-0010722D02*
X0004642D01*
Y-0010611D01*
X0004531D01*
Y-0010722D01*
X0004164D02*
X0003942D01*
X0004053D02*
Y-0010056D01*
X0003942Y-0010167D01*
X0022264Y-0009111D02*
X0022319Y-0009222D01*
X0022653D01*
X0022708Y-0009111D01*
Y-0008889D01*
X0022597Y-0008778D01*
X0022264D01*
Y-0008556D01*
X0022708D01*
X0022008Y-0009222D02*
X0021786D01*
X0021897D02*
Y-0008556D01*
X0021786Y-0008667D01*
X0008869Y-0009222D02*
Y-0008889D01*
X0009092Y-0009222D02*
Y-0008889D01*
X0009036Y-0008778D01*
X0008925D01*
X0008869Y-0008889D01*
X0008814Y-0008778D01*
X0008703D01*
X0008647Y-0008889D01*
Y-0009222D01*
X0008169D02*
Y-0008889D01*
X0008392Y-0009222D02*
Y-0008889D01*
X0008336Y-0008778D01*
X0008225D01*
X0008169Y-0008889D01*
X0008114Y-0008778D01*
X0008003D01*
X0007947Y-0008889D01*
Y-0009222D01*
X0006464D02*
X0006353Y-0009111D01*
X0006297Y-0009000D01*
Y-0008778D01*
X0006353Y-0008667D01*
X0006464Y-0008556D01*
X0006575D01*
X0006686Y-0008667D01*
X0006742Y-0008778D01*
Y-0009000D01*
X0006686Y-0009111D01*
X0006575Y-0009222D01*
X0006464D01*
X0005764D02*
X0005653Y-0009111D01*
X0005597Y-0009000D01*
Y-0008778D01*
X0005653Y-0008667D01*
X0005764Y-0008556D01*
X0005875D01*
X0005986Y-0008667D01*
X0006042Y-0008778D01*
Y-0009000D01*
X0005986Y-0009111D01*
X0005875Y-0009222D01*
X0005764D01*
X0005286Y-0008889D02*
X0004953D01*
X0004897Y-0008778D01*
Y-0008667D01*
X0004953Y-0008556D01*
X0005286D01*
X0005342Y-0008667D01*
Y-0008778D01*
X0005119Y-0009222D01*
X0004531D02*
X0004642D01*
Y-0009111D01*
X0004531D01*
Y-0009222D01*
X0003886D02*
X0003775Y-0009111D01*
X0003719Y-0009000D01*
Y-0008778D01*
X0003775Y-0008667D01*
X0003886Y-0008556D01*
X0003997D01*
X0004108Y-0008667D01*
X0004164Y-0008778D01*
Y-0009000D01*
X0004108Y-0009111D01*
X0003997Y-0009222D01*
X0003886D01*
X0022430Y-0007722D02*
X0022319Y-0007611D01*
X0022264Y-0007500D01*
Y-0007278D01*
X0022319Y-0007167D01*
X0022430Y-0007056D01*
X0022542D01*
X0022653Y-0007167D01*
X0022708Y-0007278D01*
Y-0007500D01*
X0022653Y-0007611D01*
X0022542Y-0007722D01*
X0022430D01*
X0022008Y-0007500D02*
X0021564D01*
X0021786Y-0007056D01*
X0021897D01*
Y-0007722D01*
X0008869D02*
Y-0007389D01*
X0009092Y-0007722D02*
Y-0007389D01*
X0009036Y-0007278D01*
X0008925D01*
X0008869Y-0007389D01*
X0008814Y-0007278D01*
X0008703D01*
X0008647Y-0007389D01*
Y-0007722D01*
X0008169D02*
Y-0007389D01*
X0008392Y-0007722D02*
Y-0007389D01*
X0008336Y-0007278D01*
X0008225D01*
X0008169Y-0007389D01*
X0008114Y-0007278D01*
X0008003D01*
X0007947Y-0007389D01*
Y-0007722D01*
X0006464D02*
X0006353Y-0007611D01*
X0006297Y-0007500D01*
Y-0007278D01*
X0006353Y-0007167D01*
X0006464Y-0007056D01*
X0006575D01*
X0006686Y-0007167D01*
X0006742Y-0007278D01*
Y-0007500D01*
X0006686Y-0007611D01*
X0006575Y-0007722D01*
X0006464D01*
X0005764D02*
X0005653Y-0007611D01*
X0005597Y-0007500D01*
Y-0007278D01*
X0005653Y-0007167D01*
X0005764Y-0007056D01*
X0005875D01*
X0005986Y-0007167D01*
X0006042Y-0007278D01*
Y-0007500D01*
X0005986Y-0007611D01*
X0005875Y-0007722D01*
X0005764D01*
X0005342D02*
X0004897D01*
X0005342Y-0007278D01*
Y-0007167D01*
X0005286Y-0007056D01*
X0004953D01*
X0004897Y-0007167D01*
X0004531Y-0007722D02*
X0004642D01*
Y-0007611D01*
X0004531D01*
Y-0007722D01*
X0003886D02*
X0003775Y-0007611D01*
X0003719Y-0007500D01*
Y-0007278D01*
X0003775Y-0007167D01*
X0003886Y-0007056D01*
X0003997D01*
X0004108Y-0007167D01*
X0004164Y-0007278D01*
Y-0007500D01*
X0004108Y-0007611D01*
X0003997Y-0007722D01*
X0003886D01*
X0031112Y-0005583D02*
X0030612D01*
X0031279Y-0006083D02*
X0030612D01*
Y-0005083D01*
X0031279D01*
X0029996Y-0006083D02*
Y-0005083D01*
X0030329D02*
X0029662D01*
X0028796Y-0006083D02*
X0028712Y-0005917D01*
Y-0005250D01*
X0028796Y-0005083D01*
X0029296D01*
X0029379Y-0005250D01*
Y-0005917D01*
X0029296Y-0006083D01*
X0028796D01*
X0028429Y-0005083D02*
Y-0006083D01*
X0028262Y-0005917D01*
X0027929Y-0005250D01*
X0027762Y-0005083D01*
Y-0006083D01*
X0021925D02*
Y-0005583D01*
X0022258Y-0005083D02*
X0022008Y-0005583D01*
X0021842D01*
X0021592Y-0005083D01*
X0020975Y-0006083D02*
Y-0005083D01*
X0021308D02*
X0020642D01*
X0020025Y-0005750D02*
X0020358Y-0006083D01*
X0019692Y-0005917D02*
X0019775Y-0006083D01*
X0020108D01*
X0020192Y-0005917D01*
X0020358Y-0005750D01*
Y-0005250D01*
X0020275Y-0005083D01*
X0019775D01*
X0019692Y-0005250D01*
Y-0005917D01*
X0015408Y-0006083D02*
X0014825D01*
Y-0005083D01*
X0013958Y-0006083D02*
X0013875Y-0005917D01*
Y-0005250D01*
X0013958Y-0005083D01*
X0014458D01*
X0014542Y-0005250D01*
Y-0005917D01*
X0014458Y-0006083D01*
X0013958D01*
X0013258D02*
Y-0005083D01*
X0013592D02*
X0012925D01*
X0007587Y-0006083D02*
Y-0005083D01*
X0007421Y-0005250D01*
X0007254Y-0005583D01*
X0007087Y-0005250D01*
X0006921Y-0005083D01*
Y-0006083D01*
X0006637Y-0005750D02*
X0005971D01*
X0006637Y-0006083D02*
Y-0005583D01*
X0006387Y-0005083D01*
X0006221D01*
X0005971Y-0005583D01*
Y-0006083D01*
X0005687D02*
X0005354D01*
X0005521D02*
Y-0005083D01*
X0005687D02*
X0005354D01*
X0004321Y-0006083D02*
Y-0005083D01*
X0004237Y-0006083D02*
X0004737D01*
X0004904Y-0005750D01*
Y-0005417D01*
X0004737Y-0005083D01*
X0004237D01*
X0001150Y-0006083D02*
Y-0005083D01*
X0000983Y-0005250D01*
X0000817Y-0005583D01*
X0000650Y-0005250D01*
X0000483Y-0005083D01*
Y-0006083D01*
X-0000133D02*
Y-0005583D01*
X0000200Y-0005083D02*
X-0000050Y-0005583D01*
X-0000217D01*
X-0000467Y-0005083D01*
X-0000750Y-0005250D02*
X-0000833Y-0005083D01*
X-0001333D01*
X-0001417Y-0005250D01*
Y-0005417D01*
X-0001333Y-0005583D01*
X-0000833D01*
X-0000750Y-0005750D01*
Y-0005917D01*
X-0000833Y-0006083D01*
X-0001333D01*
X-0001417Y-0005917D01*
X0021437Y-0004083D02*
Y-0003083D01*
X0021771D02*
X0021104D01*
X0020571Y-0003583D02*
X0020821Y-0004083D01*
X0020154Y-0003583D02*
X0020654D01*
X0020821Y-0003417D01*
Y-0003250D01*
X0020654Y-0003083D01*
X0020154D01*
Y-0004083D01*
X0019871Y-0003750D02*
X0019204D01*
X0019871Y-0004083D02*
Y-0003583D01*
X0019621Y-0003083D01*
X0019454D01*
X0019204Y-0003583D01*
Y-0004083D01*
X0018921Y-0003583D02*
X0018254D01*
X0018921Y-0004083D02*
Y-0003083D01*
X0018254Y-0004083D02*
Y-0003083D01*
X0017971Y-0003917D02*
X0017887Y-0004083D01*
X0017387D01*
X0017304Y-0003917D01*
Y-0003250D01*
X0017387Y-0003083D01*
X0017887D01*
X0017971Y-0003250D01*
X0015696Y-0004083D02*
X0015112D01*
Y-0003083D01*
X0014829Y-0004083D02*
X0014246D01*
Y-0003083D01*
X0013962Y-0004083D02*
X0013629D01*
X0013796D02*
Y-0003083D01*
X0013962D02*
X0013629D01*
X0012929Y-0003583D02*
X0013179Y-0004083D01*
X0012512Y-0003583D02*
X0013012D01*
X0013179Y-0003417D01*
Y-0003250D01*
X0013012Y-0003083D01*
X0012512D01*
Y-0004083D01*
X0011646D02*
Y-0003083D01*
X0011562Y-0004083D02*
X0012062D01*
X0012229Y-0003750D01*
Y-0003417D01*
X0012062Y-0003083D01*
X0011562D01*
X0015400Y0012350D02*
X0014900Y0011850D01*
X0015400D02*
X0014900Y0012350D01*
X0006750Y0003350D02*
X0006250Y0002850D01*
X0006750D02*
X0006250Y0003350D01*
X-0000100Y0015250D02*
X-0000600Y0014750D01*
X-0000100D02*
X-0000600Y0015250D01*
X-0000100D02*
X-0000600Y0014750D01*
X-0000100D02*
X-0000600Y0015250D01*
X0015400Y0012350D02*
X0014900Y0011850D01*
X0015400D02*
X0014900Y0012350D01*
X0015500Y0010750D02*
X0015000Y0010250D01*
X0015500D02*
X0015000Y0010750D01*
X0015400Y0012350D02*
X0014900Y0011850D01*
X0015400D02*
X0014900Y0012350D01*
X0002750Y0012200D02*
X0002250Y0011700D01*
X0002750D02*
X0002250Y0012200D01*
Y0011000D02*
X0001750Y0010500D01*
X0002250D02*
X0001750Y0011000D01*
X0002750Y0012200D02*
X0002250Y0011700D01*
X0002750D02*
X0002250Y0012200D01*
X0002700Y0010000D02*
X0002200Y0009500D01*
X0002700D02*
X0002200Y0010000D01*
X0002250Y0011000D02*
X0001750Y0010500D01*
X0002250D02*
X0001750Y0011000D01*
X0005300Y0010500D02*
X0004800Y0010000D01*
X0005300D02*
X0004800Y0010500D01*
X0006750Y0003350D02*
X0006250Y0002850D01*
X0006750D02*
X0006250Y0003350D01*
X0014968Y0005031D02*
X0014468Y0004531D01*
X0014968D02*
X0014468Y0005031D01*
X0011700Y0015000D02*
X0011200Y0014500D01*
X0011700D02*
X0011200Y0015000D01*
X0005300Y0010500D02*
X0004800Y0010000D01*
X0005300D02*
X0004800Y0010500D01*
X0002700Y0010000D02*
X0002200Y0009500D01*
X0002700D02*
X0002200Y0010000D01*
X0003000Y0008100D02*
X0002500Y0007600D01*
X0003000D02*
X0002500Y0008100D01*
X0004300Y0008660D02*
X0003800Y0008160D01*
X0004300D02*
X0003800Y0008660D01*
X0003600Y0013450D02*
X0003100Y0012950D01*
X0003600D02*
X0003100Y0013450D01*
X0004300Y0011000D02*
X0003800Y0010500D01*
X0004300D02*
X0003800Y0011000D01*
X0004300Y0008660D02*
X0003800Y0008160D01*
X0004300D02*
X0003800Y0008660D01*
X0005550Y0007550D02*
X0005050Y0007050D01*
X0005550D02*
X0005050Y0007550D01*
X0004300Y0008660D02*
X0003800Y0008160D01*
X0004300D02*
X0003800Y0008660D01*
X0000800Y0009000D02*
X0000300Y0008500D01*
X0000800D02*
X0000300Y0009000D01*
X0000950Y0003600D02*
X0000450Y0003100D01*
X0000950D02*
X0000450Y0003600D01*
X0000800Y0009000D02*
X0000300Y0008500D01*
X0000800D02*
X0000300Y0009000D01*
X0002800Y0008650D02*
X0002300Y0008150D01*
X0002800D02*
X0002300Y0008650D01*
X0004900Y0004400D02*
X0004400Y0003900D01*
X0004900D02*
X0004400Y0004400D01*
X0013000Y0010050D02*
X0012500Y0009550D01*
X0013000D02*
X0012500Y0010050D01*
X0014800Y0012050D02*
X0014300Y0011550D01*
X0014800D02*
X0014300Y0012050D01*
X0010000Y0012850D02*
X0009500Y0012350D01*
X0010000D02*
X0009500Y0012850D01*
X0010650Y0011350D02*
X0010150Y0010850D01*
X0010650D02*
X0010150Y0011350D01*
X0011213Y0012163D02*
X0010713Y0011663D01*
X0011213D02*
X0010713Y0012163D01*
X0010300Y0013300D02*
X0009800Y0012800D01*
X0010300D02*
X0009800Y0013300D01*
X0014950Y0010750D02*
X0014450Y0010250D01*
X0014950D02*
X0014450Y0010750D01*
X0007400Y0007550D02*
X0006900Y0007050D01*
X0007400D02*
X0006900Y0007550D01*
X0007000Y0009700D02*
X0006500Y0009200D01*
X0007000D02*
X0006500Y0009700D01*
X0007750Y0009850D02*
X0007250Y0009350D01*
X0007750D02*
X0007250Y0009850D01*
X0012330Y0008970D02*
X0011830Y0008470D01*
X0012330D02*
X0011830Y0008970D01*
X0012330Y0015670D02*
X0011830Y0015170D01*
X0012330D02*
X0011830Y0015670D01*
X0005750Y0009750D02*
X0005250Y0009250D01*
X0005750D02*
X0005250Y0009750D01*
X0005750Y0011500D02*
X0005250Y0011000D01*
X0005750D02*
X0005250Y0011500D01*
X0011700Y0015000D02*
X0011200Y0014500D01*
X0011700D02*
X0011200Y0015000D01*
X0004850Y0007150D02*
X0004350Y0006650D01*
X0004850D02*
X0004350Y0007150D01*
X0005300Y0010500D02*
X0004800Y0010000D01*
X0005300D02*
X0004800Y0010500D01*
X0010400Y0018650D02*
X0009900Y0018150D01*
X0010400D02*
X0009900Y0018650D01*
X0003000Y0008100D02*
X0002500Y0007600D01*
X0003000D02*
X0002500Y0008100D01*
X0003000Y0006600D02*
X0002500Y0006100D01*
X0003000D02*
X0002500Y0006600D01*
X0008600Y0014600D02*
X0008100Y0014100D01*
X0008600D02*
X0008100Y0014600D01*
X0009880Y0008280D02*
X0009380Y0007780D01*
X0009880D02*
X0009380Y0008280D01*
X0010100Y0004150D02*
X0009600Y0003650D01*
X0010100D02*
X0009600Y0004150D01*
X0013000Y0002000D02*
X0012500Y0001500D01*
X0013000D02*
X0012500Y0002000D01*
X-0000175Y-0016350D02*
X-0000425Y-0016600D01*
X0000075D02*
X-0000175Y-0016350D01*
X-0000425Y-0016600D02*
X0000075D01*
X-0000425Y-0014900D02*
Y-0015100D01*
X-0000275Y-0014750D02*
X-0000425Y-0014900D01*
X-0000075Y-0014750D02*
X-0000275D01*
X0000075Y-0014900D02*
X-0000075Y-0014750D01*
X0000075Y-0015100D02*
Y-0014900D01*
X-0000075Y-0015250D02*
X0000075Y-0015100D01*
X-0000275Y-0015250D02*
X-0000075D01*
X-0000425Y-0015100D02*
X-0000275Y-0015250D01*
X-0000425Y-0013250D02*
Y-0013500D01*
X-0000175Y-0013250D02*
X-0000425D01*
X-0000175Y-0013750D02*
Y-0013250D01*
X0000075Y-0013750D02*
X-0000175D01*
X0000075Y-0013500D02*
Y-0013750D01*
X-0000425Y-0013500D02*
X0000075D01*
X-0000425Y-0011750D02*
Y-0012250D01*
X0000075Y-0011750D02*
X-0000425D01*
X0000075Y-0012250D02*
Y-0011750D01*
X-0000425Y-0012250D02*
X0000075D01*
Y-0012000D02*
X-0000425D01*
X-0000175Y-0011750D02*
Y-0012250D01*
X-0000425Y-0010250D02*
Y-0010750D01*
X0000075Y-0010250D02*
X-0000425D01*
X0000075Y-0010750D02*
Y-0010250D01*
X-0000425Y-0010750D02*
X0000075D01*
Y-0010250D02*
X-0000425Y-0010750D01*
X0000075D02*
X-0000425Y-0010250D01*
X0000075Y-0009000D02*
X-0000425D01*
X-0000175Y-0008750D02*
Y-0009250D01*
X0000075Y-0007250D02*
X-0000425Y-0007750D01*
X0000075D02*
X-0000425Y-0007250D01*
X0035300Y-0019300D02*
X-0002050D01*
X0035250Y-0019250D02*
X-0002000D01*
X0035250Y-0017250D02*
X-0002000D01*
X0035250Y-0015750D02*
X-0002000D01*
X0035250Y-0014250D02*
X-0002000D01*
X0035250Y-0012750D02*
X-0002000D01*
X0035250Y-0011250D02*
X-0002000D01*
X0035250Y-0009750D02*
X-0002000D01*
X0035250Y-0008250D02*
X-0002000D01*
X0035250Y-0006750D02*
X-0002000D01*
X0035250Y-0006700D02*
X-0002000D01*
X0035250Y-0004750D02*
X-0002000D01*
X0035250Y-0004700D02*
X-0002000D01*
X0035250Y-0002750D02*
X-0002000D01*
X0035300Y-0002700D02*
X-0002050D01*
X0035300Y-0019250D02*
Y-0002750D01*
X0035250Y-0019250D02*
Y-0002750D01*
X0023708Y-0019250D02*
Y-0004750D01*
X0018158Y-0019250D02*
Y-0004750D01*
X0010092Y-0017250D02*
Y-0004750D01*
X0001700Y-0017250D02*
Y-0004750D01*
X0001650Y-0017250D02*
Y-0004750D01*
X-0002050Y-0019250D02*
Y-0002750D01*
X-0002000Y-0019250D02*
Y-0002750D01*
X0017716Y0021260D02*
Y-0001575D01*
X-0001968D01*
Y0021260D01*
X0017716D01*
X0007636Y0002962D02*
X0007136D01*
X0007386Y0003212D02*
Y0002712D01*
X0007636Y0003962D02*
X0007136D01*
X0007386Y0004212D02*
Y0003712D01*
X0008569Y0007346D02*
Y0007096D01*
X0008819Y0007346D02*
X0008569D01*
X0008819Y0006846D02*
Y0007346D01*
X0009069Y0006846D02*
X0008819D01*
X0009069Y0007096D02*
Y0006846D01*
X0008569Y0007096D02*
X0009069D01*
X0008636Y0003962D02*
X0008136D01*
X0008386Y0004212D02*
Y0003712D01*
X0008636Y0002962D02*
X0008136D01*
X0008386Y0003212D02*
Y0002712D01*
X0005068Y0015873D02*
X0004568D01*
X0004818Y0016123D02*
Y0015623D01*
X0005232Y0014887D02*
X0004732D01*
X0004982Y0015137D02*
Y0014637D01*
X0003833Y0011811D02*
Y0011561D01*
X0004083Y0011811D02*
X0003833D01*
X0004083Y0011311D02*
Y0011811D01*
X0004333Y0011311D02*
X0004083D01*
X0004333Y0011561D02*
Y0011311D01*
X0003833Y0011561D02*
X0004333D01*
X0004246Y0014723D02*
X0003746D01*
X0003996Y0014973D02*
Y0014473D01*
X0004082Y0015709D02*
X0003582D01*
X0003832Y0015959D02*
Y0015459D01*
X0008612Y0016092D02*
X0008112D01*
X0008362Y0016342D02*
Y0015842D01*
X0008612Y0015092D02*
X0008112D01*
X0008362Y0015342D02*
Y0014842D01*
X0006679Y0012209D02*
Y0011959D01*
X0006929Y0012209D02*
X0006679D01*
X0006929Y0011709D02*
Y0012209D01*
X0007179Y0011709D02*
X0006929D01*
X0007179Y0011959D02*
Y0011709D01*
X0006679Y0011959D02*
X0007179D01*
X0007612Y0015092D02*
X0007112D01*
X0007362Y0015342D02*
Y0014842D01*
X0007612Y0016092D02*
X0007112D01*
X0007362Y0016342D02*
Y0015842D01*
X-0001346Y0019350D02*
Y0019150D01*
X-0001196Y0019500D02*
X-0001346Y0019350D01*
X-0000996Y0019500D02*
X-0001196D01*
X-0000846Y0019350D02*
X-0000996Y0019500D01*
X-0000846Y0019150D02*
Y0019350D01*
X-0000996Y0019000D02*
X-0000846Y0019150D01*
X-0001196Y0019000D02*
X-0000996D01*
X-0001346Y0019150D02*
X-0001196Y0019000D01*
X-0000492Y0019500D02*
Y0019000D01*
X0000008Y0019500D02*
X-0000492D01*
X0000008Y0019000D02*
Y0019500D01*
X-0000492Y0019000D02*
X0000008D01*
Y0019500D02*
X-0000492Y0019000D01*
X0000008D02*
X-0000492Y0019500D01*
X0000492D02*
Y0019000D01*
X0000992Y0019500D02*
X0000492D01*
X0000992Y0019000D02*
Y0019500D01*
X0000492Y0019000D02*
X0000992D01*
Y0019500D02*
X0000492Y0019000D01*
X0000992D02*
X0000492Y0019500D01*
X0001346Y0019350D02*
Y0019150D01*
X0001496Y0019500D02*
X0001346Y0019350D01*
X0001696Y0019500D02*
X0001496D01*
X0001846Y0019350D02*
X0001696Y0019500D01*
X0001846Y0019150D02*
Y0019350D01*
X0001696Y0019000D02*
X0001846Y0019150D01*
X0001496Y0019000D02*
X0001696D01*
X0001346Y0019150D02*
X0001496Y0019000D01*
X0000000Y0020027D02*
Y0019527D01*
X0000500Y0020027D02*
X0000000D01*
X0000500Y0019527D02*
Y0020027D01*
X0000000Y0019527D02*
X0000500D01*
Y0019777D02*
X0000000D01*
X0000250Y0020027D02*
Y0019527D01*
X0014468Y0007742D02*
Y0007242D01*
X0014968Y0007742D02*
X0014468D01*
X0014968Y0007242D02*
Y0007742D01*
X0014468Y0007242D02*
X0014968D01*
Y0007742D02*
X0014468Y0007242D01*
X0014968D02*
X0014468Y0007742D01*
X0013484D02*
Y0007242D01*
X0013984Y0007742D02*
X0013484D01*
X0013984Y0007242D02*
Y0007742D01*
X0013484Y0007242D02*
X0013984D01*
Y0007742D02*
X0013484Y0007242D01*
X0013984D02*
X0013484Y0007742D01*
X0012500D02*
Y0007242D01*
X0013000Y0007742D02*
X0012500D01*
X0013000Y0007242D02*
Y0007742D01*
X0012500Y0007242D02*
X0013000D01*
Y0007742D02*
X0012500Y0007242D01*
X0013000D02*
X0012500Y0007742D01*
X0011516D02*
Y0007242D01*
X0012016Y0007742D02*
X0011516D01*
X0012016Y0007242D02*
Y0007742D01*
X0011516Y0007242D02*
X0012016D01*
Y0007742D02*
X0011516Y0007242D01*
X0012016D02*
X0011516Y0007742D01*
X0010531D02*
Y0007242D01*
X0011031Y0007742D02*
X0010531D01*
X0011031Y0007242D02*
Y0007742D01*
X0010531Y0007242D02*
X0011031D01*
Y0007742D02*
X0010531Y0007242D01*
X0011031D02*
X0010531Y0007742D01*
Y0006608D02*
Y0006408D01*
X0010681Y0006758D02*
X0010531Y0006608D01*
X0010881Y0006758D02*
X0010681D01*
X0011031Y0006608D02*
X0010881Y0006758D01*
X0011031Y0006408D02*
Y0006608D01*
X0010881Y0006258D02*
X0011031Y0006408D01*
X0010681Y0006258D02*
X0010881D01*
X0010531Y0006408D02*
X0010681Y0006258D01*
X0012008Y0006230D02*
Y0005730D01*
X0012508Y0006230D02*
X0012008D01*
X0012508Y0005730D02*
Y0006230D01*
X0012008Y0005730D02*
X0012508D01*
Y0005980D02*
X0012008D01*
X0012258Y0006230D02*
Y0005730D01*
X0014468Y0006758D02*
Y0006258D01*
X0014968Y0006758D02*
X0014468D01*
X0014968Y0006258D02*
Y0006758D01*
X0014468Y0006258D02*
X0014968D01*
Y0006758D02*
X0014468Y0006258D01*
X0014968D02*
X0014468Y0006758D01*
X0013484D02*
Y0006258D01*
X0013984Y0006758D02*
X0013484D01*
X0013984Y0006258D02*
Y0006758D01*
X0013484Y0006258D02*
X0013984D01*
Y0006758D02*
X0013484Y0006258D01*
X0013984D02*
X0013484Y0006758D01*
X0012500D02*
Y0006258D01*
X0013000Y0006758D02*
X0012500D01*
X0013000Y0006258D02*
Y0006758D01*
X0012500Y0006258D02*
X0013000D01*
Y0006758D02*
X0012500Y0006258D01*
X0013000D02*
X0012500Y0006758D01*
X0011516D02*
Y0006258D01*
X0012016Y0006758D02*
X0011516D01*
X0012016Y0006258D02*
Y0006758D01*
X0011516Y0006258D02*
X0012016D01*
Y0006758D02*
X0011516Y0006258D01*
X0012016D02*
X0011516Y0006758D01*
X0013484Y0003742D02*
Y0003242D01*
X0013984Y0003742D02*
X0013484D01*
X0013984Y0003242D02*
Y0003742D01*
X0013484Y0003242D02*
X0013984D01*
Y0003742D02*
X0013484Y0003242D01*
X0013984D02*
X0013484Y0003742D01*
X0012500D02*
Y0003242D01*
X0013000Y0003742D02*
X0012500D01*
X0013000Y0003242D02*
Y0003742D01*
X0012500Y0003242D02*
X0013000D01*
Y0003742D02*
X0012500Y0003242D01*
X0013000D02*
X0012500Y0003742D01*
X0011516D02*
Y0003242D01*
X0012016Y0003742D02*
X0011516D01*
X0012016Y0003242D02*
Y0003742D01*
X0011516Y0003242D02*
X0012016D01*
Y0003742D02*
X0011516Y0003242D01*
X0012016D02*
X0011516Y0003742D01*
X0010661Y0002722D02*
Y0002522D01*
X0010811Y0002872D02*
X0010661Y0002722D01*
X0011011Y0002872D02*
X0010811D01*
X0011161Y0002722D02*
X0011011Y0002872D01*
X0011161Y0002522D02*
Y0002722D01*
X0011011Y0002372D02*
X0011161Y0002522D01*
X0010811Y0002372D02*
X0011011D01*
X0010661Y0002522D02*
X0010811Y0002372D01*
X0011516Y0002758D02*
Y0002258D01*
X0012016Y0002758D02*
X0011516D01*
X0012016Y0002258D02*
Y0002758D01*
X0011516Y0002258D02*
X0012016D01*
Y0002758D02*
X0011516Y0002258D01*
X0012016D02*
X0011516Y0002758D01*
X0012500D02*
Y0002258D01*
X0013000Y0002758D02*
X0012500D01*
X0013000Y0002258D02*
Y0002758D01*
X0012500Y0002258D02*
X0013000D01*
Y0002758D02*
X0012500Y0002258D01*
X0013000D02*
X0012500Y0002758D01*
X0013484D02*
Y0002258D01*
X0013984Y0002758D02*
X0013484D01*
X0013984Y0002258D02*
Y0002758D01*
X0013484Y0002258D02*
X0013984D01*
Y0002758D02*
X0013484Y0002258D01*
X0013984D02*
X0013484Y0002758D01*
X0014338Y0002722D02*
Y0002522D01*
X0014488Y0002872D02*
X0014338Y0002722D01*
X0014688Y0002872D02*
X0014488D01*
X0014838Y0002722D02*
X0014688Y0002872D01*
X0014838Y0002522D02*
Y0002722D01*
X0014688Y0002372D02*
X0014838Y0002522D01*
X0014488Y0002372D02*
X0014688D01*
X0014338Y0002522D02*
X0014488Y0002372D01*
X0014500Y0017250D02*
X0014000D01*
X0014250Y0017500D02*
Y0017000D01*
X0013713Y0017250D02*
X0013213D01*
X0013463Y0017500D02*
Y0017000D01*
X0012925Y0017250D02*
X0012425D01*
X0012675Y0017500D02*
Y0017000D01*
X0015748Y0000150D02*
X0015498Y-0000100D01*
X0015998D02*
X0015748Y0000150D01*
X0015498Y-0000100D02*
X0015998D01*
X0000000Y0000150D02*
X-0000250Y-0000100D01*
X0000250D02*
X0000000Y0000150D01*
X-0000250Y-0000100D02*
X0000250D01*
X0015748Y0019835D02*
X0015498Y0019585D01*
X0015998D02*
X0015748Y0019835D01*
X0015498Y0019585D02*
X0015998D01*
X0005118Y0019835D02*
X0004868Y0019585D01*
X0005368D02*
X0005118Y0019835D01*
X0004868Y0019585D02*
X0005368D01*
M02*
