*
G04 Mass Parameters ***
*
G04 Image ***
*
%IND:\UTENTI\00.CAD\00.PROGETTI\METALTRONICA\22-310-0\22-310-0.DRL*%
%ICAS*%
%MOIN*%
%IPPOS*%
%ASAXBY*%
G74*%FSLAN2X34Y34*%
*
G04 Aperture Definitions ***
*
%ADD10C,0.1260*%
%ADD11C,0.0394*%
%ADD12R,0.0501X0.0404*%
%ADD13R,0.0380X0.0320*%
%ADD14R,0.0404X0.0501*%
%ADD15R,0.0527X0.0630*%
%ADD16R,0.1913X0.1496*%
%ADD17C,0.0590*%
%ADD18R,0.0590X0.0590*%
%ADD19O,0.0787X0.1181*%
%ADD20C,0.0669*%
%ADD21R,0.0669X0.0669*%
%ADD22C,0.0787*%
%ADD23C,0.0512*%
%ADD24C,0.0866*%
%ADD25C,0.0630*%
%ADD26C,0.0551*%
%ADD27R,0.0984X0.0394*%
%ADD28R,0.0400X0.0500*%
%ADD29R,0.0315X0.0354*%
%ADD30R,0.0500X0.0400*%
%ADD31R,0.0320X0.0380*%
%ADD32R,0.0710X0.0400*%
%ADD33R,0.1000X0.0600*%
%ADD34R,0.2760X0.2760*%
%ADD35R,0.0270X0.0500*%
%ADD36O,0.0650X0.0256*%
%ADD37R,0.0236X0.0157*%
%ADD38R,0.0197X0.0157*%
%ADD39R,0.0680X0.1580*%
%ADD40R,0.0680X0.0550*%
%ADD41C,0.0100*%
%ADD42C,0.0250*%
%ADD43C,0.0120*%
%ADD44C,0.0394*%
%ADD45C,0.0400*%
%ADD46C,0.0500*%
%ADD47C,0.0080*%
%ADD48C,0.0394*%
%ADD49R,0.0354X0.0354*%
%ADD50C,0.0060*%
%ADD51C,0.0079*%
%ADD52C,0.0354*%
%ADD53C,0.0472*%
%ADD54C,0.0551*%
%ADD55C,0.0079*%
*
G04 Plot Data ***
*
G54D41*
G01X0017716Y0021260D02*
Y-0001575D01*
X-0001968D01*
Y0021260D01*
X0017716D01*
G54D54*
G01X0003188Y0016939D02*
X0003291Y0016318D01*
X0006929Y0017411D02*
Y0016781D01*
X0008819Y0001644D02*
Y0002273D01*
G54D10*
X0015748Y0000000D03*
X0000000D03*
X0015748Y0019685D03*
X0005118D03*
G54D23*
X0000250Y0019777D03*
X0012258Y0005980D03*
G54D25*
X-0001096Y0019250D03*
X0001596D03*
X0010781Y0006508D03*
X0010911Y0002622D03*
X0014588D03*
G54D26*
X0008819Y0007096D03*
X0004083Y0011561D03*
X0006929Y0011959D03*
G54D52*
X0007386Y0002962D03*
Y0003962D03*
X0008386D03*
Y0002962D03*
X0004818Y0015873D03*
X0004982Y0014887D03*
X0003996Y0014723D03*
X0003832Y0015709D03*
X0008362Y0016092D03*
Y0015092D03*
X0007362D03*
Y0016092D03*
X0014250Y0017250D03*
X0013463D03*
X0012675D03*
G54D53*
X-0000242Y0019250D03*
X0000742D03*
X0014718Y0007492D03*
X0013734D03*
X0012750D03*
X0011766D03*
X0010781D03*
X0014718Y0006508D03*
X0013734D03*
X0012750D03*
X0011766D03*
X0013734Y0003492D03*
X0012750D03*
X0011766D03*
Y0002508D03*
X0012750D03*
X0013734D03*
G54D55*
X-0000350Y0015000D03*
X0015250Y0010500D03*
X0015150Y0012100D03*
X0002500Y0011950D03*
X0002000Y0010750D03*
X0006500Y0003100D03*
X0014718Y0004781D03*
X0002450Y0009750D03*
X0003350Y0013200D03*
X0004050Y0010750D03*
X0005300Y0007300D03*
X0004050Y0008410D03*
X0000700Y0003350D03*
X0000550Y0008750D03*
X0002550Y0008400D03*
X0004650Y0004150D03*
X0012750Y0009800D03*
X0014550Y0011800D03*
X0009750Y0012600D03*
X0010400Y0011100D03*
X0010963Y0011913D03*
X0010050Y0013050D03*
X0014700Y0010500D03*
X0007150Y0007300D03*
X0006750Y0009450D03*
X0007500Y0009600D03*
X0012080Y0008720D03*
Y0015420D03*
X0005500Y0009500D03*
Y0011250D03*
X0011450Y0014750D03*
X0004600Y0006900D03*
X0005050Y0010250D03*
X0010150Y0018400D03*
X0002750Y0007850D03*
Y0006350D03*
X0008350Y0014350D03*
X0009630Y0008030D03*
X0009850Y0003900D03*
X0012750Y0001750D03*
M02*
