*
G04 Mass Parameters ***
*
G04 Image ***
*
%IND:\UTENTI\00.CAD\00.PROGETTI\METALTRONICA\22-310-0\22-310-0.SMT*%
%ICAS*%
%MOIN*%
%IPPOS*%
%ASAXBY*%
G74*%FSLAN2X34Y34*%
*
G04 Aperture Definitions ***
*
%ADD10C,0.1260*%
%ADD11C,0.0394*%
%ADD12R,0.0501X0.0404*%
%ADD13R,0.0380X0.0320*%
%ADD14R,0.0404X0.0501*%
%ADD15R,0.0527X0.0630*%
%ADD16R,0.1913X0.1496*%
%ADD17C,0.0590*%
%ADD18R,0.0590X0.0590*%
%ADD19O,0.0787X0.1181*%
%ADD20C,0.0669*%
%ADD21R,0.0669X0.0669*%
%ADD22C,0.0787*%
%ADD23C,0.0512*%
%ADD24C,0.0866*%
%ADD25C,0.0630*%
%ADD26C,0.0551*%
%ADD27R,0.0984X0.0394*%
%ADD28R,0.0400X0.0500*%
%ADD29R,0.0315X0.0354*%
%ADD30R,0.0500X0.0400*%
%ADD31R,0.0320X0.0380*%
%ADD32R,0.0710X0.0400*%
%ADD33R,0.1000X0.0600*%
%ADD34R,0.2760X0.2760*%
%ADD35R,0.0270X0.0500*%
%ADD36O,0.0650X0.0256*%
%ADD37R,0.0236X0.0157*%
%ADD38R,0.0197X0.0157*%
%ADD39R,0.0680X0.1580*%
%ADD40R,0.0680X0.0550*%
%ADD41C,0.0100*%
%ADD42C,0.0250*%
%ADD43C,0.0120*%
%ADD44C,0.0394*%
%ADD45C,0.0400*%
%ADD46C,0.0500*%
%ADD47C,0.0080*%
%ADD48C,0.0394*%
*
G04 Plot Data ***
*
G54D11*
X0009750Y0011750D03*
X0005250Y0012000D03*
Y0012750D03*
X0004750Y0007750D03*
X0005250Y0005500D03*
X0006000Y0002750D03*
X0009750D03*
X0003250Y0005750D03*
X0006250Y0015500D03*
X0001250Y0002250D03*
X0005000Y0013750D03*
X0014000Y0010500D03*
X0009750Y0010750D03*
X0009250Y0013750D03*
X0011000Y0017250D03*
G54D12*
X0002250Y0004650D03*
Y0003850D03*
X-0001250Y0017900D03*
Y0017100D03*
G54D13*
X0003250Y0010720D03*
Y0011280D03*
Y0009780D03*
Y0009220D03*
X0002500Y0010720D03*
Y0011280D03*
X0003250Y0006720D03*
Y0007280D03*
X0004000Y0003970D03*
Y0004530D03*
X0000250D03*
Y0003970D03*
X0001250Y0004530D03*
Y0003970D03*
X0006250Y0001470D03*
Y0002030D03*
X0009750D03*
Y0001470D03*
X0007750Y0002030D03*
Y0001470D03*
X0007500Y0004720D03*
Y0005280D03*
X0004000Y0007280D03*
Y0006720D03*
Y0005220D03*
Y0005780D03*
X0008250Y0005970D03*
Y0006530D03*
X0007500Y0008470D03*
Y0009030D03*
X0012750Y0008720D03*
Y0009280D03*
X0011500Y0008720D03*
Y0009280D03*
X0010250Y0008720D03*
Y0009280D03*
X0013250Y0011780D03*
Y0011220D03*
X0011000Y0014280D03*
Y0013720D03*
X0015750Y0011780D03*
Y0011220D03*
X0014000D03*
Y0011780D03*
X0010000Y0014280D03*
Y0013720D03*
X0005000Y0011280D03*
Y0010720D03*
X0008750Y0010970D03*
Y0011530D03*
X-0000750Y0003970D03*
Y0004530D03*
X0007000Y0001470D03*
Y0002030D03*
X0003750Y0001720D03*
Y0002280D03*
X0005250Y0003970D03*
Y0004530D03*
Y0006780D03*
Y0006220D03*
Y0008470D03*
Y0009030D03*
X0007500Y0005970D03*
Y0006530D03*
X0002250Y0017220D03*
Y0017780D03*
X0003250Y0007970D03*
Y0008530D03*
X0002500Y0012470D03*
Y0013030D03*
G54D14*
X-0000400Y0005250D03*
X0000400D03*
G54D15*
X0012886Y0015663D03*
Y0014825D03*
G54D16*
X0014512Y0015250D03*
G54D17*
X0013463Y0017250D03*
X0012675D03*
X0011250Y-0000750D03*
X0002500Y0020750D03*
X0017000Y0018000D03*
G54D18*
X0014250Y0017250D03*
G54D19*
X0010911Y0002622D03*
X0014588D03*
G54D20*
X-0000242Y0019250D03*
X0013734Y0003492D03*
X0012750D03*
X0011766D03*
X0012750Y0002508D03*
X0013734D03*
G54D21*
X0000742Y0019250D03*
X0010781Y0006508D03*
X0011766Y0002508D03*
G54D22*
X0014718Y0007492D03*
X0013734D03*
X0012750D03*
X0011766D03*
X0010781D03*
X0014718Y0006508D03*
X0013734D03*
X0012750D03*
X0011766D03*
G54D24*
X-0001096Y0019250D03*
X0001596D03*
G54D25*
X0007386Y0002962D03*
Y0003962D03*
X0008386D03*
Y0002962D03*
X0004818Y0015873D03*
X0004982Y0014887D03*
X0003996Y0014723D03*
X0003832Y0015709D03*
X0008362Y0016092D03*
Y0015092D03*
X0007362D03*
Y0016092D03*
G54D27*
X0000500Y0016909D03*
Y0018090D03*
G54D28*
X0002500Y0001550D03*
X0002900Y0002450D03*
X0002100D03*
X0005000Y0001550D03*
X0005400Y0002450D03*
X0004600D03*
X0014750Y0013700D03*
X0014350Y0012800D03*
X0015150D03*
X0013000Y0013700D03*
X0012600Y0012800D03*
X0013400D03*
X0010500Y0016200D03*
X0010100Y0015300D03*
X0010900D03*
G54D29*
X0011500Y0011913D03*
X0011126Y0011087D03*
X0011874D03*
G54D30*
X0014050Y0009250D03*
X0014950Y0008850D03*
Y0009650D03*
G54D31*
X0011530Y0010250D03*
X0010970D03*
G54D32*
X0009250Y0004840D03*
Y0006160D03*
X0009000Y0018410D03*
Y0017090D03*
X0007750Y0018410D03*
Y0017090D03*
G54D33*
X-0001200Y0015900D03*
Y0014100D03*
G54D34*
X0001500Y0015000D03*
G54D35*
X0006000Y0003750D03*
X0006380D03*
X0006750D03*
Y0004770D03*
X0006000D03*
Y0005750D03*
X0006380D03*
X0006750D03*
Y0006770D03*
X0006000D03*
Y0007750D03*
X0006380D03*
X0006750D03*
Y0008770D03*
X0006000D03*
G54D36*
X0001750Y0006250D03*
Y0006750D03*
Y0007250D03*
Y0007750D03*
Y0008250D03*
Y0008750D03*
Y0009250D03*
Y0009750D03*
X-0000650D03*
Y0009250D03*
Y0008750D03*
Y0008250D03*
Y0007750D03*
Y0007250D03*
Y0006750D03*
Y0006250D03*
G54D37*
X0006000Y0011250D03*
Y0010994D03*
Y0010738D03*
X0006709D03*
Y0011250D03*
G54D38*
X0008124Y0010744D03*
Y0011000D03*
Y0011256D03*
X0007376D03*
Y0011000D03*
Y0010744D03*
G54D39*
X-0001300Y0012000D03*
G54D40*
X0001300Y0011100D03*
Y0012000D03*
Y0012900D03*
M02*
