*
G04 Mass Parameters ***
*
G04 Image ***
*
%IND:\UTENTI\00.CAD\00.PROGETTI\METALTRONICA\22-310-0\22-310-0.BOT*%
%ICAS*%
%MOIN*%
%IPPOS*%
%ASAXBY*%
G74*%FSLAN2X34Y34*%
*
G04 Aperture Definitions ***
*
%ADD10C,0.1260*%
%ADD11C,0.0394*%
%ADD12R,0.0501X0.0404*%
%ADD13R,0.0380X0.0320*%
%ADD14R,0.0404X0.0501*%
%ADD15R,0.0527X0.0630*%
%ADD16R,0.1913X0.1496*%
%ADD17C,0.0590*%
%ADD18R,0.0590X0.0590*%
%ADD19O,0.0787X0.1181*%
%ADD20C,0.0669*%
%ADD21R,0.0669X0.0669*%
%ADD22C,0.0787*%
%ADD23C,0.0512*%
%ADD24C,0.0866*%
%ADD25C,0.0630*%
%ADD26C,0.0551*%
%ADD27R,0.0984X0.0394*%
%ADD28R,0.0400X0.0500*%
%ADD29R,0.0315X0.0354*%
%ADD30R,0.0500X0.0400*%
%ADD31R,0.0320X0.0380*%
%ADD32R,0.0710X0.0400*%
%ADD33R,0.1000X0.0600*%
%ADD34R,0.2760X0.2760*%
%ADD35R,0.0270X0.0500*%
%ADD36O,0.0650X0.0256*%
%ADD37R,0.0236X0.0157*%
%ADD38R,0.0197X0.0157*%
%ADD39R,0.0680X0.1580*%
%ADD40R,0.0680X0.0550*%
%ADD41C,0.0100*%
%ADD42C,0.0250*%
%ADD43C,0.0120*%
%ADD44C,0.0394*%
%ADD45C,0.0400*%
%ADD46C,0.0500*%
%ADD47C,0.0080*%
%ADD48C,0.0394*%
*
G04 Plot Data ***
*
G54D41*
G01X0012458Y-0001192D02*
X0012375D01*
Y-0001108D01*
X0012458D01*
Y-0001192D01*
X0012783Y-0000775D02*
X0012825Y-0000692D01*
X0013075D01*
X0013117Y-0000775D01*
Y-0000858D01*
X0013075Y-0000942D01*
X0012825D01*
X0012783Y-0001025D01*
Y-0001108D01*
X0012825Y-0001192D01*
X0013075D01*
X0013117Y-0001108D01*
X0013442Y-0001192D02*
X0013358D01*
Y-0001108D01*
X0013442D01*
Y-0001192D01*
X0013767D02*
X0014058D01*
Y-0000692D01*
X0006982Y0007020D02*
X0005490D01*
X0004612Y0017750D02*
X0003734Y0016871D01*
X0005457Y0017520D02*
X0004380Y0016442D01*
X0006632Y0017730D02*
X0006167D01*
X0008060Y0017750D02*
Y0016419D01*
X0007970Y0017750D02*
Y0016303D01*
X0008150Y0017750D02*
Y0016483D01*
X0004550Y0016612D02*
Y0016228D01*
X0006542Y0017640D02*
X0006077D01*
X0008780Y0017750D02*
Y0016245D01*
X0008330Y0017750D02*
Y0016536D01*
X0014670Y0017730D02*
X0007226D01*
X0006620Y0017750D02*
Y0017718D01*
X0004100Y0018100D02*
Y0017237D01*
X0002860Y0016470D02*
X-0001750D01*
X0004516Y0016200D02*
X0004380D01*
X0004010Y0018190D02*
Y0017147D01*
X0003740Y0015274D02*
Y0015087D01*
X0003389Y0015660D02*
X-0001750D01*
X0003547Y0017218D02*
X0003633Y0016699D01*
X0004280Y0017920D02*
Y0017417D01*
X0006529Y0016650D02*
X0004587D01*
X0006546Y0016560D02*
X0004497D01*
X0004460Y0016522D02*
Y0016137D01*
X0006529Y0016830D02*
X0004767D01*
X0006636Y0016470D02*
X0004407D01*
X0014183Y0003150D02*
X0014049D01*
X0014277Y0003240D02*
X0014125D01*
X0014475Y0003330D02*
X0014170D01*
X0014090Y0003193D02*
Y0002979D01*
X0015450Y0003510D02*
X0014198D01*
X0015450Y0003600D02*
X0014186D01*
X0015450Y0003690D02*
X0014155D01*
X0014000Y0005450D02*
Y0003873D01*
X0015450Y0003780D02*
X0014099D01*
X0013219Y0005670D02*
X0012486D01*
X0015450Y0004230D02*
X0014005D01*
X0015450Y0005400D02*
X0014005D01*
X0015450Y0003870D02*
X0014005D01*
X0015450Y0004050D02*
X0014005D01*
X0015450Y0004140D02*
X0014005D01*
X0013612Y0005998D02*
X0013927Y0005683D01*
X0015450Y0005940D02*
X0013670D01*
X-0000548Y0018900D02*
X-0000656D01*
X0010310Y0007264D02*
Y0001800D01*
X0008605Y0014146D02*
Y0013055D01*
X0008150Y0014701D02*
Y0014608D01*
X0008510Y0014672D02*
Y0014635D01*
X0011825Y0013680D02*
X0008605D01*
X0003674Y0015030D02*
X-0001750D01*
X0008879Y0012060D02*
X0007690D01*
X0010302Y0012843D02*
X0010910Y0012235D01*
X0009059Y0011880D02*
X0007690D01*
X0007310Y0011430D02*
X0005772D01*
X0011825Y0013770D02*
X0008605D01*
X0011825Y0014490D02*
X0008645D01*
X0011825Y0014040D02*
X0008605D01*
X0000230Y0019392D02*
Y0009220D01*
X0010320Y0007740D02*
X0009780D01*
X0010381Y0007830D02*
X0009888D01*
X0009885Y0011670D02*
Y0008234D01*
X0014528Y0008370D02*
X0009885D01*
X0008127Y0003600D02*
X0007644D01*
X0009600Y0003690D02*
X0008737D01*
X0014528Y0008190D02*
X0009915D01*
X0010704Y0008010D02*
X0009956D01*
X0010479Y0007920D02*
X0009937D01*
X0009320Y0011619D02*
Y0008133D01*
X0009628Y0004140D02*
X0008793D01*
X0008960Y0003710D02*
Y0002677D01*
X0009584Y0003710D02*
X0008752D01*
X0011314Y0003600D02*
X0009979D01*
X0013495Y0004320D02*
X0008650D01*
X0009721Y0003600D02*
X0008644D01*
X0000660Y0004500D02*
X0000350D01*
X0007970Y0003803D02*
Y0003121D01*
X0008780Y0003710D02*
Y0003168D01*
X0008419Y0002070D02*
X0000480D01*
X0015450Y0004680D02*
X0014005D01*
X0012060Y0002972D02*
X0011412D01*
X0011840Y0003033D02*
Y0002972D01*
X0012920Y0002075D02*
Y0002029D01*
X0009140Y0006849D02*
Y0004090D01*
X0013010Y0002122D02*
Y0001948D01*
X0011390Y0002043D02*
Y0001800D01*
X0012440Y0002913D02*
Y0002854D01*
X0014313Y0001980D02*
X0012982D01*
X0012060Y0002992D02*
Y0002972D01*
X0009410Y0007788D02*
Y0004090D01*
X0009680Y0007707D02*
Y0004179D01*
X0000415Y0003510D02*
X0000350D01*
X0013563Y0003060D02*
X0012921D01*
X0013420Y0003150D02*
X0013064D01*
X0013344Y0003240D02*
X0013140D01*
X0015070Y0002070D02*
X0014973D01*
X0009770Y0012274D02*
Y0011890D01*
X0009590Y0007706D02*
Y0004098D01*
X0008420Y0002518D02*
Y0002479D01*
X0003920Y0004519D02*
Y0001800D01*
X0005000Y0003707D02*
Y0001800D01*
X0004280Y0015621D02*
Y0015065D01*
X0004370Y0015791D02*
Y0014963D01*
X0003815Y0013373D02*
X0004345Y0012844D01*
X0006529Y0016920D02*
X0004857D01*
X0003200Y0019000D02*
Y0017363D01*
X0008222Y0014670D02*
X0007690D01*
X0008095Y0014146D02*
Y0012950D01*
X0001272Y0019710D02*
X0000630D01*
X0000277Y0019260D02*
X0000222D01*
X0003050Y0019800D02*
X0001716D01*
X0001207Y0019715D02*
X0000630D01*
X0001207Y0018785D02*
X0000277D01*
X-0001570Y0020950D02*
Y0019555D01*
X-0001480Y0018837D02*
Y0009800D01*
X0000277Y0019392D02*
Y0018785D01*
Y0019350D02*
X0000211D01*
X0010717Y0006972D02*
X0010317D01*
X0001245Y0018810D02*
X0001207D01*
X0013640Y0002053D02*
Y0001800D01*
X0012740Y0005984D02*
Y0003956D01*
X0014990Y0006060D02*
Y0003154D01*
X0012887Y0006002D02*
X0013495Y0005394D01*
X0015450Y0004410D02*
X0014005D01*
X0000660Y0007470D02*
X0000350D01*
X0010317Y0006972D02*
Y0006043D01*
X0011246D02*
X0010317D01*
X0011750Y0005984D02*
Y0003956D01*
X0000660Y0006930D02*
X0000350D01*
X0011390Y0006143D02*
Y0003765D01*
X0014528Y0010222D02*
Y0007980D01*
Y0009000D02*
X0012335D01*
X0013910Y0002077D02*
Y0001800D01*
X0013820Y0003035D02*
Y0002964D01*
X0015112Y0002819D02*
Y0002425D01*
X0015450Y0003150D02*
X0014994D01*
X0011825Y0013140D02*
X0010364D01*
X0009950Y0007964D02*
Y0004211D01*
X0012200Y0002031D02*
Y0001800D01*
X0009500Y0007730D02*
Y0004090D01*
X0009230Y0017750D02*
Y0012430D01*
X0012470Y0002943D02*
Y0002878D01*
X0011480Y0002043D02*
Y0001800D01*
X0010388Y0002819D02*
Y0002425D01*
X0009375Y0011564D02*
Y0008234D01*
X0015450Y0004590D02*
X0014005D01*
X0004612Y0017750D02*
X0004450D01*
X0002832Y0017190D02*
X-0001750D01*
X0003243Y0017370D02*
X-0001750D01*
X0014675Y0017675D02*
X0013825D01*
X0014675Y0016825D02*
X0013825D01*
X0014675Y0017675D02*
Y0016825D01*
X0003560Y0018640D02*
Y0017140D01*
X-0000350Y0009800D02*
X-0001750D01*
X-0000350D02*
X0000350Y0009100D01*
X0006982Y0003150D02*
X0000958D01*
X0000350Y0002200D02*
X0000750Y0001800D01*
X0011495Y0003870D02*
X0010175D01*
X0015450Y0002450D02*
X0014800Y0001800D01*
X0015450Y0016950D02*
Y0002450D01*
X0014650Y0017750D02*
X0015450Y0016950D01*
X0002890Y0016290D02*
X-0001750D01*
X0003050Y0019150D02*
X0004450Y0017750D01*
X0003050Y0020100D02*
Y0019150D01*
X0002200Y0020950D02*
X0003050Y0020100D01*
X0002200Y0020950D02*
X-0001750D01*
Y0009800D01*
X0011660Y0002043D02*
Y0001800D01*
X0015440Y0016960D02*
Y0002440D01*
X0015350Y0017050D02*
Y0002350D01*
X0015080Y0002245D02*
Y0002080D01*
X0015450Y0003420D02*
X0014193D01*
X0015170Y0006243D02*
Y0002170D01*
X0013825Y0017028D02*
Y0016825D01*
X0015450Y0005850D02*
X0013760D01*
X0013460Y0002132D02*
Y0001800D01*
X0015260Y0017140D02*
Y0002260D01*
X0014540Y0001904D02*
Y0001800D01*
X0014450Y0001920D02*
Y0001800D01*
X0014005Y0005500D02*
Y0003870D01*
X0013347Y0002250D02*
X0013137D01*
X0014180Y0003360D02*
Y0003146D01*
X0014090Y0002208D02*
Y0001800D01*
X0014000Y0002126D02*
Y0001800D01*
X0014890Y0001890D02*
X0013045D01*
X0015450Y0005760D02*
X0013850D01*
X0015450Y0005670D02*
X0013940D01*
X0013550Y0002081D02*
Y0001800D01*
X0012316Y0003326D02*
X0012118Y0003128D01*
X0015160Y0002160D02*
X0015040D01*
X0013820Y0002051D02*
Y0001800D01*
X0013190Y0002358D02*
Y0001800D01*
X0012110Y0003180D02*
Y0003120D01*
X0012188Y0002043D02*
X0012428Y0001803D01*
X0014800Y0001800D02*
X0013073D01*
X0013495Y0004050D02*
X0010140D01*
X0013495Y0004140D02*
X0010071D01*
X0008419Y0002160D02*
X0000390D01*
X0008960Y0006716D02*
Y0004090D01*
X0009770Y0007735D02*
Y0004217D01*
X0015450Y0004950D02*
X0014005D01*
X0012110Y0002043D02*
Y0001800D01*
X0012020Y0002043D02*
Y0001800D01*
X0012072Y0003060D02*
X0011937D01*
X0014630Y0001903D02*
Y0001800D01*
X0011750Y0002043D02*
Y0001800D01*
X0012380Y0001851D02*
Y0001800D01*
X0015450Y0005220D02*
X0014005D01*
X0007114Y0002610D02*
X0000350D01*
X0007430Y0002519D02*
Y0001800D01*
X0011120Y0001945D02*
Y0001800D01*
X0011030Y0001915D02*
Y0001800D01*
X0010940Y0001902D02*
Y0001800D01*
X0009230Y0003710D02*
Y0001800D01*
X0010760Y0001924D02*
Y0001800D01*
X0010670Y0001960D02*
Y0001800D01*
X0010580Y0002020D02*
Y0001800D01*
X0010490Y0006043D02*
Y0003129D01*
X0010670Y0010916D02*
Y0008004D01*
X0011345Y0003690D02*
X0010100D01*
X0010220Y0010827D02*
Y0001800D01*
X0009219Y0002477D02*
Y0001800D01*
X0008330Y0002521D02*
Y0001800D01*
X0007880Y0017750D02*
Y0001800D01*
X0009860Y0003573D02*
Y0001800D01*
X0009770Y0003583D02*
Y0001800D01*
X0012290Y0001941D02*
Y0001800D01*
X0010130Y0003732D02*
Y0001800D01*
X0008240Y0002542D02*
Y0001800D01*
X0008150Y0002585D02*
Y0001800D01*
X0009320Y0003710D02*
Y0001800D01*
X0009140Y0003710D02*
Y0002556D01*
X0003554Y0014670D02*
X-0001750D01*
X0003160Y0011880D02*
X-0001750D01*
X0009050Y0003710D02*
Y0002646D01*
X0009584Y0004090D02*
X0008812D01*
X0009019Y0002677D02*
X0008727D01*
X0008461Y0002520D02*
X0008434D01*
X0008780Y0002756D02*
Y0002677D01*
X0012341Y0001890D02*
X0009219D01*
X0010636Y0001980D02*
X0009219D01*
X0010040Y0003634D02*
Y0001800D01*
X0010400Y0010773D02*
Y0007851D01*
X0009375Y0009450D02*
X0007790D01*
X0000392Y0003240D02*
X0000350D01*
X0009410Y0003710D02*
Y0001800D01*
X0007790Y0002776D02*
Y0001800D01*
X0007700Y0002647D02*
Y0001800D01*
X0007610Y0002578D02*
Y0001800D01*
X0006423Y0009450D02*
X0005823D01*
X0007970Y0002803D02*
Y0001800D01*
X0007340Y0002520D02*
Y0001800D01*
X0007250Y0002538D02*
Y0001800D01*
X0007160Y0002579D02*
Y0001800D01*
X0007070Y0006983D02*
Y0004276D01*
X0010282Y0007650D02*
X0007069D01*
X0009375Y0009180D02*
X0006940D01*
Y0009184D02*
Y0007779D01*
X0006710Y0016396D02*
Y0012300D01*
X0006800Y0003707D02*
Y0001800D01*
X0004280Y0004159D02*
Y0001800D01*
X0004640Y0003799D02*
Y0001800D01*
X0006350Y0017750D02*
Y0004217D01*
X0006260Y0017750D02*
Y0004217D01*
Y0003707D02*
Y0001800D01*
X0006170Y0003707D02*
Y0001800D01*
X0004370Y0017830D02*
Y0017507D01*
X0006080Y0003707D02*
Y0001800D01*
X0004855Y0012950D02*
Y0007104D01*
X0005810Y0003707D02*
Y0001800D01*
X0005490Y0007034D02*
Y0006500D01*
X0007021Y0003707D02*
X0004837D01*
X0004820Y0006658D02*
Y0006390D01*
X0006440Y0009347D02*
Y0004217D01*
X0011874Y0005940D02*
X0004305D01*
X0004010Y0004429D02*
Y0001800D01*
X0004614Y0003825D02*
X0004655Y0003784D01*
X0005090Y0003707D02*
Y0001800D01*
X0004730Y0003731D02*
Y0001800D01*
X0004370Y0006010D02*
Y0004790D01*
X0004305Y0006010D02*
Y0004855D01*
Y0006010D02*
Y0004855D01*
X0005720Y0003707D02*
Y0001800D01*
X0005180Y0003707D02*
Y0001800D01*
X0006529Y0016740D02*
X0004677D01*
X0003560Y0012950D02*
Y0011559D01*
X0007070Y0002649D02*
Y0001800D01*
X0003650Y0010931D02*
Y0001800D01*
X0003560Y0011021D02*
Y0001800D01*
X0003470Y0011111D02*
Y0001800D01*
X0003110Y0012978D02*
Y0001800D01*
X0000660Y0007740D02*
X0000350D01*
X0002930Y0016053D02*
Y0001800D01*
X0002840Y0008249D02*
Y0001800D01*
X0002750Y0008142D02*
Y0001800D01*
X0002660Y0020490D02*
Y0008707D01*
X0001310Y0018765D02*
Y0008440D01*
X0003860Y0009090D02*
X0000350D01*
X0002390Y0008060D02*
Y0001800D01*
X0003050Y0019890D02*
X0000619D01*
X0002300Y0008060D02*
Y0001800D01*
X0002210Y0008060D02*
Y0001800D01*
X0002120Y0008060D02*
Y0001800D01*
X0002030Y0008060D02*
Y0001800D01*
X0001940Y0008060D02*
Y0001800D01*
X0001850Y0008060D02*
Y0001800D01*
X0001760Y0008060D02*
Y0001800D01*
X0001670Y0008060D02*
Y0001800D01*
X0001580Y0008060D02*
Y0001800D01*
X0001490Y0008060D02*
Y0001800D01*
X0001406Y0018720D02*
X-0000907D01*
X0001310Y0008060D02*
Y0001800D01*
X0001220Y0008060D02*
Y0001800D01*
X0001040Y0008060D02*
Y0003500D01*
X0004339Y0004050D02*
X0001040D01*
X0000660Y0005670D02*
X0000350D01*
X0000660Y0005580D02*
X0000350D01*
Y0008492D02*
Y0002200D01*
X0000660Y0005490D02*
X0000350D01*
X0000680Y0003024D02*
Y0001870D01*
X0002920Y0016110D02*
X-0001750D01*
X0000277Y0018810D02*
X-0000093D01*
X0000140Y0018986D02*
Y0009310D01*
X0000050Y0018889D02*
Y0009400D01*
X-0000040Y0018832D02*
Y0009490D01*
X-0000130Y0018799D02*
Y0009580D01*
X-0000220Y0018786D02*
Y0009670D01*
X-0000310Y0018790D02*
Y0009760D01*
X-0000392Y0018810D02*
X-0000745D01*
X-0000400Y0018813D02*
Y0009800D01*
X-0000580Y0018931D02*
Y0009800D01*
X-0000670Y0018883D02*
Y0009800D01*
X-0000760Y0018799D02*
Y0009800D01*
X-0000850Y0018744D02*
Y0009800D01*
X-0000940Y0018709D02*
Y0009800D01*
X-0001030Y0018691D02*
Y0009800D01*
X-0001120Y0018687D02*
Y0009800D01*
X-0001210Y0018698D02*
Y0009800D01*
X-0001300Y0018725D02*
Y0009800D01*
X-0001390Y0018769D02*
Y0009800D01*
X-0001570Y0018945D02*
Y0009800D01*
X0013406Y0002179D02*
X0013734Y0002508D01*
X-0000001Y0020070D02*
X-0001750D01*
X0002270Y0020880D02*
X-0001750D01*
X0002360Y0020790D02*
X-0001750D01*
X0002450Y0020700D02*
X-0001750D01*
X0002540Y0020610D02*
X-0001750D01*
X0013495Y0004770D02*
X0004390D01*
X0002630Y0020520D02*
X-0001750D01*
X0002720Y0020430D02*
X-0001750D01*
X0002810Y0020340D02*
X-0001750D01*
X0003300Y0018900D02*
X0002037D01*
X-0001651Y0019350D02*
X-0001750D01*
X0003050Y0019980D02*
X0000578D01*
X0003210Y0018990D02*
X0002096D01*
X-0001217Y0019800D02*
X-0001750D01*
X-0001421Y0019710D02*
X-0001750D01*
X-0001521Y0019620D02*
X-0001750D01*
X-0001585Y0019530D02*
X-0001750D01*
X0003390Y0018810D02*
X0001947D01*
X-0000119Y0019890D02*
X-0001750D01*
X-0001659Y0019260D02*
X-0001750D01*
X-0001633Y0019080D02*
X-0001750D01*
X-0001596Y0018990D02*
X-0001750D01*
X-0001537Y0018900D02*
X-0001750D01*
X0002905Y0016200D02*
X-0001750D01*
X-0001286Y0018720D02*
X-0001750D01*
X0003570Y0018630D02*
X-0001750D01*
X0003660Y0018540D02*
X-0001750D01*
X0004380Y0016442D02*
Y0015952D01*
X0007021Y0004217D02*
X0004969D01*
X0003840Y0018360D02*
X-0001750D01*
X0004020Y0018180D02*
X-0001750D01*
X0004110Y0018090D02*
X-0001750D01*
X0004200Y0018000D02*
X-0001750D01*
X0004290Y0017910D02*
X-0001750D01*
X0014990Y0002089D02*
Y0001990D01*
X0009050Y0006763D02*
Y0004090D01*
X0009860Y0007798D02*
Y0004226D01*
X0004380Y0017820D02*
X-0001750D01*
X0004592Y0017730D02*
X-0001750D01*
X0004502Y0017640D02*
X-0001750D01*
X0004412Y0017550D02*
X-0001750D01*
X0004322Y0017460D02*
X-0001750D01*
X0002896Y0017280D02*
X-0001750D01*
X0002767Y0017100D02*
X-0001750D01*
X0002771Y0017010D02*
X-0001750D01*
X0002786Y0016920D02*
X-0001750D01*
X0007020Y0016377D02*
X0006729D01*
X0002816Y0016740D02*
X-0001750D01*
X0002830Y0016650D02*
X-0001750D01*
X0009950Y0003589D02*
Y0001800D01*
X0007329Y0016577D02*
X0007282Y0016530D01*
X0003160Y0011610D02*
X-0001750D01*
X0003740Y0008307D02*
Y0001800D01*
X0006530Y0017750D02*
Y0012030D01*
X0003406Y0015840D02*
X-0001750D01*
X0009590Y0003702D02*
Y0001800D01*
X0007520Y0002538D02*
Y0001800D01*
X0003388Y0015750D02*
X-0001750D01*
X0003409Y0015570D02*
X-0001750D01*
X0004550Y0003839D02*
Y0001800D01*
X0003450Y0015480D02*
X-0001750D01*
X0003657Y0015300D02*
X-0001750D01*
X0003540Y0012934D02*
Y0011579D01*
X0004676Y0015210D02*
X-0001750D01*
X0003795Y0015120D02*
X-0001750D01*
X0003569Y0014850D02*
X-0001750D01*
X0003552Y0014760D02*
X-0001750D01*
X0003574Y0014580D02*
X-0001750D01*
X0003616Y0014490D02*
X-0001750D01*
X0007310Y0013950D02*
X0004251D01*
X0003689Y0014400D02*
X-0001750D01*
X0008150Y0012792D02*
Y0004340D01*
X0003741Y0014220D02*
X-0001750D01*
X0003741Y0014130D02*
X-0001750D01*
X0003741Y0014040D02*
X-0001750D01*
X0003741Y0013950D02*
X-0001750D01*
X0003741Y0013860D02*
X-0001750D01*
X0003741Y0013770D02*
X-0001750D01*
X0003741Y0013680D02*
X-0001750D01*
X0003200Y0011383D02*
Y0001800D01*
X0013280Y0005609D02*
Y0003589D01*
X0003221Y0013500D02*
X-0001750D01*
X0003100Y0013410D02*
X-0001750D01*
X0003046Y0013320D02*
X-0001750D01*
X0003025Y0013230D02*
X-0001750D01*
X0003128Y0012960D02*
X-0001750D01*
X0003160Y0012870D02*
X-0001750D01*
X0003160Y0012780D02*
X-0001750D01*
X0003160Y0012600D02*
X-0001750D01*
X0003160Y0012510D02*
X-0001750D01*
X0003160Y0012420D02*
X-0001750D01*
X0003160Y0012330D02*
X-0001750D01*
X0003160Y0012240D02*
X-0001750D01*
X0003741Y0014358D02*
Y0013554D01*
X0003160Y0012060D02*
X-0001750D01*
X0003160Y0011970D02*
X-0001750D01*
X0003160Y0011790D02*
X-0001750D01*
X0003160Y0011700D02*
X-0001750D01*
X0003380Y0011201D02*
Y0001800D01*
X0003290Y0011291D02*
Y0001800D01*
X0005186Y0011340D02*
X0004855D01*
X0003421Y0011160D02*
X-0001750D01*
X0003241Y0011340D02*
X-0001750D01*
X0003511Y0011070D02*
X-0001750D01*
X0003691Y0010890D02*
X-0001750D01*
X0003727Y0010800D02*
X-0001750D01*
X0003726Y0010710D02*
X-0001750D01*
X0003750Y0010620D02*
X-0001750D01*
X0003699Y0011430D02*
X0003689D01*
X0008870Y0003710D02*
Y0002677D01*
X0003808Y0010530D02*
X-0001750D01*
X0003860Y0010080D02*
X-0001750D01*
X0003860Y0009990D02*
X-0001750D01*
X0003860Y0009900D02*
X-0001750D01*
X0003860Y0009810D02*
X-0001750D01*
X0003860Y0009720D02*
X-0000270D01*
X0003860Y0009630D02*
X-0000180D01*
X0003860Y0009540D02*
X-0000090D01*
X0003860Y0009450D02*
X0000000D01*
X0003860Y0009360D02*
X0000090D01*
X0003860Y0010350D02*
X-0001750D01*
X0002300Y0020850D02*
Y0008610D01*
X0003860Y0010440D02*
X-0001750D01*
X0006890Y0003707D02*
Y0001800D01*
X0009320Y0007927D02*
Y0004090D01*
X0006440Y0017750D02*
Y0009553D01*
X0014360Y0006126D02*
Y0003290D01*
X0013460Y0005429D02*
Y0003867D01*
X0012380Y0005614D02*
Y0003773D01*
X0010400Y0002312D02*
Y0001800D01*
X0003795Y0006200D02*
Y0004750D01*
X0001220Y0018831D02*
Y0008440D01*
X0000660Y0008370D02*
X0000350D01*
X0000660Y0007920D02*
X0000350D01*
X0000660Y0007830D02*
X0000350D01*
X0010388Y0002520D02*
X0009176D01*
X0012290Y0005596D02*
Y0003558D01*
X0000660Y0007380D02*
X0000350D01*
X0000660Y0007200D02*
X0000350D01*
X0000660Y0007110D02*
X0000350D01*
X0011306Y0003420D02*
X0001022D01*
X0001040Y0003500D02*
Y0001800D01*
X0000660Y0006570D02*
X0000350D01*
X0000660Y0006480D02*
X0000350D01*
X0000660Y0006390D02*
X0000350D01*
X0014270Y0006237D02*
Y0003234D01*
X0000660Y0006120D02*
X0000350D01*
X0000660Y0006030D02*
X0000350D01*
X0000660Y0005940D02*
X0000350D01*
X0011840Y0002043D02*
Y0001800D01*
X0000660Y0005760D02*
X0000350D01*
X0000950Y0003140D02*
Y0001800D01*
X0000770Y0003031D02*
Y0001800D01*
X0000410Y0003199D02*
Y0002140D01*
X0001130Y0008060D02*
Y0001800D01*
X0000490Y0003600D02*
X0000350D01*
X0000660Y0005040D02*
X0000350D01*
X0000660Y0004950D02*
X0000350D01*
X0000660Y0004860D02*
X0000350D01*
X0000660Y0004770D02*
X0000350D01*
X0000660Y0004680D02*
X0000350D01*
X0005630Y0009200D02*
Y0004217D01*
X0000660Y0004590D02*
X0000350D01*
X0000660Y0004410D02*
X0000350D01*
X0006980Y0003707D02*
Y0003145D01*
X0000660Y0005310D02*
X0000350D01*
X0008172Y0012767D02*
X0009375Y0011564D01*
X0011301Y0002075D02*
Y0002043D01*
X0010490Y0002114D02*
Y0001800D01*
X0000660Y0004320D02*
X0000350D01*
X0000660Y0004230D02*
X0000350D01*
X0000660Y0004140D02*
X0000350D01*
X0000660Y0003870D02*
X0000350D01*
X0000660Y0005220D02*
X0000350D01*
X0000660Y0005130D02*
X0000350D01*
X0015450D02*
X0014005D01*
X0000660Y0003690D02*
X0000350D01*
X0000374Y0003330D02*
X0000350D01*
X0000442Y0003150D02*
X0000350D01*
X0006941Y0002970D02*
X0000350D01*
X0006948Y0002880D02*
X0000350D01*
X0006975Y0002790D02*
X0000350D01*
X0007026Y0002700D02*
X0000350D01*
X0008419Y0001800D02*
X0000750D01*
X0007337Y0002520D02*
X0000350D01*
X0008419Y0002430D02*
X0000350D01*
X0008419Y0002340D02*
X0000350D01*
X0008419Y0002250D02*
X0000350D01*
X0006652Y0017750D02*
X0006187D01*
X-0001660Y0020950D02*
Y0009800D01*
X0012380Y0008591D02*
Y0007862D01*
X0012290Y0008470D02*
Y0007742D01*
X0012200Y0008416D02*
Y0007784D01*
X0012110Y0008395D02*
Y0007886D01*
X0012020Y0008399D02*
Y0007950D01*
X0015450Y0009360D02*
X0014908D01*
X0011750Y0017750D02*
Y0008015D01*
X0011660Y0017750D02*
Y0008005D01*
X0011570Y0017750D02*
Y0007978D01*
X0011480Y0017750D02*
Y0007931D01*
X0011390Y0017750D02*
Y0007857D01*
X0012673Y0008010D02*
X0011842D01*
X0012448Y0007920D02*
X0012067D01*
X0012350Y0007830D02*
X0012165D01*
X0012289Y0007740D02*
X0012227D01*
X0012920Y0016902D02*
Y0010330D01*
X0013190Y0009879D02*
Y0007776D01*
X0012552Y0009540D02*
X0012335D01*
X0013010Y0009602D02*
Y0007946D01*
X0012920Y0009521D02*
Y0007987D01*
X0012830Y0009483D02*
Y0008009D01*
X0012740Y0009473D02*
Y0008015D01*
X0012650Y0009489D02*
Y0008006D01*
X0012560Y0009534D02*
Y0007980D01*
X0011825Y0015216D02*
Y0008924D01*
X0012335Y0015216D02*
Y0008924D01*
X0013657Y0008010D02*
X0012827D01*
X0013432Y0007920D02*
X0013052D01*
X0013334Y0007830D02*
X0013150D01*
X0013273Y0007740D02*
X0013211D01*
X0012740Y0016830D02*
Y0010150D01*
X0014180Y0010869D02*
Y0007767D01*
X0014090Y0010779D02*
Y0007876D01*
X0014000Y0010689D02*
Y0007943D01*
X0013910Y0010599D02*
Y0007985D01*
X0013820Y0010509D02*
Y0008008D01*
X0013730Y0010419D02*
Y0008015D01*
X0013640Y0010329D02*
Y0008007D01*
X0013550Y0010239D02*
Y0007982D01*
X0013460Y0010149D02*
Y0007938D01*
X0013370Y0010059D02*
Y0007868D01*
X0014528Y0009180D02*
X0012335D01*
X0014416Y0007920D02*
X0014036D01*
X0014318Y0007830D02*
X0014134D01*
X0014257Y0007740D02*
X0014195D01*
X0014235Y0007290D02*
X0014217D01*
X0014283Y0007200D02*
X0014169D01*
X0014360Y0007110D02*
X0014092D01*
X0014491Y0007020D02*
X0013961D01*
X0015450Y0009270D02*
X0014908D01*
X0015170Y0017230D02*
Y0007757D01*
X0012939Y0010350D02*
X0012335D01*
X0014990Y0010349D02*
Y0007940D01*
X0014528Y0008010D02*
X0013811D01*
X0015450Y0007020D02*
X0014945D01*
X0011300Y0017750D02*
Y0007731D01*
X0015450Y0006660D02*
X0015219D01*
X0015450Y0008460D02*
X0014908D01*
X0012650Y0016826D02*
Y0010111D01*
X0014900Y0017500D02*
Y0010758D01*
X0015450Y0009180D02*
X0014908D01*
X0015450Y0007920D02*
X0015020D01*
X0015450Y0007830D02*
X0015118D01*
X0015450Y0007740D02*
X0015179D01*
X0015450Y0007650D02*
X0015217D01*
X0015450Y0007560D02*
X0015237D01*
X0015450Y0007470D02*
X0015241D01*
X0015450Y0007380D02*
X0015230D01*
X0015450Y0007290D02*
X0015201D01*
X0015450Y0006390D02*
X0015228D01*
X0014980Y0001980D02*
X0014864D01*
X0015450Y0002970D02*
X0015089D01*
X0014180Y0002097D02*
Y0001800D01*
X0015450Y0003330D02*
X0014701D01*
X0015450Y0003240D02*
X0014899D01*
X0014900Y0002004D02*
Y0001900D01*
X0015080Y0006129D02*
Y0002999D01*
X0014900Y0006016D02*
Y0003239D01*
X0014810Y0005992D02*
Y0003293D01*
X0014720Y0005984D02*
Y0003325D01*
X0014630Y0005991D02*
Y0003341D01*
X0014540Y0006015D02*
Y0003340D01*
X0014450Y0006058D02*
Y0003324D01*
X0014270Y0002009D02*
Y0001800D01*
X0013280Y0002410D02*
Y0001800D01*
X0009680Y0003621D02*
Y0001800D01*
X0014087Y0002970D02*
X0013781D01*
X0014068Y0002880D02*
X0014012D01*
X0015450D02*
X0015108D01*
X0015450Y0002790D02*
X0015112D01*
X0015450Y0002700D02*
X0015112D01*
X0015450Y0002610D02*
X0015112D01*
X0015450Y0002520D02*
X0015112D01*
X0015430Y0002430D02*
X0015112D01*
X0015340Y0002340D02*
X0015105D01*
X0015250Y0002250D02*
X0015082D01*
X0014000Y0003111D02*
Y0002889D01*
X0013910Y0003062D02*
Y0002938D01*
X0013730Y0003027D02*
Y0002972D01*
X0013640Y0003037D02*
Y0002962D01*
X0013550Y0003065D02*
Y0002934D01*
X0013460Y0003117D02*
Y0002883D01*
X0013370Y0003203D02*
Y0002796D01*
X0013280Y0003394D02*
Y0002605D01*
X0014360Y0001954D02*
Y0001800D01*
X0014137Y0002160D02*
X0014042D01*
X0014204Y0002070D02*
X0013890D01*
X0013688Y0002970D02*
X0012796D01*
X0013456Y0002880D02*
X0013028D01*
X0013365Y0002790D02*
X0013119D01*
X0013311Y0002700D02*
X0013173D01*
X0013281Y0002610D02*
X0013203D01*
X0013270Y0002520D02*
X0013214D01*
X0013190Y0003342D02*
Y0002657D01*
X0013100Y0003186D02*
Y0002813D01*
X0013010Y0003107D02*
Y0002893D01*
X0013276Y0002430D02*
X0013208D01*
X0013301Y0002340D02*
X0013183D01*
X0012920Y0003059D02*
Y0002940D01*
X0012830Y0003034D02*
Y0002965D01*
X0012740Y0003027D02*
Y0002972D01*
X0012650Y0003038D02*
Y0002961D01*
X0008969Y0011970D02*
X0007690D01*
X0012560Y0003033D02*
Y0002932D01*
X0013370Y0002219D02*
Y0001800D01*
X0013426Y0002160D02*
X0013058D01*
X0012472Y0002880D02*
X0012440D01*
X0012200Y0003327D02*
Y0003211D01*
X0012020Y0003103D02*
Y0002972D01*
X0011930Y0003057D02*
Y0002972D01*
X0011750Y0003027D02*
Y0002972D01*
X0011660Y0003039D02*
Y0002972D01*
X0011570Y0003070D02*
Y0002972D01*
X0011480Y0003125D02*
Y0002972D01*
X0011390Y0003218D02*
Y0003031D01*
X0011480Y0006069D02*
Y0003858D01*
X0010400Y0006043D02*
Y0002931D01*
X0011330Y0003330D02*
X0011024D01*
X0011375Y0003240D02*
X0011222D01*
X0011451Y0003150D02*
X0011317D01*
X0013100Y0002202D02*
Y0001800D01*
X0013578Y0002070D02*
X0012906D01*
X0011401Y0003780D02*
X0010154D01*
X0012703Y0002970D02*
X0012497D01*
X0012188Y0002043D02*
X0011301D01*
X0013495Y0004230D02*
X0008741D01*
X0008870Y0006694D02*
Y0004090D01*
X0009680Y0012281D02*
Y0011980D01*
X0012251Y0001980D02*
X0011187D01*
X0011570Y0002043D02*
Y0001800D01*
X0010490Y0010786D02*
Y0007927D01*
X0011594Y0003060D02*
X0011376D01*
X0000660Y0006300D02*
X0000350D01*
X0011120Y0006043D02*
Y0003299D01*
X0011030Y0006043D02*
Y0003329D01*
X0010940Y0006043D02*
Y0003341D01*
X0010850Y0006043D02*
Y0003339D01*
X0010760Y0006043D02*
Y0003320D01*
X0010670Y0006043D02*
Y0003283D01*
X0010580Y0006043D02*
Y0003224D01*
X0012480Y0003870D02*
X0012036D01*
X0012385Y0003780D02*
X0012130D01*
X0012329Y0003690D02*
X0012186D01*
X0012298Y0003600D02*
X0012217D01*
X0012286Y0003510D02*
X0012230D01*
X0012291Y0003420D02*
X0012225D01*
X0012314Y0003330D02*
X0012201D01*
X0012584Y0003058D02*
X0012440Y0002913D01*
X0012229Y0003240D02*
X0012156D01*
X0012139Y0003150D02*
X0012080D01*
X0011210Y0006043D02*
Y0003249D01*
X0011285Y0006300D02*
X0011246D01*
X0012200Y0005599D02*
Y0003657D01*
X0012110Y0005624D02*
Y0003804D01*
X0012020Y0005676D02*
Y0003881D01*
X0011255Y0006390D02*
X0011246D01*
X0011840Y0005989D02*
Y0003951D01*
X0011660Y0005995D02*
Y0003944D01*
X0011570Y0006022D02*
Y0003913D01*
X0013464Y0003870D02*
X0013020D01*
X0013370Y0003780D02*
X0013114D01*
X0013314Y0003690D02*
X0013170D01*
X0013282Y0003600D02*
X0013202D01*
X0013270Y0003510D02*
X0013214D01*
X0013275Y0003420D02*
X0013209D01*
X0013299Y0003330D02*
X0013185D01*
X0000277Y0019080D02*
X0000190D01*
X0013190Y0005699D02*
Y0003641D01*
X0012830Y0005990D02*
Y0003950D01*
X0011246Y0006443D02*
Y0006043D01*
X0012560Y0005741D02*
Y0003916D01*
X0012470Y0005658D02*
Y0003863D01*
X0014810Y0001951D02*
Y0001810D01*
X0014180Y0006233D02*
Y0003623D01*
X0014090Y0006123D02*
Y0003791D01*
X0013495Y0005394D02*
Y0003890D01*
X0013100Y0005789D02*
Y0003797D01*
X0012920Y0005969D02*
Y0003924D01*
X0015450Y0004500D02*
X0014005D01*
X0013010Y0017750D02*
Y0017512D01*
X0012920Y0017750D02*
Y0017597D01*
X0012830Y0017750D02*
Y0017646D01*
X0012740Y0017750D02*
Y0017670D01*
X0012650Y0017750D02*
Y0017674D01*
X0012560Y0017750D02*
Y0017659D01*
X0012470Y0017750D02*
Y0017622D01*
X0012380Y0017750D02*
Y0017555D01*
X0013294Y0017640D02*
X0012844D01*
X0013161Y0017550D02*
X0012976D01*
X0013093Y0017460D02*
X0013045D01*
X0013112Y0017010D02*
X0013026D01*
X0013195Y0016920D02*
X0012943D01*
X0013398Y0016830D02*
X0012740D01*
X0012290Y0017750D02*
Y0017429D01*
X0013820Y0017750D02*
Y0017480D01*
X0013730Y0017750D02*
Y0017580D01*
X0013640Y0017750D02*
Y0017636D01*
X0013550Y0017750D02*
Y0017666D01*
X0013460Y0017750D02*
Y0017675D01*
X0013370Y0017750D02*
Y0017665D01*
X0013280Y0017750D02*
Y0017634D01*
X0013190Y0017750D02*
Y0017576D01*
X0013825Y0017640D02*
X0013631D01*
X0013825Y0017550D02*
X0013764D01*
X0013825Y0017010D02*
X0013813D01*
X0013825Y0016920D02*
X0013730D01*
X0013100Y0017750D02*
Y0017471D01*
X0013825Y0017675D02*
Y0017472D01*
X0015450Y0016830D02*
X0013528D01*
X0014630Y0017750D02*
Y0017675D01*
X0014540Y0017750D02*
Y0017675D01*
X0014450Y0017750D02*
Y0017675D01*
X0014360Y0017750D02*
Y0017675D01*
X0014270Y0017750D02*
Y0017675D01*
X0014180Y0017750D02*
Y0017675D01*
X0014090Y0017750D02*
Y0017675D01*
X0014000Y0017750D02*
Y0017675D01*
X0013910Y0017750D02*
Y0017675D01*
X0014760Y0017640D02*
X0014675D01*
X0014850Y0017550D02*
X0014675D01*
X0014940Y0017460D02*
X0014675D01*
X0015030Y0017370D02*
X0014675D01*
X0015120Y0017280D02*
X0014675D01*
X0015210Y0017190D02*
X0014675D01*
X0015300Y0017100D02*
X0014675D01*
X0015390Y0017010D02*
X0014675D01*
X0015450Y0016920D02*
X0014675D01*
X0004550Y0017750D02*
Y0017687D01*
X0015450Y0003060D02*
X0015053D01*
X0003480Y0018720D02*
X0001786D01*
X0007071Y0003277D02*
X0007386Y0002962D01*
X0007700Y0002648D02*
X0007386Y0002962D01*
X0007071Y0002648D02*
X0007386Y0002962D01*
X0007700Y0003277D02*
X0007386Y0002962D01*
X-0000571Y0019578D02*
X-0000242Y0019250D01*
X0000086Y0018921D02*
X-0000242Y0019250D01*
X-0000571Y0018921D02*
X-0000242Y0019250D01*
X-0000130Y0019711D02*
Y0019701D01*
X0015088Y0006137D02*
X0014718Y0006508D01*
X0014348Y0006878D02*
X0014718Y0006508D01*
X0015088Y0006878D02*
X0014718Y0006508D01*
X0014348Y0006137D02*
X0014718Y0006508D01*
X0014063Y0002179D02*
X0013734Y0002508D01*
X0013406Y0002836D02*
X0013734Y0002508D01*
X0014123Y0003060D02*
X0013905D01*
X0002990Y0020160D02*
X0000298D01*
X0014720Y0001918D02*
Y0001800D01*
X0008419Y0001890D02*
X0000660D01*
X0002922Y0017317D02*
X0002758Y0017087D01*
X0003317Y0017382D02*
X0002922Y0017317D01*
X0003317Y0017382D02*
X0003547Y0017218D01*
X0004190Y0018010D02*
Y0017327D01*
X0003830Y0015264D02*
Y0015136D01*
X0003650Y0018550D02*
Y0016748D01*
X0002930Y0016051D02*
X0003160Y0015886D01*
X0002758Y0017087D02*
X0002930Y0016051D01*
X0006652Y0017750D02*
X0006529Y0017627D01*
X0007329D02*
Y0016577D01*
X0002845Y0016560D02*
X-0001750D01*
X0006187Y0017750D02*
X0006071Y0017634D01*
X0006529Y0016577D02*
X0006729Y0016377D01*
X0006529Y0017627D02*
Y0016577D01*
X0010850Y0001905D02*
Y0001800D01*
X0007951Y0003060D02*
X0007820D01*
X0008466Y0002524D02*
X0008419Y0002477D01*
X0009019Y0002677D02*
X0009219Y0002477D01*
X0008419D02*
Y0001800D01*
X0003795Y0006660D02*
X0001040D01*
X0003750Y0008280D02*
X0002854D01*
X0003650Y0013071D02*
Y0011469D01*
X0003601Y0010980D02*
X-0001750D01*
X0003540Y0011579D02*
X0003705Y0011413D01*
X0003680Y0011520D02*
X0003599D01*
X0003331Y0011250D02*
X-0001750D01*
X0003860Y0008820D02*
X0000869D01*
X0003216Y0011366D02*
X0003737Y0010844D01*
X0003860Y0010170D02*
X-0001750D01*
X0003060Y0013050D02*
X-0001750D01*
X0004229Y0012960D02*
X0003571D01*
X0004139Y0013050D02*
X0003640D01*
X0003160Y0012934D02*
Y0011500D01*
Y0011520D02*
X-0001750D01*
X0003830Y0010508D02*
Y0008651D01*
X0003860Y0010484D02*
Y0008676D01*
X0003795Y0008190D02*
X0002800D01*
X0004378Y0006660D02*
X0004305D01*
X0002226Y0008440D02*
X0001129D01*
X0004910Y0003707D02*
Y0001800D01*
X0000660Y0007020D02*
X0000350D01*
X0007430Y0003519D02*
Y0003405D01*
X0007520Y0009274D02*
Y0004386D01*
X0006980Y0007021D02*
Y0004217D01*
X0005360Y0006291D02*
Y0004217D01*
X0003818Y0008640D02*
X0002771D01*
X0004659Y0003780D02*
X0001040D01*
X0000660Y0004050D02*
X0000350D01*
X0001850Y0018747D02*
Y0008440D01*
X0001940Y0018804D02*
Y0008440D01*
X0013495Y0005040D02*
X0004305D01*
X0013495Y0005130D02*
X0004305D01*
X0013495Y0005220D02*
X0004305D01*
X0003830Y0004621D02*
Y0001800D01*
X0004820Y0003708D02*
Y0001800D01*
X0007030Y0004230D02*
X0004967D01*
X0002030Y0018891D02*
Y0008440D01*
X0003795Y0005310D02*
X0001040D01*
X0013489Y0005400D02*
X0004305D01*
X0013399Y0005490D02*
X0004305D01*
X0005102Y0007560D02*
X0004855D01*
X0003872Y0004567D02*
X0004325Y0004114D01*
X0006980Y0002779D02*
Y0001800D01*
X0013495Y0004590D02*
X0004570D01*
X0011551Y0006030D02*
X0005085D01*
X0013309Y0005580D02*
X0004305D01*
X0006621Y0007560D02*
X0005498D01*
X0012029Y0005670D02*
X0004305D01*
X0011941Y0005760D02*
X0004305D01*
X0008608Y0006750D02*
X0005490D01*
X0005110Y0006660D02*
X0004821D01*
X0008505Y0006840D02*
X0005490D01*
X0005110Y0006579D02*
X0004921Y0006390D01*
X0004370Y0006668D02*
Y0006390D01*
X0004460Y0006605D02*
Y0006390D01*
X0004550Y0006577D02*
Y0006390D01*
X0005034Y0007110D02*
X0004855D01*
X0006884D02*
X0005566D01*
X0006350Y0003707D02*
Y0001800D01*
X0010317Y0006480D02*
X0005489D01*
X0005011D02*
X0004305D01*
X0010317Y0006660D02*
X0005490D01*
X0013495Y0004860D02*
X0004305D01*
X0011895Y0005850D02*
X0004305D01*
X0003726Y0008370D02*
X0002875D01*
X0003795Y0008100D02*
X0002679D01*
X0004460Y0003884D02*
Y0001800D01*
X0013495Y0004950D02*
X0004305D01*
X0013495Y0004680D02*
X0004480D01*
X0005540Y0003707D02*
Y0001800D01*
X0003795Y0006200D02*
Y0004750D01*
X0004730Y0006010D02*
Y0004467D01*
X0007121Y0004320D02*
X0004929D01*
X0013495Y0004410D02*
X0004848D01*
X0002120Y0019043D02*
Y0008440D01*
X0005000Y0006010D02*
X0004305D01*
X0004820D02*
Y0004429D01*
X0003872Y0004567D02*
X0004325Y0004114D01*
X0000660Y0008010D02*
X0000350D01*
X0000984Y0008584D02*
X0001129Y0008440D01*
X0004305Y0004855D02*
X0004686Y0004475D01*
X0003020Y0015987D02*
Y0001800D01*
X0008419Y0001980D02*
X0000570D01*
X0007610Y0009292D02*
Y0004346D01*
X0007700Y0009342D02*
Y0004277D01*
X0004640Y0006010D02*
Y0004520D01*
X0002229Y0008460D02*
X0001109D01*
X0003727D02*
X0002871D01*
X0000770Y0018785D02*
Y0008991D01*
X0000410Y0018785D02*
Y0009045D01*
X0000860Y0018785D02*
Y0008853D01*
X0000320Y0018785D02*
Y0009130D01*
X0002210Y0020940D02*
Y0008440D01*
X0011301Y0003510D02*
X0001040D01*
X0003795Y0007110D02*
X0001040D01*
X0000660Y0008190D02*
X0000350D01*
X0000660Y0007560D02*
X0000350D01*
X0000680Y0018785D02*
Y0009050D01*
X0000660Y0008280D02*
X0000350D01*
X0007034Y0003690D02*
X0001040D01*
X0006890Y0007102D02*
Y0004217D01*
X0004482Y0003870D02*
X0001040D01*
X0004384Y0003960D02*
X0001040D01*
X0003795Y0007290D02*
X0001040D01*
X0003795Y0006750D02*
X0001040D01*
X0003795Y0006840D02*
X0001040D01*
X0003795Y0007020D02*
X0001040D01*
X0006951Y0003060D02*
X0000850D01*
X0007135Y0003330D02*
X0001026D01*
X0002328Y0008640D02*
X0000929D01*
X0000500Y0018785D02*
Y0009073D01*
X0000603Y0008428D02*
X0000660Y0008371D01*
X0000590Y0018785D02*
Y0009074D01*
X0000350Y0009100D02*
Y0009008D01*
X0003795Y0008206D02*
Y0006200D01*
X0000399Y0008460D02*
X0000350D01*
X0003860Y0009000D02*
X0000760D01*
X0003860Y0009180D02*
X0000270D01*
X0000950Y0018785D02*
Y0008619D01*
X0001040Y0018785D02*
Y0008529D01*
X0000660Y0008371D02*
Y0003674D01*
X0000860Y0003065D02*
Y0001800D01*
X0007127Y0003600D02*
X0001040D01*
X0000660Y0005400D02*
X0000350D01*
X0002390Y0020760D02*
Y0008685D01*
X0000872Y0008696D02*
X0000982Y0008586D01*
X0000660Y0008100D02*
X0000350D01*
X0002400Y0008060D02*
X0001050D01*
X0002660Y0008092D02*
Y0001800D01*
X0002570Y0008074D02*
Y0001800D01*
X0002480Y0020670D02*
Y0008719D01*
X0000660Y0007650D02*
X0000350D01*
X0002750Y0020400D02*
Y0008658D01*
X0001130Y0018785D02*
Y0008440D01*
X0006530Y0003707D02*
Y0001800D01*
X0002480Y0008077D02*
Y0001800D01*
X0000603Y0008428D02*
X0000660Y0008371D01*
X0003795Y0007380D02*
X0001040D01*
X0000410Y0008455D02*
Y0003500D01*
X0000500Y0008427D02*
Y0003608D01*
X0000590Y0008426D02*
Y0003657D01*
X0001400Y0018722D02*
Y0008440D01*
X0001490Y0018697D02*
Y0008440D01*
X0001580Y0018687D02*
Y0008440D01*
X0004614Y0003825D02*
X0004655Y0003784D01*
X0003755Y0008550D02*
X0002840D01*
X0000660Y0003960D02*
X0000350D01*
X0003795Y0007200D02*
X0001040D01*
X0005434Y0006366D02*
X0005136Y0006068D01*
X0007790Y0009449D02*
Y0004148D01*
X0002260Y0008550D02*
X0001019D01*
X0007021Y0004217D02*
X0004969D01*
X0005180Y0006111D02*
Y0004217D01*
X0001670Y0018692D02*
Y0008440D01*
X0015450Y0011970D02*
X0014829D01*
X0014540Y0011229D02*
Y0010785D01*
X0014253Y0011664D02*
X0012714Y0010125D01*
X0012470Y0016878D02*
Y0009968D01*
X0012560Y0016841D02*
Y0010066D01*
X0014199Y0011610D02*
X0012335D01*
X0014478Y0010260D02*
X0013570D01*
X0014410Y0010350D02*
X0013660D01*
X0015450Y0012060D02*
X0014748D01*
X0015450Y0015300D02*
X0012384D01*
X0012470Y0009632D02*
Y0007934D01*
X0012849Y0010260D02*
X0012335D01*
X0015450Y0012240D02*
X0012335D01*
X0015450Y0011430D02*
X0014740D01*
X0014109Y0011520D02*
X0012335D01*
X0010210Y0011700D02*
X0009883D01*
X0010716D02*
X0010590D01*
X0010021Y0012060D02*
X0009600D01*
X0011825Y0012690D02*
X0010455D01*
X0011825Y0011430D02*
X0010590D01*
X0014630Y0016825D02*
Y0012117D01*
X0014540Y0016825D02*
Y0012126D01*
X0011825Y0011520D02*
X0010590D01*
X0010638Y0011970D02*
X0010589D01*
X0009566Y0012870D02*
X0008790D01*
X0010310Y0010786D02*
Y0007720D01*
X0010040Y0012041D02*
Y0004166D01*
X0009590Y0017750D02*
Y0012885D01*
X0011825Y0012780D02*
X0010365D01*
X0014270Y0016825D02*
Y0011968D01*
X0010590Y0011950D02*
Y0011366D01*
X0014360Y0016825D02*
Y0012066D01*
X0015450Y0015750D02*
X0008646D01*
X0011825Y0012240D02*
X0010905D01*
X0009566Y0012330D02*
X0009330D01*
X0011825Y0012060D02*
X0011255D01*
X0011825Y0012150D02*
X0011188D01*
X0009477Y0012780D02*
X0008880D01*
X0009860Y0012221D02*
Y0011780D01*
X0011825Y0011700D02*
X0011211D01*
X0011825Y0012870D02*
X0010322D01*
X0011825Y0012960D02*
X0010364D01*
X0011825Y0013050D02*
X0010377D01*
X0014810Y0017590D02*
Y0011998D01*
X0010566Y0012041D02*
X0010641Y0011967D01*
X0014450Y0010290D02*
Y0007942D01*
X0014720Y0011409D02*
Y0010826D01*
X0003860Y0010260D02*
X-0001750D01*
X0014270Y0010959D02*
Y0007762D01*
X0015450Y0007110D02*
X0015076D01*
X0015450Y0007200D02*
X0015153D01*
X0014908Y0010248D02*
Y0007980D01*
X0014810Y0011602D02*
Y0010807D01*
X0014360Y0011049D02*
Y0007874D01*
X0014990Y0017410D02*
Y0010650D01*
X0015450Y0010260D02*
X0014921D01*
X0015080Y0017320D02*
Y0007871D01*
X0015450Y0010440D02*
X0015021D01*
X0015450Y0008550D02*
X0014908D01*
X0006616Y0007566D02*
X0006828Y0007353D01*
X0009479Y0007740D02*
X0006979D01*
X0004989Y0007200D02*
X0004855D01*
X0006940Y0007779D02*
X0007096Y0007622D01*
X0006980Y0009218D02*
Y0007739D01*
X0007070Y0009384D02*
Y0007649D01*
X0015450Y0010620D02*
X0015004D01*
X0015450Y0010710D02*
X0014950D01*
X0006477Y0009270D02*
X0005732D01*
X0009375D02*
X0007022D01*
X0007278Y0009360D02*
X0007064D01*
X0004983Y0007380D02*
X0004855D01*
X0006567Y0007650D02*
X0004855D01*
X0006980Y0014864D02*
Y0012361D01*
X0007070Y0015756D02*
Y0015428D01*
X0007918Y0015120D02*
X0007806D01*
X0007310Y0011820D02*
Y0009866D01*
X0009375Y0009360D02*
X0007721D01*
X0006980Y0015864D02*
Y0015320D01*
X0009375Y0009900D02*
X0007690D01*
X0007160Y0015696D02*
Y0015489D01*
X0007250Y0015661D02*
Y0015523D01*
X0007340Y0015648D02*
Y0015537D01*
X0007310Y0011610D02*
X0007136D01*
X0007310Y0012240D02*
X0007221D01*
X0007989Y0014850D02*
X0007735D01*
X0007944Y0014940D02*
X0007780D01*
X0007921Y0015030D02*
X0007802D01*
X0011825Y0015210D02*
X0008791D01*
X0015450Y0011610D02*
X0014816D01*
X0011840Y0008498D02*
Y0008010D01*
X0011930Y0008430D02*
Y0007989D01*
X0014528Y0009450D02*
X0012335D01*
X0011882Y0008460D02*
X0009885D01*
X0012433Y0009720D02*
X0012335D01*
X0015450Y0015210D02*
X0012335D01*
X0005186Y0011160D02*
X0004855D01*
X0007310Y0011250D02*
X0005827D01*
X0007310Y0011340D02*
X0005814D01*
X0005310Y0010984D02*
Y0009766D01*
X0006560Y0009184D02*
Y0007700D01*
X0005434Y0009180D02*
X0004855D01*
X0005310Y0009900D02*
X0004855D01*
X0004345Y0012844D02*
Y0011870D01*
X0003740Y0014358D02*
Y0011776D01*
X0007310Y0014220D02*
X0004251D01*
X0003447Y0015934D02*
X0003160Y0015886D01*
X0003920Y0015273D02*
Y0015161D01*
Y0013269D02*
Y0011932D01*
X0006531Y0011880D02*
X0004855D01*
X0006524Y0011970D02*
X0004855D01*
X0006536Y0012060D02*
X0004855D01*
X0004251Y0013659D02*
X0004778Y0013132D01*
X0007310Y0009900D02*
X0005690D01*
X0005310Y0009810D02*
X0004855D01*
X0007310Y0014400D02*
X0004302D01*
X0000660Y0006840D02*
X0000350D01*
X0005110Y0006750D02*
X0004890D01*
X0005110Y0006840D02*
X0004921D01*
X0004550Y0014780D02*
Y0013360D01*
X0013659Y0011070D02*
X0012335D01*
X0013569Y0010980D02*
X0012335D01*
X0013010Y0016988D02*
Y0010420D01*
X0013389Y0010800D02*
X0012335D01*
X0013479Y0010890D02*
X0012335D01*
X0013209Y0010620D02*
X0012335D01*
X0013119Y0010530D02*
X0012335D01*
X0013280Y0009969D02*
Y0007752D01*
X0014528Y0008280D02*
X0009885D01*
X0014528Y0009810D02*
X0013120D01*
X0014450Y0011139D02*
Y0010710D01*
X0012582Y0010080D02*
X0012335D01*
X0012484Y0009990D02*
X0012335D01*
X0012439Y0009900D02*
X0012335D01*
X0012423Y0009810D02*
X0012335D01*
X0011825Y0009000D02*
X0009885D01*
X0012471Y0009630D02*
X0012335D01*
X0014528Y0008910D02*
X0012346D01*
X0014528Y0008820D02*
X0012391D01*
X0014528Y0008730D02*
X0012406D01*
X0014528Y0008640D02*
X0012397D01*
X0014528Y0008550D02*
X0012359D01*
X0012380Y0015291D02*
Y0008849D01*
X0014528Y0009090D02*
X0012335D01*
X0014528Y0009270D02*
X0012335D01*
X0014528Y0008460D02*
X0012278D01*
X0012380Y0016944D02*
Y0015549D01*
X0012290Y0017071D02*
Y0015670D01*
X0015450Y0012150D02*
X0012335D01*
X0012200Y0017750D02*
Y0015724D01*
X0012110Y0017750D02*
Y0015745D01*
X0012020Y0017750D02*
Y0015741D01*
X0011930Y0017750D02*
Y0015710D01*
X0011840Y0017750D02*
Y0015641D01*
X0007310Y0010980D02*
X0005690D01*
X0007310Y0010890D02*
X0005690D01*
X0007310Y0010800D02*
X0005690D01*
X0007310Y0010710D02*
X0005690D01*
X0007310Y0010620D02*
X0005690D01*
X0007310Y0010530D02*
X0005690D01*
X0007310Y0010440D02*
X0005690D01*
X0007310Y0010350D02*
X0005690D01*
X0007310Y0010260D02*
X0005690D01*
X0007310Y0010170D02*
X0005690D01*
X0007310Y0010080D02*
X0005690D01*
X0007250Y0009810D02*
X0005690D01*
X0005810Y0011147D02*
Y0009603D01*
X0005720Y0011008D02*
Y0009741D01*
X0015450Y0015390D02*
X0012405D01*
X0015450Y0015480D02*
X0012401D01*
X0015450Y0015570D02*
X0012370D01*
X0005270Y0011018D02*
Y0009732D01*
X0005180Y0011184D02*
Y0009565D01*
X0015450Y0015660D02*
X0012301D01*
X0007310Y0009990D02*
X0005690D01*
X0005450Y0006383D02*
Y0004217D01*
X0006566Y0009720D02*
X0005741D01*
X0006477Y0009630D02*
X0005800D01*
X0006436Y0009540D02*
X0005824D01*
X0007310Y0014490D02*
X0005183D01*
X0007310Y0011520D02*
X0005684D01*
X0005810Y0017520D02*
Y0011353D01*
X0005720Y0017520D02*
Y0011491D01*
X0005630Y0017520D02*
Y0011550D01*
X0005540Y0017520D02*
Y0011574D01*
X0005450Y0017512D02*
Y0011573D01*
X0005360Y0014652D02*
Y0011545D01*
X0005270Y0014548D02*
Y0011482D01*
X0005180Y0014488D02*
Y0011315D01*
X0003741Y0013590D02*
X-0001750D01*
X0007310Y0013860D02*
X0004251D01*
X0007310Y0014310D02*
X0004251D01*
X0007310Y0013590D02*
X0004320D01*
X0007310Y0013500D02*
X0004410D01*
X0007310Y0013410D02*
X0004500D01*
X0007310Y0013320D02*
X0004590D01*
X0004280Y0014380D02*
Y0013630D01*
X0007310Y0013770D02*
X0004251D01*
X0007310Y0013680D02*
X0004251D01*
X0007310Y0014040D02*
X0004251D01*
X0007310Y0014130D02*
X0004251D01*
X0007310Y0013230D02*
X0004680D01*
X0007310Y0013140D02*
X0004770D01*
X0007310Y0012960D02*
X0004855D01*
X0007310Y0012870D02*
X0004855D01*
X0007310Y0012780D02*
X0004855D01*
X0007310Y0012690D02*
X0004855D01*
X0007310Y0012600D02*
X0004855D01*
X0007310Y0012510D02*
X0004855D01*
X0006766Y0012330D02*
X0004855D01*
X0006637Y0012240D02*
X0004855D01*
X0006572Y0012150D02*
X0004855D01*
X0010317Y0006390D02*
X0005455D01*
X0005227Y0011070D02*
X0004855D01*
X0005310Y0010980D02*
X0004855D01*
X0005310Y0010890D02*
X0004855D01*
X0005310Y0010800D02*
X0004855D01*
X0005310Y0010710D02*
X0004855D01*
X0005310Y0010620D02*
X0004855D01*
X0005310Y0010530D02*
X0004855D01*
X0005310Y0010440D02*
X0004855D01*
X0005310Y0010350D02*
X0004855D01*
X0005310Y0010260D02*
X0004855D01*
X0005310Y0010170D02*
X0004855D01*
X0005310Y0010080D02*
X0004855D01*
X0005310Y0009990D02*
X0004855D01*
X0004921Y0006390D02*
X0004305D01*
X0007340Y0007034D02*
Y0004405D01*
X0005258Y0009720D02*
X0004855D01*
X0005200Y0009630D02*
X0004855D01*
X0005176Y0009540D02*
X0004855D01*
X0005177Y0009450D02*
X0004855D01*
X0005205Y0009360D02*
X0004855D01*
X0005268Y0009270D02*
X0004855D01*
X0006560Y0009090D02*
X0004855D01*
X0006560Y0009000D02*
X0004855D01*
X0006560Y0008910D02*
X0004855D01*
X0006560Y0008820D02*
X0004855D01*
X0006560Y0008730D02*
X0004855D01*
X0006560Y0008640D02*
X0004855D01*
X0006560Y0008550D02*
X0004855D01*
X0006560Y0008460D02*
X0004855D01*
X0006560Y0008370D02*
X0004855D01*
X0006560Y0008280D02*
X0004855D01*
X0006560Y0008190D02*
X0004855D01*
X0006560Y0008100D02*
X0004855D01*
X0006560Y0008010D02*
X0004855D01*
X0006560Y0007920D02*
X0004855D01*
X0006560Y0007830D02*
X0004855D01*
X0006560Y0007740D02*
X0004855D01*
X0006839Y0007200D02*
X0005611D01*
X0005990Y0003707D02*
Y0001800D01*
X0000660Y0006660D02*
X0000350D01*
X0000660Y0007290D02*
X0000350D01*
X0005021Y0007470D02*
X0004855D01*
X0015450Y0010530D02*
X0015025D01*
X0005110Y0007020D02*
X0004904D01*
X0005110Y0006930D02*
X0004925D01*
X0003740Y0010647D02*
Y0008513D01*
X0004910Y0014448D02*
Y0007003D01*
X0004973Y0007290D02*
X0004855D01*
X0004251Y0014358D02*
Y0013659D01*
X0004820Y0014472D02*
Y0013079D01*
X0004640Y0014602D02*
Y0013270D01*
X0005173Y0011250D02*
X0004855D01*
X0007790Y0017750D02*
Y0016214D01*
X0007700Y0017750D02*
Y0016382D01*
X0007610Y0017750D02*
Y0016462D01*
X0007520Y0017750D02*
Y0016508D01*
X0007430Y0017750D02*
Y0016532D01*
X0007340Y0017750D02*
Y0016537D01*
X-0001654Y0019170D02*
X-0001750D01*
X0008960Y0017750D02*
Y0012700D01*
X0006529Y0017550D02*
X0005948D01*
X0003750Y0018450D02*
X-0001750D01*
X0008510Y0017750D02*
Y0016512D01*
X0003930Y0018270D02*
X-0001750D01*
X0004460Y0017750D02*
Y0017597D01*
X0008420Y0017750D02*
Y0016533D01*
X0008600Y0017750D02*
Y0016468D01*
X0003830Y0018370D02*
Y0016967D01*
X0006726Y0016380D02*
X0004380D01*
X0006620Y0016486D02*
Y0012221D01*
X0006529Y0017460D02*
X0005397D01*
X0006529Y0017370D02*
X0005307D01*
X0006529Y0017280D02*
X0005217D01*
X0006529Y0017190D02*
X0005127D01*
X0006529Y0017100D02*
X0005037D01*
X0002801Y0016830D02*
X-0001750D01*
X0004427Y0015660D02*
X0004311D01*
X0011300Y0002074D02*
Y0001800D01*
X0011210Y0001995D02*
Y0001800D01*
X0015450Y0005040D02*
X0014005D01*
X0011930Y0002043D02*
Y0001800D01*
X0015450Y0004860D02*
X0014005D01*
X0015450Y0004770D02*
X0014005D01*
X0013495Y0003960D02*
X0010171D01*
X0015450D02*
X0014005D01*
X0015450Y0005580D02*
X0013992D01*
X0015450Y0005490D02*
X0014005D01*
X0015450Y0004320D02*
X0014005D01*
X0013820Y0005991D02*
Y0005790D01*
X0013730Y0005984D02*
Y0005880D01*
X0013640Y0005992D02*
Y0005970D01*
X0011825Y0014220D02*
X0008650D01*
X0008060Y0014765D02*
Y0014500D01*
X0011825Y0014670D02*
X0008502D01*
X0011825Y0014400D02*
X0008673D01*
X0011825Y0014310D02*
X0008674D01*
X0003029Y0013140D02*
X-0001750D01*
X0009866Y0013320D02*
X0008605D01*
X0011825Y0013860D02*
X0008605D01*
X0011825Y0014580D02*
X0008582D01*
X0008600Y0014716D02*
Y0014560D01*
X0015450Y0011520D02*
X0014792D01*
X0010040Y0017750D02*
Y0013376D01*
X0009320Y0017750D02*
Y0012340D01*
X0009140Y0017750D02*
Y0012520D01*
X0009050Y0017750D02*
Y0012610D01*
X0008780Y0014940D02*
Y0012880D01*
X0008690Y0014791D02*
Y0012970D01*
X0007310Y0014580D02*
X0005304D01*
X0008600Y0014140D02*
Y0013060D01*
X0011825Y0014130D02*
X0008605D01*
X0010580Y0012028D02*
Y0012011D01*
X0011825Y0013410D02*
X0008605D01*
X0011825Y0013500D02*
X0008605D01*
X0011825Y0013590D02*
X0008605D01*
X0009777Y0013230D02*
X0008605D01*
X0009736Y0013140D02*
X0008605D01*
X0009723Y0013050D02*
X0008610D01*
X0009736Y0012960D02*
X0008700D01*
X0010201Y0011880D02*
X0009780D01*
X0009500Y0003710D02*
Y0001800D01*
X0010210Y0011871D02*
Y0011366D01*
X0009436Y0012690D02*
X0008970D01*
X0014450Y0016825D02*
Y0012111D01*
X0008870Y0017750D02*
Y0012790D01*
X0010210Y0011520D02*
X0009885D01*
X0010210Y0011430D02*
X0009885D01*
X0009477Y0012420D02*
X0009240D01*
X0010210Y0011790D02*
X0009855D01*
X0003160Y0012690D02*
X-0001750D01*
X0010130Y0010916D02*
Y0004068D01*
X0010178Y0011340D02*
X0009885D01*
X0010110Y0011250D02*
X0009885D01*
X0010079Y0011160D02*
X0009885D01*
X0010075Y0011070D02*
X0009885D01*
X0010096Y0010980D02*
X0009885D01*
X0010150Y0010890D02*
X0009885D01*
X0011825Y0010710D02*
X0009885D01*
X0011825Y0010620D02*
X0009885D01*
X0011825Y0010530D02*
X0009885D01*
X0011825Y0010440D02*
X0009885D01*
X0011825Y0010350D02*
X0009885D01*
X0011825Y0010260D02*
X0009885D01*
X0011825Y0010170D02*
X0009885D01*
X0011825Y0010080D02*
X0009885D01*
X0011825Y0009990D02*
X0009885D01*
X0011825Y0009900D02*
X0009885D01*
X0011825Y0009810D02*
X0009885D01*
X0011825Y0009720D02*
X0009885D01*
X0011825Y0009630D02*
X0009885D01*
X0011825Y0009540D02*
X0009885D01*
X0011825Y0009450D02*
X0009885D01*
X0011825Y0009360D02*
X0009885D01*
X0011825Y0009270D02*
X0009885D01*
X0011825Y0009180D02*
X0009885D01*
X0011825Y0009090D02*
X0009885D01*
X0011814Y0008910D02*
X0009885D01*
X0011769Y0008820D02*
X0009885D01*
X0011753Y0008730D02*
X0009885D01*
X0011763Y0008640D02*
X0009885D01*
X0011801Y0008550D02*
X0009885D01*
X0014528Y0008100D02*
X0009949D01*
X0007038Y0003240D02*
X0001007D01*
X0012290Y0003426D02*
Y0003301D01*
X0010798Y0003330D02*
X0008636D01*
X0010600Y0003240D02*
X0008733D01*
X0010506Y0003150D02*
X0008789D01*
X0010410Y0002970D02*
X0008830D01*
X0010391Y0002880D02*
X0008823D01*
X0010388Y0002790D02*
X0008796D01*
X0010388Y0002700D02*
X0008745D01*
X0000549Y0003060D02*
X0000350D01*
X0010388Y0002610D02*
X0009086D01*
X0010446Y0003060D02*
X0008820D01*
X0012830Y0016854D02*
Y0010240D01*
X0008690Y0003638D02*
Y0003287D01*
X0008600Y0003572D02*
Y0003352D01*
X0008510Y0003535D02*
Y0003389D01*
X0008420Y0003518D02*
Y0003406D01*
X0008330Y0003521D02*
Y0003404D01*
X0008240Y0003542D02*
Y0003383D01*
X0008150Y0003585D02*
Y0003340D01*
X0008060Y0003659D02*
Y0003265D01*
X0008780Y0006693D02*
Y0004168D01*
X0008690Y0006712D02*
Y0004287D01*
X0008600Y0006755D02*
Y0004352D01*
X0008510Y0006833D02*
Y0004389D01*
X0008420Y0007023D02*
Y0004406D01*
Y0012519D02*
Y0007169D01*
X0008330Y0012609D02*
Y0004404D01*
X0008240Y0012699D02*
Y0004383D01*
X0011825Y0013950D02*
X0008605D01*
X0007970Y0014882D02*
Y0004121D01*
X0009230Y0011709D02*
Y0004090D01*
X0009140Y0011799D02*
Y0007343D01*
X0009050Y0011889D02*
Y0007429D01*
X0008960Y0011979D02*
Y0007476D01*
X0008870Y0012069D02*
Y0007498D01*
X0008780Y0012159D02*
Y0007500D01*
X0008690Y0012249D02*
Y0007481D01*
X0008600Y0012339D02*
Y0007437D01*
X0008510Y0012429D02*
Y0007359D01*
X0010258Y0007470D02*
X0008976D01*
X0010270Y0007380D02*
X0009108D01*
X0010298Y0007290D02*
X0009175D01*
X0010346Y0007200D02*
X0009210D01*
X0010423Y0007110D02*
X0009224D01*
X0010554Y0007020D02*
X0009217D01*
X0010317Y0006930D02*
X0009188D01*
X0010317Y0006840D02*
X0009132D01*
X0010317Y0006750D02*
X0009029D01*
X0008060Y0002659D02*
Y0001800D01*
X0008121Y0004320D02*
X0007650D01*
X0008030Y0004230D02*
X0007741D01*
X0007978Y0004140D02*
X0007793D01*
X0007949Y0004050D02*
X0007822D01*
X0007941Y0003960D02*
X0007830D01*
X0007950Y0003870D02*
X0007821D01*
X0007980Y0003780D02*
X0007791D01*
X0007430Y0007132D02*
Y0004405D01*
X0007250Y0006989D02*
Y0004386D01*
X0006560Y0009180D02*
X0005565D01*
X0007160Y0006973D02*
Y0004346D01*
X0010111Y0011970D02*
X0009690D01*
X0008135Y0003330D02*
X0007636D01*
X0008038Y0003240D02*
X0007733D01*
X0007982Y0003150D02*
X0007789D01*
X0007941Y0002970D02*
X0007830D01*
X0007948Y0002880D02*
X0007823D01*
X0007975Y0002790D02*
X0007796D01*
X0008026Y0002700D02*
X0007745D01*
X0008114Y0002610D02*
X0007657D01*
X0008337Y0002520D02*
X0007434D01*
X0000500Y0003092D02*
Y0002050D01*
X0007790Y0003776D02*
Y0003148D01*
X0007700Y0003647D02*
Y0003277D01*
X0007610Y0003578D02*
Y0003346D01*
X0007520Y0003538D02*
Y0003386D01*
X0008034Y0003690D02*
X0007737D01*
X0007340Y0003520D02*
Y0003405D01*
X0007250Y0003538D02*
Y0003386D01*
X0007160Y0003579D02*
Y0003346D01*
X0007070Y0003649D02*
Y0003276D01*
X0003110Y0015922D02*
Y0013421D01*
X0004662Y0016290D02*
X0004380D01*
X0005800Y0017520D02*
X0005457D01*
X0004441Y0016110D02*
X0004380D01*
X0002875Y0016380D02*
X-0001750D01*
X0006529Y0017010D02*
X0004947D01*
X0004398Y0016020D02*
X0004380D01*
X0004492Y0015570D02*
X0004254D01*
X0004610Y0015480D02*
X0004213D01*
X0007031Y0015390D02*
X0004141D01*
X0004816Y0015300D02*
X0004006D01*
X0002840Y0016594D02*
Y0008550D01*
X0003740Y0018460D02*
Y0016877D01*
X0003522Y0015390D02*
X-0001750D01*
X0003650Y0015303D02*
Y0015003D01*
X0004603Y0015120D02*
X0004196D01*
X0004560Y0015030D02*
X0004317D01*
X0004540Y0014940D02*
X0004384D01*
X0004538Y0014850D02*
X0004422D01*
X0004555Y0014760D02*
X0004439D01*
X0004593Y0014670D02*
X0004437D01*
X0004660Y0014580D02*
X0004417D01*
X0004781Y0014490D02*
X0004375D01*
X0008060Y0014199D02*
Y0004265D01*
X0004390Y0015750D02*
X0004358D01*
X0003560Y0015357D02*
Y0014813D01*
X0004190Y0015445D02*
Y0015123D01*
X0004100Y0015354D02*
Y0015155D01*
X0004010Y0015301D02*
Y0015167D01*
X0004190Y0012999D02*
Y0011951D01*
X0004345Y0011880D02*
X0004332D01*
X0006560Y0011790D02*
X0004855D01*
X0006617Y0011700D02*
X0004855D01*
X0009590Y0012315D02*
Y0012070D01*
X0006722Y0011610D02*
X0004855D01*
X0005316Y0011520D02*
X0004855D01*
X0006436Y0009360D02*
X0005795D01*
X0003160Y0012150D02*
X-0001750D01*
X0007310Y0013050D02*
X0004834D01*
X0004280Y0012909D02*
Y0011915D01*
X0004370Y0014482D02*
Y0013540D01*
X0004100Y0013089D02*
Y0011965D01*
X0004010Y0013179D02*
Y0011959D01*
X0004460Y0015609D02*
Y0013450D01*
X0008605Y0013055D02*
X0009807Y0011853D01*
X0004730Y0014520D02*
Y0013180D01*
X0007310Y0011070D02*
X0005772D01*
X0003830Y0013359D02*
Y0011877D01*
X0005900Y0003707D02*
Y0001800D01*
X0005360Y0017422D02*
Y0015122D01*
X0005180Y0015614D02*
Y0015285D01*
X0005090Y0015521D02*
Y0015319D01*
X0005000Y0015467D02*
Y0015331D01*
X0004910Y0015438D02*
Y0015326D01*
X0004820Y0015428D02*
Y0015301D01*
X0004730Y0015437D02*
Y0015254D01*
X0004640Y0015465D02*
Y0015172D01*
X0004550Y0015518D02*
Y0014994D01*
X0006968Y0015300D02*
X0005148D01*
X0006933Y0015210D02*
X0005288D01*
X0006918Y0015120D02*
X0005361D01*
X0006921Y0015030D02*
X0005403D01*
X0006944Y0014940D02*
X0005424D01*
X0006989Y0014850D02*
X0005425D01*
X0007066Y0014760D02*
X0005408D01*
X0007222Y0014670D02*
X0005370D01*
X0003741Y0014310D02*
X-0001750D01*
X0007310Y0012420D02*
X0004855D01*
X0006963Y0016290D02*
X0004974D01*
X0006930Y0016200D02*
X0005120D01*
X0005270Y0017332D02*
Y0015226D01*
X0003920Y0018280D02*
Y0017057D01*
X0005090Y0017152D02*
Y0016225D01*
X0005000Y0017062D02*
Y0016279D01*
X0004910Y0016972D02*
Y0016309D01*
X0004820Y0016882D02*
Y0016318D01*
X0004730Y0016792D02*
Y0016309D01*
X0004640Y0016702D02*
Y0016281D01*
X0005180Y0017242D02*
Y0016132D01*
X0006917Y0016110D02*
X0005195D01*
X0006923Y0016020D02*
X0005238D01*
X0006947Y0015930D02*
X0005259D01*
X0006995Y0015840D02*
X0005262D01*
X0007078Y0015750D02*
X0005245D01*
X0007256Y0015660D02*
X0005208D01*
X0011858D02*
X0008467D01*
X0007143Y0015480D02*
X0005026D01*
X0008126Y0016470D02*
X0007597D01*
X0008022Y0016380D02*
X0007701D01*
X0007963Y0016290D02*
X0007761D01*
X0007930Y0016200D02*
X0007794D01*
X0007917Y0016110D02*
X0007806D01*
X0007923Y0016020D02*
X0007801D01*
X0007947Y0015930D02*
X0007776D01*
X0007995Y0015840D02*
X0007728D01*
X0008078Y0015750D02*
X0007646D01*
X0008256Y0015660D02*
X0007467D01*
X0006890Y0016377D02*
Y0012362D01*
X0003099Y0015930D02*
X-0001750D01*
X0007790Y0015970D02*
Y0015214D01*
X0007700Y0015803D02*
Y0015382D01*
X0007610Y0015723D02*
Y0015462D01*
X0007520Y0015676D02*
Y0015508D01*
X0007430Y0015652D02*
Y0015532D01*
X0008143Y0015480D02*
X0007580D01*
X0008031Y0015390D02*
X0007693D01*
X0007968Y0015300D02*
X0007755D01*
X0007933Y0015210D02*
X0007791D01*
X0003607Y0014940D02*
X-0001750D01*
X0007310Y0014650D02*
Y0012097D01*
X0007250Y0014661D02*
Y0012206D01*
X0007160Y0014696D02*
Y0012292D01*
X0007070Y0014756D02*
Y0012339D01*
X0009500Y0017750D02*
Y0012810D01*
X0008240Y0017750D02*
Y0016520D01*
X0006980Y0016377D02*
Y0016320D01*
X0008690Y0017750D02*
Y0016393D01*
X0006800Y0016377D02*
Y0012343D01*
X0007310Y0011790D02*
X0007297D01*
X0007310Y0011700D02*
X0007241D01*
X0007310Y0012330D02*
X0007091D01*
X0008066Y0014760D02*
X0007690D01*
X0007310Y0012150D02*
X0007286D01*
X0005690Y0010984D02*
Y0009766D01*
X0009423Y0012600D02*
X0009060D01*
X0010580Y0010827D02*
Y0007975D01*
X0014720Y0017680D02*
Y0012079D01*
X0008780Y0015940D02*
Y0015245D01*
X0008690Y0015791D02*
Y0015393D01*
X0008600Y0015716D02*
Y0015468D01*
X0008510Y0015672D02*
Y0015512D01*
X0008420Y0015651D02*
Y0015533D01*
X0008330Y0015648D02*
Y0015536D01*
X0008240Y0015664D02*
Y0015520D01*
X0008150Y0015701D02*
Y0015483D01*
X0008060Y0015765D02*
Y0015419D01*
X0007970Y0015882D02*
Y0015303D01*
X0011790Y0015570D02*
X0005143D01*
X0011759Y0015480D02*
X0008580D01*
X0011755Y0015390D02*
X0008693D01*
X0011776Y0015300D02*
X0008755D01*
X0007690Y0014791D02*
Y0009866D01*
X0011825Y0015120D02*
X0008806D01*
X0011825Y0015030D02*
X0008802D01*
X0011825Y0014940D02*
X0008780D01*
X0011825Y0014850D02*
X0008735D01*
X0011825Y0014760D02*
X0008658D01*
X0015450Y0016470D02*
X0008597D01*
X0015450Y0016380D02*
X0008701D01*
X0015450Y0016290D02*
X0008761D01*
X0007250Y0017750D02*
Y0017706D01*
X0015450Y0016200D02*
X0008794D01*
X0007206Y0017750D02*
X0007329Y0017627D01*
X0010670Y0017750D02*
Y0012475D01*
X0015450Y0016110D02*
X0008806D01*
X0015450Y0016020D02*
X0008801D01*
X0015450Y0015930D02*
X0008776D01*
X0015450Y0015840D02*
X0008728D01*
X0001476Y0019800D02*
X0000635D01*
X-0001626Y0019440D02*
X-0001750D01*
X0000202Y0020160D02*
X-0001750D01*
X0002900Y0020250D02*
X-0001750D01*
X-0000078Y0019980D02*
X-0001750D01*
X0000320Y0020950D02*
Y0020156D01*
X0002120Y0020950D02*
Y0019457D01*
X0002030Y0020950D02*
Y0019609D01*
X0001940Y0020950D02*
Y0019696D01*
X0001850Y0020950D02*
Y0019752D01*
X0001760Y0020950D02*
Y0019789D01*
X0001670Y0020950D02*
Y0019808D01*
X0001580Y0020950D02*
Y0019813D01*
X0001490Y0020950D02*
Y0019803D01*
X0001400Y0020950D02*
Y0019777D01*
X0001310Y0020950D02*
Y0019735D01*
X0000680Y0020950D02*
Y0019715D01*
X-0000040Y0020950D02*
Y0020031D01*
X0001207Y0019715D02*
Y0019656D01*
X0003050Y0020070D02*
X0000501D01*
X0005227Y0011430D02*
X0004855D01*
X0003050Y0019260D02*
X0002159D01*
X0001130Y0020950D02*
Y0019715D01*
X0001040Y0020950D02*
Y0019715D01*
X0000950Y0020950D02*
Y0019715D01*
X0000860Y0020950D02*
Y0019715D01*
X0000770Y0020950D02*
Y0019715D01*
X0000381Y0003420D02*
X0000350D01*
X0000230Y0020950D02*
Y0020162D01*
X0000590Y0020950D02*
Y0019959D01*
X0000500Y0020950D02*
Y0020071D01*
X0001400Y0008060D02*
Y0001800D01*
X0001220Y0020950D02*
Y0019669D01*
X0003050Y0019620D02*
X0002021D01*
X0003050Y0019530D02*
X0002085D01*
X0003050Y0019440D02*
X0002126D01*
X0014528Y0009360D02*
X0012335D01*
X-0000130Y0020950D02*
Y0019843D01*
X-0000580Y0020950D02*
Y0019569D01*
X0001207Y0018843D02*
Y0018785D01*
X-0000135Y0019800D02*
X-0000976D01*
X0003050Y0019710D02*
X0001921D01*
X0000140Y0020950D02*
Y0020147D01*
X0000050Y0020950D02*
Y0020107D01*
X0003050Y0019170D02*
X0002153D01*
X-0000220Y0020950D02*
Y0019714D01*
X-0000310Y0020950D02*
Y0019710D01*
X-0000400Y0020950D02*
Y0019687D01*
X0003050Y0019350D02*
X0002150D01*
X0000590Y0003042D02*
Y0001960D01*
X0000277Y0018990D02*
X0000143D01*
X0000277Y0018900D02*
X0000063D01*
X-0000490Y0018857D02*
Y0009800D01*
X0003120Y0019080D02*
X0002133D01*
X-0000670Y0020950D02*
Y0019617D01*
X-0000760Y0020950D02*
Y0019701D01*
X-0000850Y0020950D02*
Y0019756D01*
X-0000940Y0020950D02*
Y0019791D01*
X-0001030Y0020950D02*
Y0019809D01*
X-0001120Y0020950D02*
Y0019812D01*
X-0001210Y0020950D02*
Y0019801D01*
X-0001300Y0020950D02*
Y0019775D01*
X-0001390Y0020950D02*
Y0019730D01*
X-0001480Y0020950D02*
Y0019662D01*
X-0000490Y0020950D02*
Y0019643D01*
X-0000308Y0019710D02*
X-0000772D01*
X-0000523Y0019620D02*
X-0000672D01*
X0000410Y0020950D02*
Y0020128D01*
X-0000130Y0019710D02*
X-0000176D01*
X0000277Y0019170D02*
X0000215D01*
X0014409Y0006930D02*
X0014044D01*
X0014313Y0006840D02*
X0014139D01*
X0014254Y0006750D02*
X0014198D01*
X0014504Y0006030D02*
X0013949D01*
X0014237Y0006300D02*
X0014215D01*
X0014287Y0006210D02*
X0014165D01*
X0014366Y0006120D02*
X0014086D01*
X0014180Y0007217D02*
Y0006782D01*
X0014090Y0007107D02*
Y0006892D01*
X0014000Y0007041D02*
Y0006959D01*
X0015450Y0009450D02*
X0014908D01*
X0015450Y0006930D02*
X0015028D01*
X0015450Y0006840D02*
X0015123D01*
X0015450Y0006750D02*
X0015182D01*
X0015450Y0009000D02*
X0014908D01*
X0015450Y0006030D02*
X0014933D01*
X0015450Y0006300D02*
X0015199D01*
X0015450Y0006210D02*
X0015149D01*
X0015450Y0006120D02*
X0015070D01*
X0015450Y0006570D02*
X0015238D01*
X0015450Y0006480D02*
X0015241D01*
X0015170Y0007227D02*
Y0006772D01*
X0015080Y0007113D02*
Y0006886D01*
X0014990Y0007044D02*
Y0006955D01*
X0014450Y0007042D02*
Y0006957D01*
X0014360Y0007110D02*
Y0006889D01*
X0014270Y0007221D02*
Y0006778D01*
X0004460Y0006010D02*
Y0004700D01*
X0012949Y0005940D02*
X0012641D01*
X0013039Y0005850D02*
X0012620D01*
X0013129Y0005760D02*
X0012574D01*
X0011335Y0006210D02*
X0011246D01*
X0014000Y0006056D02*
Y0005550D01*
X0011413Y0006120D02*
X0011246D01*
X0013010Y0005879D02*
Y0003877D01*
X0012650Y0005993D02*
Y0003946D01*
X0013370Y0005519D02*
Y0003780D01*
X0011300Y0006268D02*
Y0003169D01*
X-0001448Y0018810D02*
X-0001750D01*
X0013910Y0006014D02*
Y0005700D01*
X0015450Y0005310D02*
X0014005D01*
X0013730Y0002043D02*
Y0001800D01*
X0000660Y0005850D02*
X0000350D01*
X0000660Y0006210D02*
X0000350D01*
X0011930Y0005777D02*
Y0003926D01*
X0010670Y0006980D02*
Y0006972D01*
X0010580Y0007008D02*
Y0006972D01*
X0010490Y0007057D02*
Y0006972D01*
X0010400Y0007133D02*
Y0006972D01*
X0011210Y0011699D02*
Y0007793D01*
X0011120Y0011627D02*
Y0007891D01*
X0011030Y0011593D02*
Y0007953D01*
X0010940Y0011587D02*
Y0007991D01*
X0010850Y0011607D02*
Y0008011D01*
X0010760Y0011657D02*
Y0008015D01*
X0009950Y0012131D02*
Y0008095D01*
X0004550Y0006010D02*
Y0004610D01*
X0003470Y0018730D02*
Y0017273D01*
X0010271Y0010800D02*
X0009885D01*
X0011689Y0008010D02*
X0010858D01*
X0011464Y0007920D02*
X0011083D01*
X0011366Y0007830D02*
X0011181D01*
X0011304Y0007740D02*
X0011242D01*
X0004232Y0017370D02*
X0003334D01*
X0004142Y0017280D02*
X0003460D01*
X0004052Y0017190D02*
X0003551D01*
X0003962Y0017100D02*
X0003566D01*
X0003872Y0017010D02*
X0003581D01*
X0003782Y0016920D02*
X0003596D01*
X0003697Y0016830D02*
X0003611D01*
X0003647Y0016740D02*
X0003626D01*
X0009410Y0017750D02*
Y0012250D01*
X0003020Y0020130D02*
Y0017333D01*
X0002930Y0020220D02*
Y0017318D01*
X0003445Y0015930D02*
X0003423D01*
X0002840Y0020310D02*
Y0017201D01*
X0003380Y0018820D02*
Y0017337D01*
X0003290Y0018910D02*
Y0017378D01*
X0003110Y0019090D02*
Y0017348D01*
X0012306Y0017460D02*
X0007329D01*
X0012267Y0017370D02*
X0007329D01*
X0012251Y0017280D02*
X0007329D01*
X0012254Y0017190D02*
X0007329D01*
X0012278Y0017100D02*
X0007329D01*
X0012324Y0017010D02*
X0007329D01*
X0012407Y0016920D02*
X0007329D01*
X0012610Y0016830D02*
X0007329D01*
X0015450Y0016740D02*
X0007329D01*
X0015450Y0016650D02*
X0007329D01*
X0015450Y0016560D02*
X0007312D01*
X0012506Y0017640D02*
X0007316D01*
X0012374Y0017550D02*
X0007329D01*
X0014650Y0017750D02*
X0007206D01*
X0012427Y0001800D02*
X0009219D01*
X0010388Y0002430D02*
X0009219D01*
X0010394Y0002340D02*
X0009219D01*
X0010418Y0002250D02*
X0009219D01*
X0010460Y0002160D02*
X0009219D01*
X0010527Y0002070D02*
X0009219D01*
X0004319Y0012870D02*
X0003540D01*
X0004345Y0012780D02*
X0003540D01*
X0004345Y0012690D02*
X0003540D01*
X0004345Y0012600D02*
X0003540D01*
X0004345Y0012510D02*
X0003540D01*
X0004345Y0012420D02*
X0003540D01*
X0004345Y0012330D02*
X0003540D01*
X0004345Y0012240D02*
X0003540D01*
X0004345Y0012150D02*
X0003540D01*
X0004345Y0012060D02*
X0003540D01*
X0004345Y0011970D02*
X0003540D01*
X0003833Y0011880D02*
X0003540D01*
X0003749Y0011790D02*
X0003540D01*
X0003702Y0011700D02*
X0003540D01*
X0003681Y0011610D02*
X0003540D01*
X0003650Y0014442D02*
Y0013329D01*
X0003560Y0014632D02*
Y0013450D01*
X0003470Y0015450D02*
Y0013504D01*
X0002973Y0016020D02*
X-0001750D01*
X0003380Y0015923D02*
Y0013525D01*
X0003290Y0015908D02*
Y0013521D01*
X0003200Y0015893D02*
Y0013490D01*
X0003746Y0013500D02*
X0003479D01*
X0003785Y0013410D02*
X0003600D01*
X0003869Y0013320D02*
X0003654D01*
X0003959Y0013230D02*
X0003675D01*
X0004049Y0013140D02*
X0003671D01*
X0003860Y0008730D02*
X0000876D01*
X0004730Y0006600D02*
Y0006390D01*
X0005270Y0003707D02*
Y0001800D01*
X0010317Y0006300D02*
X0005369D01*
X0010317Y0006210D02*
X0005279D01*
X0004910Y0006010D02*
Y0004348D01*
X0004190Y0004249D02*
Y0001800D01*
X0005090Y0007050D02*
Y0006559D01*
X0005000Y0007171D02*
Y0006469D01*
X0008449Y0006930D02*
X0005490D01*
X0010317Y0006570D02*
X0005490D01*
X0005101D02*
X0004305D01*
X0005110Y0007034D02*
Y0006579D01*
X0005540Y0009176D02*
Y0007521D01*
X0005450Y0009177D02*
Y0007590D01*
X0005360Y0009205D02*
Y0007621D01*
X0005270Y0009268D02*
Y0007625D01*
X0005180Y0009434D02*
Y0007604D01*
X0005090Y0014455D02*
Y0007550D01*
X0005000Y0014442D02*
Y0007429D01*
X0004921Y0006390D02*
X0004305D01*
X0006711Y0007470D02*
X0005579D01*
X0003860Y0008910D02*
X0000835D01*
X0003860Y0009270D02*
X0000180D01*
X0003795Y0006210D02*
X0001040D01*
X0010317Y0006120D02*
X0005189D01*
X0006710Y0003707D02*
Y0001800D01*
X0003805Y0004680D02*
X0001040D01*
X0013495Y0005310D02*
X0004305D01*
X0004299Y0004140D02*
X0001040D01*
X0006801Y0007380D02*
X0005617D01*
X0006620Y0003707D02*
Y0001800D01*
X0006823Y0007290D02*
X0005626D01*
X0003795Y0008010D02*
X0001040D01*
X0003795Y0007920D02*
X0001040D01*
X0003795Y0007830D02*
X0001040D01*
X0003795Y0007740D02*
X0001040D01*
X0003795Y0007650D02*
X0001040D01*
X0003795Y0007560D02*
X0001040D01*
X0003795Y0007470D02*
X0001040D01*
X0003795Y0006570D02*
X0001040D01*
X0003795Y0006480D02*
X0001040D01*
X0003795Y0006390D02*
X0001040D01*
X0003795Y0006300D02*
X0001040D01*
X0004370Y0003982D02*
Y0001800D01*
X0003795Y0006120D02*
X0001040D01*
X0003795Y0006030D02*
X0001040D01*
X0003795Y0005940D02*
X0001040D01*
X0003795Y0005850D02*
X0001040D01*
X0003795Y0005760D02*
X0001040D01*
X0003795Y0005670D02*
X0001040D01*
X0003795Y0005580D02*
X0001040D01*
X0003795Y0005490D02*
X0001040D01*
X0003795Y0005400D02*
X0001040D01*
X0003795Y0005220D02*
X0001040D01*
X0004305Y0004855D02*
X0004686Y0004475D01*
X0003795Y0005130D02*
X0001040D01*
X0003795Y0005040D02*
X0001040D01*
X0003795Y0004950D02*
X0001040D01*
X0003795Y0004860D02*
X0001040D01*
X0003795Y0004770D02*
X0001040D01*
X0003851Y0004590D02*
X0001040D01*
X0003939Y0004500D02*
X0001040D01*
X0004029Y0004410D02*
X0001040D01*
X0004119Y0004320D02*
X0001040D01*
X0000660Y0003780D02*
X0000350D01*
X0000660Y0006750D02*
X0000350D01*
X0003795Y0006930D02*
X0001040D01*
X0013495Y0004500D02*
X0004660D01*
X0006800Y0007381D02*
Y0004217D01*
X0006710Y0007471D02*
Y0004217D01*
X0006620Y0007561D02*
Y0004217D01*
X0006530Y0009208D02*
Y0004217D01*
X0004209Y0004230D02*
X0001040D01*
X0006440Y0003707D02*
Y0001800D01*
X0005270Y0006201D02*
Y0004217D01*
X0006170Y0017732D02*
Y0004217D01*
X0006080Y0017642D02*
Y0004217D01*
X0005990Y0017571D02*
Y0004217D01*
X0005900Y0017533D02*
Y0004217D01*
X0005810Y0009397D02*
Y0004217D01*
X0005720Y0009258D02*
Y0004217D01*
X0004100Y0004339D02*
Y0001800D01*
X0005540Y0007078D02*
Y0004217D01*
X0005630Y0003707D02*
Y0001800D01*
X0005090Y0006033D02*
Y0004217D01*
X0005450Y0003707D02*
Y0001800D01*
X0005360Y0003707D02*
Y0001800D01*
X0005000Y0006010D02*
Y0004217D01*
X0001760Y0018711D02*
Y0008440D01*
X0004640Y0006576D02*
Y0006390D01*
X0004910Y0006797D02*
Y0006390D01*
X0004305Y0006760D02*
Y0006390D01*
X0014528Y0010170D02*
X0013480D01*
X0014571Y0010800D02*
X0014110D01*
X0014450Y0010710D02*
X0014020D01*
X0003173Y0011430D02*
X-0001750D01*
X0015450Y0011340D02*
X0014650D01*
X0015450Y0011250D02*
X0014560D01*
X0015450Y0011160D02*
X0014470D01*
X0015450Y0011070D02*
X0014380D01*
X0015450Y0010980D02*
X0014290D01*
X0014396Y0010620D02*
X0013930D01*
X0014375Y0010530D02*
X0013840D01*
X0014379Y0010440D02*
X0013750D01*
X0013190Y0016924D02*
Y0010600D01*
X0013100Y0017028D02*
Y0010510D01*
X0014180Y0016825D02*
Y0011590D01*
X0014090Y0016825D02*
Y0011500D01*
X0014000Y0016825D02*
Y0011410D01*
X0013910Y0016825D02*
Y0011320D01*
X0013820Y0017020D02*
Y0011230D01*
X0013730Y0016919D02*
Y0011140D01*
X0013640Y0016864D02*
Y0011050D01*
X0013550Y0016834D02*
Y0010960D01*
X0013460Y0016825D02*
Y0010870D01*
X0013370Y0016835D02*
Y0010780D01*
X0013280Y0016866D02*
Y0010690D01*
X0014528Y0010080D02*
X0013390D01*
X0014528Y0009990D02*
X0013300D01*
X0014528Y0009900D02*
X0013210D01*
X0014528Y0009720D02*
X0013067D01*
X0014528Y0009630D02*
X0013029D01*
X0014528Y0009540D02*
X0012948D01*
X0012759Y0010170D02*
X0012335D01*
X0013029Y0010440D02*
X0012335D01*
X0013100Y0009789D02*
Y0007881D01*
X0009860Y0017750D02*
Y0013316D01*
X0009770Y0017750D02*
Y0013218D01*
X0010638Y0011880D02*
X0010590D01*
X0010661Y0011790D02*
X0010590D01*
X0009803Y0012278D02*
X0010210Y0011871D01*
X0009841Y0012240D02*
X0009420D01*
X0010842Y0011610D02*
X0010590D01*
X0010210D02*
X0009885D01*
X0015450Y0012420D02*
X0012335D01*
X0011825Y0011340D02*
X0010621D01*
X0011825Y0011250D02*
X0010690D01*
X0011825Y0011160D02*
X0010721D01*
X0011825Y0011070D02*
X0010725D01*
X0011825Y0010980D02*
X0010704D01*
X0011825Y0010890D02*
X0010650D01*
X0011825Y0010800D02*
X0010529D01*
X0009931Y0012150D02*
X0009510D01*
X0010670Y0011769D02*
Y0011284D01*
X0009500Y0012390D02*
Y0012160D01*
X0015450Y0015120D02*
X0012335D01*
X0010580Y0017750D02*
Y0012565D01*
X0010490Y0017750D02*
Y0012655D01*
X0010310Y0012852D02*
Y0012835D01*
X0011825Y0012600D02*
X0010545D01*
X0011825Y0012510D02*
X0010635D01*
X0011825Y0012420D02*
X0010725D01*
X0011825Y0012330D02*
X0010815D01*
X0015450Y0011880D02*
X0014867D01*
X0010760Y0017750D02*
Y0012385D01*
X0011120Y0017750D02*
Y0012200D01*
X0011030Y0017750D02*
Y0012233D01*
X0010130Y0011951D02*
Y0011284D01*
X0010400Y0017750D02*
Y0012745D01*
X0009436Y0012510D02*
X0009150D01*
X0011825Y0011880D02*
X0011288D01*
X0011825Y0011790D02*
X0011266D01*
X0011825Y0011970D02*
X0011285D01*
X0011825Y0011610D02*
X0011084D01*
X0010850Y0017750D02*
Y0012295D01*
X0010940Y0017750D02*
Y0012239D01*
X0010310Y0017750D02*
Y0013248D01*
X0010220Y0017750D02*
Y0013329D01*
X0009950Y0017750D02*
Y0013361D01*
X0010130Y0017750D02*
Y0013367D01*
X0011825Y0013320D02*
X0010234D01*
X0011825Y0013230D02*
X0010322D01*
X0009680Y0017750D02*
Y0012919D01*
X0015450Y0010890D02*
X0014200D01*
X0015450Y0008190D02*
X0014908D01*
X0015450Y0008100D02*
X0014908D01*
X0015450Y0008370D02*
X0014908D01*
X0015450Y0008280D02*
X0014908D01*
X0015450Y0010170D02*
X0014908D01*
X0015450Y0010080D02*
X0014908D01*
X0015450Y0009990D02*
X0014908D01*
X0015450Y0009900D02*
X0014908D01*
X0015450Y0009810D02*
X0014908D01*
X0015450Y0009720D02*
X0014908D01*
X0015450Y0009630D02*
X0014908D01*
X0015450Y0010350D02*
X0014990D01*
X0015450Y0008910D02*
X0014908D01*
X0015450Y0008820D02*
X0014908D01*
X0015450Y0008730D02*
X0014908D01*
X0015450Y0008640D02*
X0014908D01*
X0015450Y0008010D02*
X0014908D01*
X0015450Y0009090D02*
X0014908D01*
X0015450Y0009540D02*
X0014908D01*
X0015450Y0010800D02*
X0014829D01*
X0007430Y0009281D02*
Y0007468D01*
X0007340Y0009315D02*
Y0007566D01*
X0007250Y0009390D02*
Y0007611D01*
X0007160Y0011625D02*
Y0007626D01*
X0008420Y0007020D02*
X0007318D01*
X0008661Y0007470D02*
X0007429D01*
X0008529Y0007380D02*
X0007467D01*
X0008462Y0007290D02*
X0007476D01*
X0008427Y0007200D02*
X0007461D01*
X0008413Y0007110D02*
X0007416D01*
X0010262Y0007560D02*
X0007348D01*
X0009375Y0009090D02*
X0006940D01*
X0009375Y0009000D02*
X0006940D01*
X0009375Y0008910D02*
X0006940D01*
X0009375Y0008820D02*
X0006940D01*
X0009375Y0008730D02*
X0006940D01*
X0009375Y0008640D02*
X0006940D01*
X0009375Y0008550D02*
X0006940D01*
X0009375Y0008460D02*
X0006940D01*
X0009375Y0008370D02*
X0006940D01*
X0009375Y0008280D02*
X0006940D01*
X0009345Y0008190D02*
X0006940D01*
X0009311Y0008100D02*
X0006940D01*
X0009304Y0008010D02*
X0006940D01*
X0009322Y0007920D02*
X0006940D01*
X0009372Y0007830D02*
X0006940D01*
X0007070Y0011578D02*
Y0009515D01*
X0006980Y0011556D02*
Y0009682D01*
X0006890Y0011555D02*
Y0009745D01*
X0006800Y0011574D02*
Y0009773D01*
X0006710Y0011617D02*
Y0009774D01*
X0006620Y0011696D02*
Y0009750D01*
X0006530Y0011887D02*
Y0009691D01*
X0002570Y0020580D02*
Y0008726D01*
X0007196Y0009720D02*
X0006934D01*
X0007175Y0009630D02*
X0007022D01*
X0007179Y0009540D02*
X0007064D01*
X0007210Y0009450D02*
X0007077D01*
X0003860Y0010484D02*
Y0008676D01*
X0008027Y0014400D02*
X0007690D01*
X0008050Y0014220D02*
X0007690D01*
X0008095Y0014130D02*
X0007690D01*
X0008095Y0014040D02*
X0007690D01*
X0008095Y0013950D02*
X0007690D01*
X0008095Y0013860D02*
X0007690D01*
X0008095Y0013770D02*
X0007690D01*
X0008095Y0013680D02*
X0007690D01*
X0008026Y0014310D02*
X0007690D01*
X0008095Y0013590D02*
X0007690D01*
X0008095Y0013500D02*
X0007690D01*
X0008095Y0013410D02*
X0007690D01*
X0008095Y0013320D02*
X0007690D01*
X0008095Y0013230D02*
X0007690D01*
X0008095Y0013140D02*
X0007690D01*
X0008095Y0013050D02*
X0007690D01*
X0008095Y0012960D02*
X0007690D01*
X0008108Y0012870D02*
X0007690D01*
X0008160Y0012780D02*
X0007690D01*
X0008249Y0012690D02*
X0007690D01*
X0008339Y0012600D02*
X0007690D01*
X0008429Y0012510D02*
X0007690D01*
X0008519Y0012420D02*
X0007690D01*
X0008118Y0014580D02*
X0007690D01*
X0008055Y0014490D02*
X0007690D01*
X0009375Y0011520D02*
X0007690D01*
X0009375Y0011430D02*
X0007690D01*
X0009149Y0011790D02*
X0007690D01*
X0009239Y0011700D02*
X0007690D01*
X0008609Y0012330D02*
X0007690D01*
X0008699Y0012240D02*
X0007690D01*
X0008789Y0012150D02*
X0007690D01*
X0009329Y0011610D02*
X0007690D01*
X0009375Y0011070D02*
X0007690D01*
X0009375Y0010980D02*
X0007690D01*
X0009375Y0010890D02*
X0007690D01*
X0009375Y0010800D02*
X0007690D01*
X0009375Y0010710D02*
X0007690D01*
X0009375Y0010620D02*
X0007690D01*
X0009375Y0010530D02*
X0007690D01*
X0009375Y0010440D02*
X0007690D01*
X0009375Y0010350D02*
X0007690D01*
X0009375Y0010260D02*
X0007690D01*
X0009375Y0010170D02*
X0007690D01*
X0009375Y0010080D02*
X0007690D01*
X0007790Y0014970D02*
Y0009750D01*
X0007700Y0014803D02*
Y0009858D01*
X0007310Y0011160D02*
X0005814D01*
X0009375D02*
X0007690D01*
X0009375Y0011250D02*
X0007690D01*
X0009375Y0011340D02*
X0007690D01*
X0007250Y0011711D02*
Y0009810D01*
X0009375D02*
X0007750D01*
X0009375Y0009990D02*
X0007690D01*
X0009375Y0009720D02*
X0007804D01*
X0009375Y0009630D02*
X0007825D01*
X0009375Y0009540D02*
X0007821D01*
X0011210Y0017750D02*
Y0012127D01*
X0015450Y0015030D02*
X0012335D01*
X0015450Y0014940D02*
X0012335D01*
X0015450Y0014850D02*
X0012335D01*
X0015450Y0014760D02*
X0012335D01*
X0015450Y0014670D02*
X0012335D01*
X0015450Y0014400D02*
X0012335D01*
X0015450Y0014310D02*
X0012335D01*
X0015450Y0014220D02*
X0012335D01*
X0015450Y0013950D02*
X0012335D01*
X0015450Y0013860D02*
X0012335D01*
X0015450Y0014580D02*
X0012335D01*
X0015450Y0014490D02*
X0012335D01*
X0015450Y0013770D02*
X0012335D01*
X0015450Y0013680D02*
X0012335D01*
X0015450Y0013590D02*
X0012335D01*
X0015450Y0013500D02*
X0012335D01*
X0015450Y0013410D02*
X0012335D01*
X0015450Y0013320D02*
X0012335D01*
X0015450Y0013230D02*
X0012335D01*
X0015450Y0014130D02*
X0012335D01*
X0015450Y0014040D02*
X0012335D01*
X0015450Y0013140D02*
X0012335D01*
X0015450Y0013050D02*
X0012335D01*
X0015450Y0012960D02*
X0012335D01*
X0015450Y0012870D02*
X0012335D01*
X0015450Y0012780D02*
X0012335D01*
X0015450Y0012690D02*
X0012335D01*
X0015450Y0012600D02*
X0012335D01*
X0015450Y0012510D02*
X0012335D01*
X0014630Y0011319D02*
Y0010819D01*
X0014233Y0011880D02*
X0012335D01*
X0014223Y0011790D02*
X0012335D01*
X0015450D02*
X0014876D01*
X0015450Y0012330D02*
X0012335D01*
X0014239Y0011700D02*
X0012335D01*
X0014727Y0011417D02*
X0013075Y0009764D01*
X0015450Y0011700D02*
X0014861D01*
X0014019Y0011430D02*
X0012335D01*
X0014352Y0012060D02*
X0012335D01*
X0014271Y0011970D02*
X0012335D01*
X0013299Y0010710D02*
X0012335D01*
X0013929Y0011340D02*
X0012335D01*
X0013839Y0011250D02*
X0012335D01*
X0013749Y0011160D02*
X0012335D01*
G01X0004600Y0006573D02*
G03X0004927Y0006900I0000000J0000327D01*
G03X0004855Y0007104I0000327J0000000D01*
G01X0005800Y0017520D02*
G03X0006069Y0017631I0000000J0000380D01*
G01X0003731Y0016869D02*
G03X0003633Y0016699I0000269J0000269D01*
G01X0004269Y0015609D02*
G03X0004376Y0015822I0000269J0000269D01*
G01X0004269Y0015609D02*
G03X0004376Y0015822I0000269J0000269D01*
G01X0007021Y0003707D02*
G03X0007386Y0003517I0000365J0000255D01*
G01X0014005Y0005500D02*
G03X0013930Y0005680I0000255J0000000D01*
G01X0008095Y0012950D02*
G03X0008170Y0012770I0000255J0000000D01*
G01X0009750Y0012273D02*
G03X0009803Y0012278I0000000J0000327D01*
G01X0008023Y0014350D02*
G03X0008095Y0014146I0000327J0000000D01*
G01X0008677Y0014350D02*
G03X0008459Y0014658I0000327J0000000D01*
G01X0008605Y0014146D02*
G03X0008677Y0014350I0000255J0000204D01*
G01X0009885Y0011670D02*
G03X0009810Y0011850I0000255J0000000D01*
G01X0009885Y0011670D02*
G03X0009810Y0011850I0000255J0000000D01*
G01X0009303Y0008030D02*
G03X0009630Y0007703I0000327J0000000D01*
G03X0009957Y0008030I0000000J0000327D01*
G03X0009885Y0008234I0000327J0000000D01*
G01X0009850Y0003573D02*
G03X0010177Y0003900I0000000J0000327D01*
G03X0009850Y0004227I0000327J0000000D01*
G01X0009584Y0003710D02*
G03X0009850Y0003573I0000266J0000190D01*
G01X0012116Y0003126D02*
G03X0012060Y0002992I0000134J0000134D01*
G01X0009375Y0008234D02*
G03X0009303Y0008030I0000255J0000204D01*
G01X0007941Y0002962D02*
G03X0008386Y0002517I0000445J0000000D01*
G01X0008831Y0002962D02*
G03X0008386Y0003407I0000445J0000000D01*
G03X0007941Y0002962I0000000J0000445D01*
Y0003962D02*
G03X0008386Y0003517I0000445J0000000D01*
G01X0009850Y0004227D02*
G03X0009584Y0004090I0000000J0000327D01*
G01X0008386Y0003517D02*
G03X0008752Y0003710I0000000J0000445D01*
G01X0008386Y0004407D02*
G03X0007941Y0003962I0000000J0000445D01*
G01X0008413Y0007096D02*
G03X0008819Y0006690I0000406J0000000D01*
Y0006691D02*
G03X0009224Y0007096I0000000J0000405D01*
G03X0008819Y0007501I0000405J0000000D01*
Y0007502D02*
G03X0008413Y0007096I0000000J0000406D01*
G01X0007386Y0003517D02*
G03X0007831Y0003962I0000000J0000445D01*
G03X0007386Y0004407I0000445J0000000D01*
G01X0006941Y0002962D02*
G03X0007386Y0002517I0000445J0000000D01*
G03X0007831Y0002962I0000000J0000445D01*
G03X0007386Y0003407I0000445J0000000D01*
G03X0006941Y0002962I0000000J0000445D01*
G01X0003387Y0015709D02*
G03X0003832Y0015264I0000445J0000000D01*
G03X0004264Y0015604I0000000J0000445D01*
G01X0007310Y0012097D02*
G03X0006929Y0012364I0000381J0000138D01*
G01X0003551Y0014723D02*
G03X0003741Y0014358I0000445J0000000D01*
G01X0004441Y0014723D02*
G03X0003996Y0015168I0000445J0000000D01*
G03X0003551Y0014723I0000000J0000445D01*
G01X0003737Y0010844D02*
G03X0003723Y0010750I0000313J0000094D01*
G01X0004083Y0011966D02*
G03X0003678Y0011561I0000000J0000405D01*
G01X0004537Y0014887D02*
G03X0004982Y0014442I0000445J0000000D01*
G03X0005427Y0014887I0000000J0000445D01*
G03X0004982Y0015332I0000445J0000000D01*
G03X0004537Y0014887I0000000J0000445D01*
G01X0004818Y0015428D02*
G03X0005263Y0015873I0000000J0000445D01*
G03X0004818Y0016318I0000445J0000000D01*
G01X0006917Y0016092D02*
G03X0007362Y0015647I0000445J0000000D01*
G03X0007807Y0016092I0000000J0000445D01*
G03X0007362Y0016537I0000445J0000000D01*
G01X0003447Y0015934D02*
G03X0003386Y0015709I0000385J0000225D01*
G01X0006917Y0015092D02*
G03X0007310Y0014650I0000445J0000000D01*
G01X0007807Y0015092D02*
G03X0007362Y0015537I0000445J0000000D01*
G03X0006917Y0015092I0000000J0000445D01*
G01X0006524Y0011959D02*
G03X0006929Y0011554I0000405J0000000D01*
G01X0007690Y0014791D02*
G03X0007807Y0015092I0000328J0000301D01*
G01X0006929Y0011553D02*
G03X0007310Y0011820I0000000J0000406D01*
G01X0006929Y0012364D02*
G03X0006524Y0011959I0000000J0000405D01*
G01X0007917Y0015092D02*
G03X0008251Y0014661I0000445J0000000D01*
G01X0008807Y0015092D02*
G03X0008362Y0015537I0000445J0000000D01*
G03X0007917Y0015092I0000000J0000445D01*
Y0016092D02*
G03X0008362Y0015647I0000445J0000000D01*
G03X0008807Y0016092I0000000J0000445D01*
G03X0008362Y0016537I0000445J0000000D01*
G03X0007917Y0016092I0000000J0000445D01*
G01X0000636Y0019777D02*
G03X0000250Y0020163I0000386J0000000D01*
G03X-0000136Y0019777I0000000J0000386D01*
G01X0000250Y0019392D02*
G03X0000277Y0019392I0000000J0000385D01*
G01X0001596Y0018687D02*
G03X0002159Y0019250I0000000J0000563D01*
G03X0001596Y0019813I0000563J0000000D01*
G01X0001207Y0018843D02*
G03X0001596Y0018687I0000389J0000407D01*
G01X-0000242Y0018785D02*
G03X0000223Y0019250I0000000J0000465D01*
G01X-0000610Y0018966D02*
G03X-0000242Y0018785I0000368J0000284D01*
G01X-0001660Y0019250D02*
G03X-0001097Y0018687I0000563J0000000D01*
G03X-0000610Y0018966I0000000J0000563D01*
G01X-0001097Y0019813D02*
G03X-0001660Y0019250I0000000J0000563D01*
G01X0011766Y0005984D02*
G03X0011872Y0005995I0000000J0000524D01*
G01X0012750Y0008016D02*
G03X0012258Y0007671I0000000J0000524D01*
G01X0014226Y0006687D02*
G03X0013913Y0007000I0000492J0000179D01*
G01X0013734Y0008016D02*
G03X0013242Y0007671I0000000J0000524D01*
G01X0014718Y0005984D02*
G03X0015242Y0006508I0000000J0000524D01*
Y0007492D02*
G03X0014908Y0007980I0000524J0000000D01*
G01X0015242Y0006508D02*
G03X0014897Y0007000I0000524J0000000D01*
G01X0011872Y0005980D02*
G03X0012258Y0005594I0000386J0000000D01*
Y0005595D02*
G03X0012643Y0005980I0000000J0000385D01*
G03X0012643Y0005995I0000385J0000000D01*
G01X0010258Y0007492D02*
G03X0010717Y0006972I0000523J0000000D01*
G01X0010781Y0008016D02*
G03X0010257Y0007492I0000000J0000524D01*
G01X0012258Y0007671D02*
G03X0011766Y0008016I0000492J0000179D01*
G01X0013242Y0007671D02*
G03X0012750Y0008016I0000492J0000179D01*
G01X0014226Y0007312D02*
G03X0014539Y0007000I0000492J0000180D01*
G01X0015112Y0002819D02*
G03X0014588Y0003343I0000524J0000000D01*
Y0003342D02*
G03X0014065Y0002834I0000000J0000523D01*
G01X0014588Y0001902D02*
G03X0015111Y0002425I0000000J0000523D01*
G01X0013270Y0002508D02*
G03X0013734Y0002044I0000464J0000000D01*
Y0002043D02*
G03X0014104Y0002226I0000000J0000465D01*
G01X0013734Y0002972D02*
G03X0013270Y0002508I0000000J0000464D01*
G01X0013215D02*
G03X0012750Y0002973I0000465J0000000D01*
G01X0012862Y0002057D02*
G03X0013215Y0002508I0000112J0000451D01*
G01X0010911Y0003342D02*
G03X0010388Y0002819I0000000J0000523D01*
Y0002425D02*
G03X0010911Y0001902I0000523J0000000D01*
G01X0011412Y0002972D02*
G03X0010911Y0003343I0000501J0000153D01*
G01X0011301Y0003492D02*
G03X0011766Y0003027I0000465J0000000D01*
G03X0012231Y0003492I0000000J0000465D01*
G01X0012230D02*
G03X0011766Y0003956I0000464J0000000D01*
Y0003957D02*
G03X0011301Y0003492I0000000J0000465D01*
G01X0008459Y0014658D02*
G03X0008807Y0015092I0000097J0000434D01*
G01X0012750Y0003027D02*
G03X0013215Y0003492I0000000J0000465D01*
G03X0012750Y0003957I0000465J0000000D01*
G03X0012285Y0003492I0000000J0000465D01*
G01X0013270D02*
G03X0013734Y0003028I0000464J0000000D01*
Y0003027D02*
G03X0014199Y0003492I0000000J0000465D01*
G03X0014005Y0003870I0000465J0000000D01*
G01X0012250Y0017250D02*
G03X0012675Y0016825I0000425J0000000D01*
G03X0013069Y0017090I0000000J0000425D01*
G01X0012675Y0017675D02*
G03X0012250Y0017250I0000000J0000425D01*
G01X0013463Y0016825D02*
G03X0013825Y0017028I0000000J0000425D01*
G01X0013069Y0017090D02*
G03X0013463Y0016825I0000394J0000160D01*
G01X0013069Y0017410D02*
G03X0012675Y0017675I0000394J0000160D01*
G01X0013825Y0017472D02*
G03X0013463Y0017675I0000362J0000222D01*
G01X0014065Y0002834D02*
G03X0013734Y0002973I0000331J0000326D01*
G01X0013463Y0017675D02*
G03X0013069Y0017410I0000000J0000425D01*
G01X0014104Y0002226D02*
G03X0014588Y0001902I0000484J0000199D01*
G01X0010911D02*
G03X0011301Y0002075I0000000J0000523D01*
G01X0008812Y0004090D02*
G03X0008386Y0004407I0000426J0000128D01*
Y0002517D02*
G03X0008466Y0002524I0000000J0000445D01*
G01X0005800Y0017520D02*
G03X0006069Y0017631I0000000J0000380D01*
G01X0005690Y0010984D02*
G03X0005827Y0011250I0000190J0000266D01*
G01X0004818Y0016318D02*
G03X0004380Y0015952I0000000J0000445D01*
G01X0005434Y0006366D02*
G03X0005490Y0006500I0000134J0000134D01*
G01X0003540Y0012934D02*
G03X0003677Y0013200I0000190J0000266D01*
G01X0003731Y0016869D02*
G03X0003633Y0016699I0000269J0000269D01*
G01X0000222Y0019250D02*
G03X0000199Y0019395I0000464J0000000D01*
G01X-0000242Y0019715D02*
G03X-0000610Y0019534I0000000J0000465D01*
G01X0008251Y0014661D02*
G03X0008024Y0014350I0000099J0000311D01*
G01X0004251Y0014358D02*
G03X0004441Y0014723I0000255J0000365D01*
G01X0004855Y0012950D02*
G03X0004780Y0013130I0000255J0000000D01*
G01X0004345Y0011870D02*
G03X0004083Y0011966I0000262J0000309D01*
G01X0000550Y0009077D02*
G03X0000350Y0009008I0000000J0000327D01*
G01X0002550Y0008727D02*
G03X0002226Y0008440I0000000J0000327D01*
G01X0011273Y0007671D02*
G03X0010781Y0008016I0000492J0000179D01*
G01X0001040Y0008060D02*
G03X0001050Y0008060I0000010J0000190D01*
G01X0011246Y0006443D02*
G03X0011766Y0005984I0000520J0000065D01*
G01X0004376Y0015822D02*
G03X0004818Y0015428I0000442J0000051D01*
G01X0014730Y0011420D02*
G03X0014805Y0011596I0000180J0000180D01*
G01X0014539Y0007000D02*
G03X0014226Y0006687I0000179J0000492D01*
G01X0013734Y0005984D02*
G03X0014226Y0006328I0000000J0000524D01*
G01X0012584Y0003058D02*
G03X0012750Y0003027I0000166J0000434D01*
Y0002972D02*
G03X0012440Y0002854I0000000J0000464D01*
G01X0014226Y0007671D02*
G03X0013734Y0008016I0000492J0000179D01*
G01X0011766D02*
G03X0011273Y0007671I0000000J0000524D01*
G01X0011872Y0005995D02*
G03X0011872Y0005980I0000386J0000015D01*
G01X0012750Y0005984D02*
G03X0012887Y0006002I0000000J0000524D01*
G01X0012643Y0005995D02*
G03X0012750Y0005984I0000107J0000513D01*
G01X0014226Y0006328D02*
G03X0014718Y0005984I0000492J0000180D01*
G01X0013612Y0005998D02*
G03X0013734Y0005984I0000122J0000510D01*
G01X0013495Y0003890D02*
G03X0013270Y0003492I0000239J0000398D01*
G01X0003160Y0011500D02*
G03X0003216Y0011366I0000190J0000000D01*
G01X0003160Y0011500D02*
G03X0003216Y0011366I0000190J0000000D01*
G01X0003023Y0013200D02*
G03X0003160Y0012934I0000327J0000000D01*
G01X0003677Y0013200D02*
G03X0003350Y0013527I0000327J0000000D01*
G03X0003023Y0013200I0000000J0000327D01*
G01X0008727Y0002677D02*
G03X0008830Y0002962I0000341J0000285D01*
G01X0003723Y0010750D02*
G03X0003860Y0010484I0000327J0000000D01*
G01X0005000Y0006010D02*
G03X0005134Y0006066I0000000J0000190D01*
G01X0005490Y0007034D02*
G03X0005627Y0007300I0000190J0000266D01*
G01X0005434Y0006366D02*
G03X0005490Y0006500I0000134J0000134D01*
G01X0004973Y0007300D02*
G03X0005110Y0007034I0000327J0000000D01*
G01X0005627Y0007300D02*
G03X0005300Y0007627I0000327J0000000D01*
G03X0004973Y0007300I0000000J0000327D01*
G01X0003723Y0008410D02*
G03X0003795Y0008206I0000327J0000000D01*
G01X0003860Y0008676D02*
G03X0003723Y0008410I0000190J0000266D01*
G01X0003795Y0004750D02*
G03X0003870Y0004570I0000255J0000000D01*
G01X0001020Y0003415D02*
G03X0001040Y0003500I0000170J0000085D01*
G01X0004657Y0003782D02*
G03X0004837Y0003707I0000180J0000180D01*
G01X0000660Y0003674D02*
G03X0000374Y0003350I0000040J0000324D01*
G01X0001040Y0008060D02*
G03X0001050Y0008060I0000010J0000190D01*
G01X0004305Y0006760D02*
G03X0004600Y0006573I0000295J0000140D01*
G01X0000373Y0003350D02*
G03X0000700Y0003023I0000327J0000000D01*
G03X0001027Y0003350I0000000J0000327D01*
G03X0001020Y0003415I0000327J0000000D01*
G01X0000877Y0008750D02*
G03X0000550Y0009077I0000327J0000000D01*
G01X0000350Y0008492D02*
G03X0000550Y0008424I0000200J0000258D01*
G01X0000872Y0008696D02*
G03X0000876Y0008750I0000322J0000054D01*
G01X0000550Y0008423D02*
G03X0000603Y0008428I0000000J0000327D01*
G01X0002400Y0008060D02*
G03X0002485Y0008080I0000000J0000190D01*
G03X0002550Y0008073I0000065J0000320D01*
G03X0002877Y0008400I0000000J0000327D01*
G03X0002550Y0008727I0000327J0000000D01*
G01X0007310Y0009866D02*
G03X0007173Y0009600I0000190J0000266D01*
G01X0014223Y0011800D02*
G03X0014253Y0011664I0000327J0000000D01*
G01X0014730Y0011420D02*
G03X0014805Y0011596I0000180J0000180D01*
G01X0012423Y0009800D02*
G03X0012750Y0009473I0000327J0000000D01*
G03X0013075Y0009764I0000000J0000327D01*
G01X0014877Y0011800D02*
G03X0014550Y0012127I0000327J0000000D01*
G03X0014223Y0011800I0000000J0000327D01*
G01X0009423Y0012600D02*
G03X0009750Y0012273I0000327J0000000D01*
G01X0010590Y0011950D02*
G03X0010566Y0012041I0000190J0000000D01*
G01X0010073Y0011100D02*
G03X0010400Y0010773I0000327J0000000D01*
G03X0010727Y0011100I0000000J0000327D01*
G03X0010590Y0011366I0000327J0000000D01*
G01X0009747Y0012926D02*
G03X0009424Y0012600I0000003J0000326D01*
G01X0010590Y0011950D02*
G03X0010566Y0012041I0000190J0000000D01*
G01X0010637Y0011913D02*
G03X0010963Y0011587I0000326J0000000D01*
G03X0011289Y0011913I0000000J0000326D01*
G01X0011290D02*
G03X0010963Y0012240I0000327J0000000D01*
G01X0009723Y0013050D02*
G03X0009746Y0012926I0000327J0000000D01*
G01X0004325Y0004114D02*
G03X0004614Y0003825I0000325J0000036D01*
G01X0010377Y0013050D02*
G03X0010050Y0013377I0000327J0000000D01*
G03X0009723Y0013050I0000000J0000327D01*
G01X0012714Y0010125D02*
G03X0012423Y0009800I0000036J0000325D01*
G01X0014373Y0010500D02*
G03X0014528Y0010222I0000327J0000000D01*
G01X0015027Y0010500D02*
G03X0014700Y0010827I0000327J0000000D01*
G03X0014373Y0010500I0000000J0000327D01*
G01X0006828Y0007353D02*
G03X0006824Y0007300I0000322J0000053D01*
G01X0006823D02*
G03X0007150Y0006973I0000327J0000000D01*
G03X0007477Y0007300I0000000J0000327D01*
G03X0007150Y0007627I0000327J0000000D01*
G01X0006560Y0007700D02*
G03X0006616Y0007566I0000190J0000000D01*
G01X0007386Y0004407D02*
G03X0007021Y0004217I0000000J0000445D01*
G01X0006423Y0009450D02*
G03X0006560Y0009184I0000327J0000000D01*
G01X0007077Y0009450D02*
G03X0006750Y0009777I0000327J0000000D01*
G03X0006423Y0009450I0000000J0000327D01*
G01X0007173Y0009600D02*
G03X0007500Y0009273I0000327J0000000D01*
G03X0007827Y0009600I0000000J0000327D01*
G03X0007690Y0009866I0000327J0000000D01*
G01X0011753Y0008720D02*
G03X0012080Y0008393I0000327J0000000D01*
G03X0012407Y0008720I0000000J0000327D01*
G03X0012335Y0008924I0000327J0000000D01*
G01X0011753Y0015420D02*
G03X0011825Y0015216I0000327J0000000D01*
G01X0012407Y0015420D02*
G03X0012080Y0015747I0000327J0000000D01*
G03X0011753Y0015420I0000000J0000327D01*
G01X0005173Y0009500D02*
G03X0005500Y0009173I0000327J0000000D01*
G03X0005827Y0009500I0000000J0000327D01*
G03X0005690Y0009766I0000327J0000000D01*
G01X0005310D02*
G03X0005173Y0009500I0000190J0000266D01*
Y0011250D02*
G03X0005310Y0010984I0000327J0000000D01*
G01X0005827Y0011250D02*
G03X0005500Y0011577I0000327J0000000D01*
G03X0005173Y0011250I0000000J0000327D01*
G01X0003741Y0013554D02*
G03X0003815Y0013373I0000255J0000000D01*
G01X0004855Y0012950D02*
G03X0004780Y0013130I0000255J0000000D01*
G01X0014528Y0007980D02*
G03X0014226Y0007671I0000190J0000488D01*
G01X0014908Y0010248D02*
G03X0015027Y0010500I0000208J0000252D01*
G01X0010641Y0011967D02*
G03X0010637Y0011913I0000322J0000054D01*
G01X0004969Y0004217D02*
G03X0004686Y0004475I0000319J0000067D01*
G01X0003860Y0008676D02*
G03X0003723Y0008410I0000190J0000266D01*
G01X0007020Y0016377D02*
G03X0006917Y0016092I0000342J0000285D01*
G01X0013073Y0001800D02*
G03X0012862Y0002057I0000323J0000050D01*
G01X0010210Y0011366D02*
G03X0010073Y0011100I0000190J0000266D01*
G01X0012335Y0015216D02*
G03X0012407Y0015420I0000255J0000204D01*
G01X0011825Y0008924D02*
G03X0011753Y0008720I0000255J0000204D01*
G01X0010963Y0012240D02*
G03X0010910Y0012235I0000000J0000327D01*
G01X0012285Y0003492D02*
G03X0012316Y0003326I0000465J0000000D01*
G01X0006560Y0007700D02*
G03X0006616Y0007566I0000190J0000000D01*
G01X0006940Y0009184D02*
G03X0007077Y0009450I0000190J0000266D01*
G01X-0000128Y0019700D02*
G03X-0000242Y0019714I0000114J0000450D01*
G01X0000630Y0019715D02*
G03X0000635Y0019777I0000380J0000062D01*
G01X-0000136D02*
G03X-0000128Y0019700I0000386J0000000D01*
G01X0000199Y0019395D02*
G03X0000250Y0019392I0000051J0000382D01*
G01X-0000610Y0019534D02*
G03X-0001097Y0019814I0000487J0000284D01*
G01X0001596Y0019813D02*
G03X0001207Y0019656I0000000J0000563D01*
G01X0014897Y0007000D02*
G03X0015242Y0007492I0000179J0000492D01*
G01X0013913Y0007000D02*
G03X0014226Y0007312I0000179J0000492D01*
G01X0010302Y0012843D02*
G03X0010376Y0013050I0000252J0000207D01*
G01X0007362Y0016537D02*
G03X0007282Y0016530I0000000J0000445D01*
G01X0003678Y0011561D02*
G03X0003705Y0011413I0000405J0000000D01*
G01X0003795Y0004750D02*
G03X0003870Y0004570I0000255J0000000D01*
G01X0003723Y0008410D02*
G03X0003795Y0008206I0000327J0000000D01*
G01X0014805Y0011596D02*
G03X0014877Y0011800I0000255J0000204D01*
G01X0007150Y0007627D02*
G03X0007096Y0007622I0000000J0000327D01*
G54D42*
G01X0007386Y0003962D02*
X0004837D01*
X0004650Y0004150D01*
X0004050Y0004750D01*
Y0006200D01*
Y0008410D02*
Y0006200D01*
Y0004750D01*
X0004650Y0004150D01*
X0004837Y0003962D01*
X0007386D01*
X0004650Y0004150D02*
X0004837Y0003962D01*
X0007386D01*
X0012750Y0009800D02*
X0014550Y0011600D01*
Y0011800D01*
X0012080Y0008720D02*
Y0015420D01*
X0003996Y0014723D02*
Y0013554D01*
X0004600Y0012950D01*
Y0006900D01*
X0013734Y0003492D02*
X0013750Y0003508D01*
Y0005500D01*
X0012750Y0006500D01*
Y0006508D01*
X0008350Y0014350D02*
Y0012950D01*
X0009630Y0011670D01*
Y0008030D01*
G54D43*
G01X0004050Y0008410D02*
Y0010750D01*
Y0010800D01*
X0003350Y0011500D01*
Y0013200D01*
X0004050Y0010750D02*
Y0008410D01*
Y0006200D02*
X0005000D01*
X0005300Y0006500D01*
Y0007300D01*
X0000550Y0008750D02*
X0000850Y0008450D01*
Y0003500D01*
X0000700Y0003350D01*
X0000550Y0008750D02*
X0000850Y0008450D01*
X0001050Y0008250D01*
X0002400D01*
X0002550Y0008400D01*
X0009750Y0012600D02*
X0010400Y0011950D01*
Y0011100D01*
X0010963Y0011913D02*
X0010050Y0012827D01*
Y0013050D01*
X0014718Y0007492D02*
Y0010481D01*
X0014700Y0010500D01*
X0007150Y0007300D02*
X0006750Y0007700D01*
Y0009450D01*
X0007500Y0009600D02*
Y0014955D01*
X0007362Y0015092D01*
X0005500Y0009500D02*
Y0011250D01*
X0008386Y0003962D02*
X0008448Y0003900D01*
X0009850D01*
X0012750Y0001750D02*
X0012250Y0002250D01*
Y0002992D01*
X0012750Y0003492D01*
G54D46*
G01X0010150Y0018400D02*
X0006300D01*
X0005800Y0017900D01*
X0005300D01*
X0004000Y0016600D01*
Y0015878D01*
X0003832Y0015709D01*
G54D10*
X0015748Y0000000D03*
X0000000D03*
X0015748Y0019685D03*
X0005118D03*
G54D17*
X0013463Y0017250D03*
X0012675D03*
G54D18*
X0014250D03*
G54D19*
X0010911Y0002622D03*
X0014588D03*
G54D20*
X-0000242Y0019250D03*
X0013734Y0003492D03*
X0012750D03*
X0011766D03*
X0012750Y0002508D03*
X0013734D03*
G54D21*
X0000742Y0019250D03*
X0010781Y0006508D03*
X0011766Y0002508D03*
G54D22*
X0014718Y0007492D03*
X0013734D03*
X0012750D03*
X0011766D03*
X0010781D03*
X0014718Y0006508D03*
X0013734D03*
X0012750D03*
X0011766D03*
G54D23*
X0000250Y0019777D03*
X0012258Y0005980D03*
G54D24*
X-0001096Y0019250D03*
X0001596D03*
G54D25*
X0007386Y0002962D03*
Y0003962D03*
X0008386D03*
Y0002962D03*
X0004818Y0015873D03*
X0004982Y0014887D03*
X0003996Y0014723D03*
X0003832Y0015709D03*
X0008362Y0016092D03*
Y0015092D03*
X0007362D03*
Y0016092D03*
G54D26*
X0008819Y0007096D03*
X0004083Y0011561D03*
X0006929Y0011959D03*
G54D44*
X-0000350Y0015000D03*
X0015250Y0010500D03*
X0015150Y0012100D03*
X0002500Y0011950D03*
X0002000Y0010750D03*
X0006500Y0003100D03*
X0014718Y0004781D03*
X0002450Y0009750D03*
X0003350Y0013200D03*
X0004050Y0010750D03*
X0005300Y0007300D03*
X0004050Y0008410D03*
X0000700Y0003350D03*
X0000550Y0008750D03*
X0002550Y0008400D03*
X0004650Y0004150D03*
X0012750Y0009800D03*
X0014550Y0011800D03*
X0009750Y0012600D03*
X0010400Y0011100D03*
X0010963Y0011913D03*
X0010050Y0013050D03*
X0014700Y0010500D03*
X0007150Y0007300D03*
X0006750Y0009450D03*
X0007500Y0009600D03*
X0012080Y0008720D03*
Y0015420D03*
X0005500Y0009500D03*
Y0011250D03*
X0011450Y0014750D03*
X0004600Y0006900D03*
X0005050Y0010250D03*
X0010150Y0018400D03*
X0002750Y0007850D03*
Y0006350D03*
X0008350Y0014350D03*
X0009630Y0008030D03*
X0009850Y0003900D03*
G54D48*
X0012750Y0001750D03*
M02*
