%
T1C0.0079F200S100
X-000350Y015000
X000550Y008750
X000700Y003350
X002000Y010750
X002450Y009750
X002500Y011950
X002550Y008400
X002750Y006350
X002750Y007850
X003350Y013200
X004050Y008410
X004050Y010750
X004600Y006900
X004650Y004150
X005050Y010250
X005300Y007300
X005500Y009500
X005500Y011250
X006500Y003100
X006750Y009450
X007150Y007300
X007500Y009600
X008350Y014350
X009630Y008030
X009750Y012600
X009850Y003900
X010050Y013050
X010150Y018400
X010400Y011100
X010963Y011913
X011450Y014750
X012080Y008720
X012080Y015420
X012750Y001750
X012750Y009800
X014550Y011800
X014700Y010500
X014718Y004781
X015150Y012100
X015250Y010500
T3C0.0472F200S100
X-000242Y019250
X000742Y019250
X010781Y007492
X011766Y002508
X011766Y003492
X011766Y006508
X011766Y007492
X012750Y002508
X012750Y003492
X013734Y002508
X013734Y003492
X013734Y006508
X012750Y006508
X012750Y007492
X013734Y007492
X014718Y006508
X014718Y007492
T2C0.0354F200S100
X003832Y015709
X003996Y014723
X004818Y015873
X004982Y014887
X007362Y015092
X007362Y016092
X007386Y002962
X007386Y003962
X008362Y015092
X008362Y016092
X008386Y002962
X008386Y003962
X012675Y017250
X013463Y017250
X014250Y017250
T6C0.0630F200S100
X-001096Y019250
X001596Y019250
X010781Y006508
X010911Y002622
X014588Y002622
M30
